<svg width="209" height="77" viewBox="0 0 209 77" fill="none" xmlns="http://www.w3.org/2000/svg">
<path fill-rule="evenodd" clip-rule="evenodd" d="M63.4175 32.0875V49.5489L67.6864 58.3614C67.8564 58.7123 67.8388 59.1287 67.6383 59.4625C67.4376 59.7963 67.0859 60 66.7055 60H57.9372C57.5569 60 57.2051 59.7975 57.0045 59.4636C56.804 59.1298 56.7864 58.7134 56.9563 58.3626L61.2253 49.5489V33.0312L40.8228 41.8078C40.6879 41.8666 40.5444 41.8948 40.4008 41.8948C40.2572 41.8948 40.1136 41.8666 39.9788 41.8078L13.6741 30.4921C13.2663 30.3166 13 29.9047 13 29.4476C13 28.9904 13.2663 28.5785 13.6741 28.4031L39.9788 17.0874C40.2495 16.9709 40.5531 16.9709 40.8228 17.0874L67.1275 28.4031C67.5352 28.5785 67.8015 28.9904 67.8015 29.4476C67.8015 29.9047 67.5352 30.3166 67.1275 30.4921L63.4175 32.0875ZM90.8544 40.1422L85.1965 22.8102H77.7091V48.0139H82.6893V30.329H82.7572L88.6861 48.0139H92.7856L98.7145 30.1525H98.7823V48.0139H103.763V22.8102H96.2752L90.9221 40.1422H90.8544ZM112.876 26.9402V22.8102H108.065V26.9402H112.876ZM112.876 29.7642V48.0139H108.065V29.7642H112.876ZM129.173 30.4702C127.885 29.67 126.417 29.27 124.768 29.27C123.187 29.27 121.713 29.6465 120.347 30.3996C118.98 31.1526 117.885 32.2939 117.061 33.8236C116.236 35.3532 115.824 37.0475 115.824 38.9068C115.824 40.8834 116.23 42.619 117.044 44.1134C117.857 45.6076 118.947 46.7079 120.313 47.4139C121.679 48.1198 123.165 48.4846 124.768 48.5081C128.992 48.5081 131.725 46.4608 132.967 42.366H128.732C128.529 43.0249 128.06 43.5838 127.326 44.0427C126.592 44.5016 125.785 44.7311 124.904 44.7311C123.481 44.7311 122.425 44.3252 121.736 43.5133C121.047 42.7014 120.68 41.5659 120.635 40.1069H133.272C133.295 39.6833 133.306 39.3773 133.306 39.1891C133.306 37.2123 132.939 35.465 132.205 33.9471C131.471 32.4292 130.46 31.2702 129.173 30.4702ZM128.461 36.93C128.235 35.565 127.817 34.5767 127.207 33.9648C126.598 33.3529 125.728 33.0471 124.599 33.0471C123.424 33.0471 122.498 33.3942 121.821 34.0883C121.143 34.7825 120.748 35.7297 120.635 36.93H128.461ZM148.805 30.7525C147.484 29.7642 145.649 29.27 143.3 29.27C141.606 29.27 140.189 29.4994 139.049 29.9583C137.908 30.4172 137.061 31.0938 136.507 31.9881C135.954 32.8823 135.677 33.9295 135.677 35.1296C135.677 36.071 135.909 36.8652 136.372 37.5123C136.835 38.1595 137.507 38.6832 138.388 39.0832C139.269 39.4832 140.274 39.8009 141.403 40.0363C142.826 40.3421 143.876 40.6128 144.554 40.8482C145.232 41.0835 145.757 41.3541 146.129 41.6601C146.503 41.9659 146.688 42.3543 146.688 42.8249C146.688 43.5544 146.389 44.1251 145.791 44.5369C145.192 44.9488 144.441 45.1547 143.538 45.1547C142.476 45.1547 141.595 44.8781 140.895 44.3252C140.195 43.7721 139.845 43.0249 139.845 42.0836H135.271C135.316 44.0604 136.056 45.6254 137.49 46.7784C138.924 47.9315 140.929 48.5081 143.504 48.5081C145.966 48.5081 147.913 47.9609 149.348 46.8667C150.783 45.7724 151.5 44.2017 151.5 42.1542C151.5 41.1894 151.291 40.3775 150.872 39.7186C150.455 39.0597 149.795 38.4949 148.891 38.0242C147.987 37.5536 146.44 37.0947 144.249 36.6475C143.526 36.5063 142.866 36.3298 142.267 36.1181C141.669 35.9063 141.223 35.6592 140.929 35.3767C140.635 35.0944 140.488 34.7414 140.488 34.3177C140.488 33.7529 140.709 33.3294 141.149 33.0471C141.589 32.7646 142.261 32.6234 143.165 32.6234C144.204 32.6234 144.994 32.8175 145.537 33.2059C146.079 33.5941 146.384 34.2236 146.451 35.0944H151.025C150.867 33.1882 150.127 31.7409 148.805 30.7525ZM160.409 24.2928V29.7642H163.933V33.1176H160.409V42.1542C160.409 43.0014 160.545 43.5662 160.816 43.8487C161.088 44.131 161.629 44.2722 162.443 44.2722C163.029 44.2722 163.527 44.2252 163.933 44.131V48.0492C163.256 48.1669 162.307 48.2258 161.088 48.2258C159.235 48.2258 157.857 47.8963 156.955 47.2373C156.051 46.5785 155.599 45.4371 155.599 43.8133V33.1176H152.685V29.7642H155.599V24.2928H160.409ZM177.519 29.4465C177.225 29.3288 176.876 29.27 176.469 29.27C175.272 29.27 174.16 29.623 173.132 30.329C172.104 31.0349 171.353 31.9762 170.879 33.153H170.811V29.7642H166.237V48.0139H171.048V39.7892C171.048 35.8828 172.629 33.9295 175.791 33.9295C176.424 33.9295 177 33.9884 177.519 34.1059V29.4465ZM187.92 29.27C190.721 29.27 192.935 30.1583 194.56 31.9351C196.187 33.7118 197 36.0357 197 38.9068C197 41.8012 196.169 44.1251 194.509 45.8783C192.849 47.6316 190.653 48.5081 187.92 48.5081C185.143 48.5081 182.94 47.6198 181.313 45.8431C179.688 44.0663 178.875 41.7542 178.875 38.9068C178.875 35.965 179.704 33.6235 181.364 31.8822C183.024 30.1407 185.209 29.27 187.92 29.27ZM184.769 43.2132C184.047 42.2014 183.685 40.7658 183.685 38.9068C183.685 37.024 184.047 35.5768 184.769 34.5648C185.492 33.553 186.531 33.0471 187.887 33.0471C189.287 33.0471 190.353 33.553 191.088 34.5648C191.823 35.5768 192.189 37.024 192.189 38.9068C192.189 40.7187 191.833 42.1425 191.121 43.1779C190.411 44.2134 189.343 44.7311 187.92 44.7311C186.543 44.7311 185.492 44.2252 184.769 43.2132ZM55.3232 42.171L40.4008 48.5904L18.9021 39.342C18.3421 39.0998 17.7009 39.3748 17.4685 39.9508C17.2362 40.5279 17.4992 41.191 18.0582 41.4309L39.9788 50.8604C40.1136 50.9191 40.2572 50.9474 40.4008 50.9474C40.5444 50.9474 40.6879 50.9191 40.8228 50.8604L56.1672 44.2598C56.7261 44.02 56.9903 43.3568 56.7568 42.7797C56.5233 42.2027 55.8811 41.9299 55.3232 42.171Z" fill="black" fill-opacity="0.7"/>
</svg>
