<svg width="81" height="63" viewBox="0 0 81 63" fill="none" xmlns="http://www.w3.org/2000/svg">
<path fill-rule="evenodd" clip-rule="evenodd" d="M73.7279 46.9677V21.7711L79.1532 19.4689C79.7495 19.2158 80.1388 18.6214 80.1388 17.9617C80.1388 17.3021 79.7495 16.7077 79.1532 16.4546L40.6866 0.126137C40.2922 -0.0420458 39.8482 -0.0420458 39.4524 0.126137L0.985709 16.4546C0.389476 16.7077 0 17.3021 0 17.9617C0 18.6214 0.389476 19.2158 0.985709 19.4689L39.4524 35.7974C39.6495 35.8823 39.8595 35.923 40.0695 35.923C40.2795 35.923 40.4893 35.8823 40.6866 35.7974L70.5222 23.1329V46.9677L64.2794 59.6859C64.031 60.192 64.0567 60.7929 64.35 61.2746C64.6432 61.7564 65.1578 62.0486 65.7138 62.0486H78.5361C79.0924 62.0486 79.6067 61.7547 79.9002 61.273C80.1934 60.7913 80.2192 60.1904 79.9706 59.6842L73.7279 46.9677ZM40.0695 45.5846L61.8913 36.3215C62.7071 35.9736 63.6463 36.3673 63.9877 37.1999C64.3291 38.0327 63.9428 38.9896 63.1255 39.3357L40.6866 48.8602C40.4893 48.9449 40.2795 48.9858 40.0695 48.9858C39.8595 48.9858 39.6495 48.9449 39.4524 48.8602L7.39683 35.2535C6.5794 34.9074 6.19474 33.9505 6.53453 33.1179C6.87432 32.2866 7.81194 31.8899 8.63096 32.2393L40.0695 45.5846Z" fill="#474749"/>
</svg>
