<svg width="140" height="98" viewBox="0 0 140 98" fill="none" xmlns="http://www.w3.org/2000/svg">
<path fill-rule="evenodd" clip-rule="evenodd" d="M33.8667 58.526C34.3498 58.591 34.8329 58.591 35.3159 58.526C35.592 58.851 35.73 59.1759 35.592 59.5659C35.4539 59.9559 35.1779 60.3458 34.8329 60.6708C34.4878 60.9958 34.0738 61.3207 33.6597 61.5807C34.0738 61.3857 34.5568 61.1257 34.9709 60.8658C35.3849 60.5408 35.799 60.2158 36.006 59.7609C36.144 59.5009 36.144 59.2409 36.075 58.981C36.075 58.851 36.006 58.656 35.937 58.526C36.213 58.461 36.4891 58.396 36.7651 58.266C36.4891 58.331 36.144 58.331 35.868 58.331C35.868 58.266 35.799 58.266 35.799 58.201C35.523 57.8761 35.2469 57.5511 34.9019 57.2911C35.2469 57.1611 35.592 56.9662 35.868 56.7062C36.2821 56.7062 36.6271 56.6412 36.9721 56.6412C36.6961 56.6412 36.3511 56.6412 36.075 56.5762C36.144 56.4462 36.2821 56.3812 36.3511 56.2512C36.4201 56.1212 36.4891 55.9912 36.5581 55.8613C36.9721 55.9263 37.4552 56.0562 37.9383 56.3162C40.7676 57.9411 42.0098 60.0858 44.4941 61.9057C45.7363 62.7506 47.0474 63.5305 48.8417 63.5955C49.1177 63.5955 49.3937 63.6605 49.6698 63.6605C50.8429 63.5305 52.0161 63.0106 52.8442 62.3606C53.6033 61.7757 54.2244 60.9958 54.6384 59.9559C54.7074 59.8259 54.7074 59.6309 54.8455 59.5009C54.9835 59.3709 55.4665 59.3709 55.8116 59.3059C56.7777 59.1109 57.8128 58.981 58.71 58.721C59.7451 58.461 60.7802 58.0061 61.7464 57.5511C62.1604 57.3561 62.6435 57.2261 63.1955 57.0311C63.6786 56.9012 64.2307 56.6412 64.7827 56.4462C65.6109 56.1212 66.508 55.7963 67.3361 55.4713C68.9923 54.8214 70.5795 53.9765 72.1667 53.1315C73.5469 52.3516 74.9271 51.4417 76.1002 50.4018H7.16027C7.22928 50.7268 7.36729 51.0517 7.50531 51.3117C7.50531 51.7667 7.50531 52.2216 7.57432 52.6766C7.57432 52.8716 7.64333 53.0665 7.64333 53.2615C5.64207 54.3664 3.64081 56.3162 4.05486 58.396C4.12387 58.721 4.12387 58.916 4.26189 59.1109C4.46892 59.5009 4.74495 59.7609 5.22802 60.1508C5.57306 60.4108 5.8491 60.6708 6.26315 60.8658C6.47018 60.9308 6.6772 60.9958 7.02225 60.9958C7.64333 60.9958 8.26441 60.8008 8.81648 60.6058C9.36855 60.4758 9.98963 60.2808 10.5417 60.0858C11.8529 59.5659 13.095 58.786 14.4752 58.266C14.6132 58.201 14.7513 58.201 14.8893 58.136C15.0273 58.071 15.1653 58.006 15.3033 57.9411C15.8554 57.7461 16.4075 57.6161 17.0285 57.4211C17.3046 57.3561 17.5116 57.1611 17.8567 57.0961C19.0988 56.6412 20.272 56.1862 21.4451 55.6013C21.8592 57.2911 23.3774 58.0061 25.0336 58.331C25.7237 58.916 26.4828 59.3709 27.3799 59.5659C27.932 59.6959 28.6221 59.8259 29.2431 59.7609C29.8642 59.6959 30.5543 59.4359 31.0374 59.0459C31.4514 58.721 31.7275 58.331 31.9345 57.9411C32.2105 58.071 32.5556 58.201 32.9006 58.331C33.1076 58.396 33.5217 58.461 33.8667 58.526ZM82.5181 50.3368C83.2772 51.3117 84.0362 52.2866 84.7263 53.1965C84.7953 53.3265 84.8644 53.3915 85.0024 53.5215C85.2094 53.7165 85.4854 54.1064 85.6925 54.3664C86.1065 54.8864 86.5206 55.4063 87.0036 55.8613C87.4867 56.3812 87.8317 56.9012 88.3148 57.4211C88.5218 57.6811 88.7979 57.8761 89.0739 58.136C90.109 59.3059 91.2822 60.5408 92.5244 61.7107C93.4905 62.6856 94.4566 63.5955 95.4917 64.5054C96.4579 65.4153 97.493 66.3902 98.6662 67.1051C99.2872 67.4951 99.9083 67.8851 100.529 68.275C100.667 68.34 100.805 68.47 100.943 68.6C101.15 68.73 101.288 68.73 101.496 68.795C101.841 68.925 102.117 69.1849 102.462 69.3149C102.738 69.3799 102.945 69.4449 103.221 69.5099C103.842 69.7049 104.601 70.0299 105.498 70.0948C106.671 70.1598 107.844 69.8349 108.741 69.3799C108.81 69.3799 108.879 69.3149 108.879 69.2499C109.225 69.0549 109.915 68.73 110.191 68.405C110.398 68.275 110.605 68.0151 110.743 67.7551C111.295 67.1701 111.778 66.3902 112.123 65.5453C113.02 63.3355 113.227 60.4108 113.572 57.8761C113.641 57.3561 113.71 56.7712 113.779 56.2512C113.848 55.7313 114.124 55.2113 114.331 54.6264C114.814 53.1315 115.297 51.6367 115.849 50.1418H82.5181V50.3368ZM127.995 22.1946L127.788 22.4546C127.926 22.3896 127.995 22.3246 127.995 22.1946ZM127.443 23.0395C127.512 22.9096 127.65 22.7146 127.788 22.4546C127.788 22.4546 127.719 22.4546 127.65 22.5196C127.65 22.3896 127.719 21.9997 127.995 22.1296C127.995 22.1946 127.995 22.1946 127.995 22.2596C128.133 22.0646 128.34 21.8697 128.409 21.8047C128.823 21.5447 129.306 21.6097 129.858 21.6097C130.065 21.6097 130.272 21.6097 130.479 21.5447C130.893 21.4797 131.1 21.0897 131.514 21.0247C131.79 20.9598 132.274 21.1547 132.619 21.2197C133.102 21.2847 133.585 21.2847 133.654 20.6348C133.654 20.5048 133.516 20.3748 133.585 20.3098C133.723 20.1798 134.275 20.5048 134.413 20.5698C134.689 20.6998 135.172 20.8298 135.31 20.8298C135.517 20.7648 135.586 20.3748 135.655 20.1148C135.793 19.8549 136 19.5949 136 19.3999C136 19.0099 135.241 18.49 134.827 18.23C133.654 17.4501 132.826 17.1251 131.583 16.5402C131.031 16.2802 130.341 16.0202 129.789 15.8253C128.616 15.5653 127.236 15.5653 126.201 15.6953C125.925 15.7603 125.235 16.1502 124.959 16.3452C124.752 16.4752 124.614 16.6702 124.476 16.8002C123.992 17.1901 123.509 17.7101 123.095 18.165C121.991 19.3999 120.68 20.6348 119.369 21.6747C119.231 21.8047 118.472 22.3896 118.265 22.3246C118.058 22.2596 118.127 21.6747 118.265 21.2197C118.472 20.5048 118.748 19.8549 119.024 19.2049C119.507 17.9701 120.128 16.5402 120.68 15.3053C121.025 14.5254 121.37 13.8105 121.715 13.0955C121.922 12.7056 121.853 12.7056 121.439 12.5106C121.232 12.4456 121.025 12.3806 120.887 12.3806C120.749 12.4456 120.68 13.0305 120.611 13.1605C120.542 13.4205 120.335 13.7455 120.197 14.0704C119.369 15.9553 118.265 18.1 117.299 19.9199C116.263 21.8047 115.573 22.9746 114.331 24.3394C114.124 24.5344 113.917 24.7944 113.779 24.9894C113.503 25.3143 113.158 25.6393 113.296 26.1592C113.296 26.2242 113.434 26.2892 113.365 26.4192C113.365 26.6142 113.158 26.8092 113.089 27.0042C112.675 28.434 113.503 29.2789 114.193 30.0588C114.538 30.4488 114.952 30.9038 115.504 31.2937C115.573 31.3587 116.056 31.5537 116.056 31.6187C116.125 31.7487 115.78 32.4636 115.642 32.7886C115.297 33.5685 114.952 34.2834 114.607 34.9984H122.267C122.543 34.4784 122.888 34.0234 123.164 33.4385C123.371 33.0485 123.578 32.2036 123.923 31.8787C124.268 31.6187 124.683 31.8787 124.959 31.4887C125.166 31.2287 125.166 30.2538 125.097 29.9289C126.408 29.7989 125.511 28.174 126.063 27.5241C126.132 27.4591 126.201 27.3941 126.201 27.3291C126.27 27.0691 125.994 26.8092 126.063 26.5492C126.132 26.2892 126.408 26.1592 126.408 25.7693C126.408 25.7043 126.339 25.5743 126.339 25.5743C126.408 25.3143 126.891 25.2493 126.96 24.9894C127.098 24.7294 126.891 24.4694 126.96 24.2094C127.029 24.0794 127.236 23.9495 127.374 23.7545C127.443 23.4295 127.374 23.1695 127.443 23.0395ZM105.774 34.7384C105.705 33.3735 105.705 31.9437 105.774 30.3188C105.774 29.9289 105.843 29.6039 105.843 29.0839C105.843 28.694 105.567 28.109 105.843 27.7841C106.119 27.4591 106.602 27.7191 106.74 27.1341C106.74 26.9392 106.602 26.6142 106.602 26.4192C106.602 26.2242 106.74 25.8993 106.74 25.7043C106.809 25.3143 106.878 24.6644 106.671 24.2094C106.533 23.8195 106.119 23.5595 105.843 23.1695C105.567 22.7146 105.084 21.6747 105.084 21.1547C105.084 20.9598 105.291 20.7648 105.291 20.6348C105.291 20.3748 105.015 20.1148 105.015 19.9199C105.015 19.7899 105.084 19.7899 105.153 19.6599C105.153 19.5949 105.153 19.3999 105.153 19.3349C105.153 19.2049 105.084 19.1399 105.084 19.0749C105.084 19.0099 105.015 18.945 105.015 18.815C105.015 18.685 105.084 18.36 105.084 18.1C105.084 17.9051 105.084 17.5801 105.084 17.5151C105.291 16.9302 106.533 16.2802 107.085 15.8903C107.637 15.4353 108.189 15.3053 108.879 15.1103C109.294 14.9804 109.708 14.8504 109.777 14.5254C109.846 14.1354 109.57 14.0704 109.432 13.7455C109.777 13.6805 109.984 13.6805 110.329 13.6805C110.605 13.6805 111.088 13.6155 111.157 13.4855C111.295 13.2905 111.157 12.9006 111.157 12.6406C111.157 12.2506 111.157 12.0556 111.019 11.9257C110.812 11.7307 110.053 11.5357 109.708 11.4707C108.258 11.1457 107.154 11.2107 105.705 11.2757C104.739 11.2757 103.773 11.2107 102.945 11.4057C102.807 11.4057 102.669 11.5357 102.6 11.5357C102.255 11.6007 101.979 11.6657 101.703 11.8607C101.634 11.8607 101.565 11.9907 101.496 11.9907C101.15 12.1856 100.736 12.6406 100.529 13.0305C99.8393 14.0055 99.3562 15.2403 98.9422 16.5402C98.6662 17.3851 98.3901 18.23 98.0451 19.1399C97.769 19.9199 97.493 20.9598 97.0099 21.4797C96.8719 21.6747 96.5269 21.9347 96.2508 21.8697C95.6988 21.7397 95.5608 20.5048 95.4917 19.8549C95.2847 18.23 95.2157 16.6702 95.0777 15.1103L94.9397 13.2905C94.9397 13.0955 94.8707 12.9006 94.8707 12.7056C94.8707 12.3806 95.0087 12.0556 94.8707 11.9257C94.7326 11.7957 93.9735 11.9257 93.9045 11.9907C93.7665 12.1856 93.9735 12.5106 93.9735 12.6406C94.0425 12.9006 93.9735 13.1605 93.9735 13.3555C94.0425 14.5904 94.1116 16.3452 94.1806 17.4501C94.2496 19.3999 94.2496 21.6747 94.1116 23.1695C94.0426 23.6895 93.9735 24.0794 93.9045 24.4694C93.7665 25.1193 93.3525 25.9643 93.3525 26.6142C93.3525 26.7442 93.4215 27.1341 93.5595 27.1991C93.6285 27.2641 93.7665 27.1991 93.7665 27.2641C93.8355 27.3941 93.7665 27.6541 93.7665 27.7841C93.8355 28.304 94.1116 28.889 94.5946 29.2789C95.2847 29.8639 96.6649 30.5138 97.838 30.7738C97.9071 30.7738 98.4591 30.7738 98.4591 30.8388C98.7352 30.9688 98.6662 31.8787 98.6662 32.3986C98.6662 33.0485 98.8042 33.5685 98.8042 34.0234C98.8042 34.3484 98.8042 34.6084 98.8042 34.9334H105.774V34.7384ZM90.6611 34.7384C88.6598 31.2287 86.4516 27.8491 82.311 26.2242C81.3449 25.8343 80.3098 25.4443 79.2056 25.2493C77.0663 24.9244 75.2721 25.1843 73.8229 25.7693C73.0638 26.0942 72.2357 26.4842 71.5456 27.0042C71.1316 27.3291 70.6485 27.6541 70.2345 28.044C69.8204 28.434 69.3373 28.824 69.0613 29.2139C67.7501 30.8388 66.715 32.7236 65.8869 34.8034H90.6611V34.7384ZM7.29829 34.7384H43.528C43.1829 34.4134 42.7689 34.0884 42.2858 33.7635C41.5267 33.3085 40.5606 32.9186 39.5945 32.7236C38.6284 32.5286 37.5242 32.5936 36.5581 32.8536C35.799 33.0485 35.1089 33.3085 34.4188 33.6335C33.3837 33.2435 32.2795 33.0485 31.1064 32.9836C31.5894 32.4636 32.0035 31.8137 32.2795 31.1637C31.9345 31.8137 31.4514 32.4636 30.8993 32.9186C30.4163 32.9186 29.9332 32.9186 29.4502 32.9186C28.7601 32.9186 28.001 32.9186 27.2419 32.9186C27.5179 32.5286 27.6559 32.1386 27.7939 31.6837C27.863 31.6837 27.932 31.6837 28.07 31.6837C28.9671 31.7487 29.8642 32.0086 30.6233 32.5286C29.9332 31.9437 29.1051 31.5537 28.139 31.2937C28.07 31.2937 27.932 31.2287 27.863 31.2287C27.863 30.8388 27.863 30.5138 27.7939 30.1238C27.6559 29.1489 27.1729 28.239 26.6898 27.3941C27.0349 28.304 27.3109 29.2139 27.3799 30.1238C27.3799 30.4488 27.3799 30.7738 27.3109 31.0987C26.6898 31.1637 26.0687 31.1637 25.3786 31.1637C24.4815 31.0987 23.5154 31.1637 22.6183 31.2287C22.4803 31.1637 22.2732 31.1637 22.1352 31.0987C21.5141 30.9688 20.824 30.9038 20.203 30.9038C19.7199 30.7088 19.2368 30.5138 18.7538 30.3838C17.9947 30.1888 17.1666 30.0588 16.4075 30.0588C14.8203 29.9939 13.164 30.2538 11.6458 30.8388C10.1277 31.4237 8.67846 32.4636 7.71234 33.9585C7.57432 34.2184 7.4363 34.4784 7.29829 34.7384Z" fill="#1A1A1C"/>
<path fill-rule="evenodd" clip-rule="evenodd" d="M10.4727 42.7863C10.4727 42.8513 10.1277 42.9163 9.36859 42.9163C9.36859 42.7863 9.36859 42.5263 9.50661 42.1364C9.57562 41.7464 9.78264 41.2264 9.92066 40.6415C9.98967 40.6415 10.1277 41.3564 10.4727 42.7863ZM9.50661 37.7168C9.16156 38.3017 8.88553 38.8867 8.60949 39.4066C8.33346 39.9266 8.05742 40.5765 7.78138 41.1615C7.43634 42.2663 7.22931 42.8513 7.09129 42.9163C6.47021 42.9813 6.19418 43.1113 6.19418 43.3062V43.3712C6.53922 43.8262 6.74625 44.1512 6.74625 44.2811L6.40121 46.101C6.40121 46.2309 6.40121 46.3609 6.47021 46.4909C6.47021 46.5559 6.53922 46.6859 6.67724 46.6859C6.74625 46.7509 6.95328 46.8159 7.09129 46.8159C7.29832 46.8809 7.57436 46.8809 7.9194 46.9459L8.12643 46.8809C8.19544 46.8159 8.26445 46.6209 8.40246 46.2309C8.54048 45.906 8.6785 45.386 8.81652 44.7361L10.7488 44.6061C10.8178 44.6061 10.8178 44.6061 10.8178 44.6061C10.8178 44.6061 10.8178 44.6061 10.8868 44.6061L11.2318 45.906C11.3699 46.6859 11.5769 47.0759 11.9219 47.0759H12.1289C12.474 46.9459 12.75 46.8159 12.9571 46.7509C13.1641 46.6859 13.3021 46.6209 13.4401 46.6209C13.5781 46.5559 13.6471 46.5559 13.6471 46.4909C13.7162 46.4259 13.7162 46.3609 13.7162 46.2959V46.2309C13.4401 45.256 13.1641 44.1512 12.75 42.9163C12.405 41.6814 11.9219 40.3815 11.4389 38.8867C11.1628 37.9118 10.9558 37.3918 10.7488 37.3918C9.92066 37.5218 9.4376 37.6518 9.50661 37.7168Z" fill="#1A1A1C"/>
<path fill-rule="evenodd" clip-rule="evenodd" d="M16.8903 39.3416H17.2354C17.5804 39.3416 17.9254 39.4066 18.2015 39.5366C18.4775 39.6666 18.7536 39.8616 18.9606 40.0566C19.1676 40.2515 19.3056 40.5115 19.4436 40.7715C19.5817 41.0315 19.5817 41.2914 19.6507 41.6164V41.6814C19.6507 41.8764 19.6507 42.1364 19.6507 42.3963C19.1676 43.6962 18.0635 44.3461 16.3382 44.3461V44.1512C16.2692 42.7213 16.2692 41.1615 16.3382 39.3416C16.4072 39.3416 16.6143 39.3416 16.8903 39.3416ZM16.3382 37.3918C15.8552 37.3918 15.3721 37.4568 14.9581 37.5218C14.544 37.5868 14.268 37.6518 13.9919 37.7818C13.7159 37.8468 13.5089 37.9768 13.3709 38.1068C13.2328 38.2367 13.1638 38.3667 13.1638 38.4317C13.1638 38.5617 13.1638 38.6267 13.1638 38.6917C13.1638 38.7567 13.1638 38.8217 13.2328 38.8867V39.6666C13.3018 39.9266 13.3709 40.0566 13.5089 40.0566C13.9919 39.9266 14.337 39.8616 14.406 39.8616H14.475C14.268 41.4864 14.268 42.8513 14.268 43.9562V44.5411C14.268 44.7361 14.268 44.9311 14.337 45.1911C14.337 45.386 14.406 45.646 14.406 45.906C14.544 46.036 14.682 46.2309 14.751 46.2959C14.82 46.4259 14.9581 46.4909 15.0271 46.5559C15.0961 46.6209 15.2341 46.6859 15.3721 46.6859C15.5101 46.7509 15.7172 46.7509 16.0622 46.7509H16.3382C17.7184 46.7509 18.9606 46.2959 20.1337 45.386C21.2379 44.4111 21.7209 43.3062 21.7209 42.1364V41.8114C21.7209 41.1615 21.5829 40.5765 21.3069 40.0566C21.0999 39.5366 20.7548 39.0167 20.2717 38.6267C19.8577 38.2367 19.3056 37.9118 18.7536 37.7168C18.1325 37.5218 17.5114 37.3918 16.8213 37.3918H16.3382Z" fill="#1A1A1C"/>
<path fill-rule="evenodd" clip-rule="evenodd" d="M28.1393 37.4837C27.3802 37.4837 26.8972 37.5487 26.8972 37.7437C26.6211 37.8087 26.4831 39.6285 26.4831 43.1382C26.0001 43.7881 25.517 44.1131 25.1029 44.1131H24.7579C24.2748 43.9831 24.0678 43.4632 23.9988 42.6182V42.3583C23.9988 41.9683 23.9988 41.3834 24.0678 40.6034C24.1368 39.8885 24.2058 38.9136 24.3439 37.8087C24.3439 37.6137 24.1368 37.4837 23.7228 37.4837H23.5848C23.3087 37.4837 23.1017 37.5487 22.8947 37.6137C22.4116 37.6137 22.1356 37.7437 21.9975 37.9387C21.6525 39.4985 21.4455 40.9934 21.5145 42.3583V42.7482C21.5835 44.1131 21.7905 45.088 22.2736 45.7379C22.6876 46.3879 23.3087 46.7778 23.9988 46.7778H24.0678C24.8959 46.7778 25.793 46.4529 26.6902 45.7379H26.7592C26.7592 46.3879 26.9662 46.7778 27.2422 46.7778L28.5534 46.4529C28.7604 46.4529 28.8294 46.2579 28.8984 45.8029V44.3081C28.8984 43.6581 28.8984 42.8132 28.8984 41.7733C28.8984 40.6684 28.8984 39.3686 28.8984 37.7437C28.8984 37.5487 28.7604 37.4188 28.5534 37.4188C28.4154 37.3538 28.2084 37.4188 28.1393 37.4837Z" fill="#1A1A1C"/>
<path fill-rule="evenodd" clip-rule="evenodd" d="M31.2441 37.4568H30.278C30.071 37.5218 30.002 37.5868 29.8639 37.7168C29.5879 39.0817 29.4499 40.3815 29.5189 41.6164V42.3313C29.5189 42.9813 29.5879 43.5662 29.6569 44.1512C29.7259 44.7361 29.7949 45.256 29.8639 45.776C30.14 46.166 30.416 46.3609 30.7611 46.3609C31.3821 46.3609 32.6933 46.2959 34.5565 46.036C35.6607 45.971 36.1438 45.711 36.1438 45.256L35.9367 44.5411V44.4761L36.0747 44.0212C36.0747 43.8262 35.9367 43.6962 35.7297 43.6962C34.8326 43.8262 34.1425 43.8912 33.5904 43.9562C33.0384 44.0212 32.6243 44.0212 32.3483 44.0212H32.0032C31.9342 44.0212 31.9342 43.8262 31.9342 43.5012C31.9342 42.8513 31.8652 42.0714 31.9342 41.0965V37.6518C31.8652 37.5218 31.6582 37.3918 31.3131 37.3918H31.2441V37.4568Z" fill="#1A1A1C"/>
<path fill-rule="evenodd" clip-rule="evenodd" d="M39.8703 37.5218C38.7662 37.5868 37.524 37.7168 36.0058 37.8468C35.5917 37.8468 35.3847 38.0418 35.3157 38.4967C35.3847 38.7567 35.3847 38.8867 35.3847 38.8867L35.3157 39.6016C35.3157 39.7966 35.4537 39.9266 35.6608 39.9916C35.7298 39.9916 35.9368 39.9916 36.3508 39.9266L38.2141 39.7966C38.1451 40.7715 38.0761 41.6814 38.0071 42.3963C38.0071 43.1763 38.0071 43.7612 38.0071 44.3461C38.0761 45.776 38.2141 46.4909 38.4211 46.4909C38.8352 46.4909 39.1802 46.5559 39.4562 46.6209C40.2844 46.6209 40.6984 46.4259 40.6984 46.036C40.5604 45.0611 40.5604 44.2811 40.5604 43.7612L40.4914 42.5913C40.4914 42.1364 40.4914 41.6814 40.4914 41.2264C40.4914 40.7065 40.4914 40.1866 40.4914 39.6016C40.9054 39.6016 41.3195 39.6016 41.6645 39.5366C42.0096 39.5366 42.2856 39.4716 42.5616 39.4066C42.7687 39.3416 42.9757 39.2766 43.1137 39.0817C43.2517 38.9517 43.3207 38.7567 43.2517 38.5617C43.2517 38.4317 43.2517 38.3017 43.1827 38.1718L43.3207 37.8468C43.3207 37.6518 43.0447 37.4568 42.5616 37.3918C41.8716 37.3918 40.9744 37.4568 39.8703 37.5218Z" fill="#1A1A1C"/>
<path fill-rule="evenodd" clip-rule="evenodd" d="M49.1174 37.7818C48.9794 38.0418 48.7724 38.3667 48.6344 38.7567C48.4963 39.1467 48.2893 39.6666 48.0823 40.2515C47.8753 40.8365 47.6682 41.4214 47.4612 42.0714C47.1852 41.0965 46.9091 40.2515 46.7021 39.5366C46.4261 38.8217 46.2881 38.3017 46.081 37.9118C46.081 37.6518 45.874 37.4568 45.4599 37.4568H45.1839L44.2868 37.5218L43.5967 37.4568C43.3207 37.4568 43.1136 37.5868 42.9756 37.7168C42.7686 39.0167 42.5616 40.2515 42.4926 41.4214C42.4236 42.5913 42.3545 43.8262 42.4236 44.9961V45.1911C42.4236 45.711 42.5616 46.036 42.7686 46.2309C43.6657 46.4909 44.3558 46.6209 44.7699 46.6209C44.7699 46.6209 44.8389 46.5559 44.9079 46.4909L44.9769 41.1615C45.1149 41.5514 45.3219 42.1364 45.529 42.8513L46.4951 45.776C46.4951 45.906 46.4951 45.971 46.5641 46.036C46.6331 46.101 46.7021 46.166 46.7711 46.2309C46.9091 46.2959 46.9781 46.3609 47.1852 46.3609C47.3232 46.4259 47.5302 46.4909 47.8063 46.5559C47.9443 46.5559 48.0823 46.4909 48.2203 46.3609C48.2893 46.2309 48.6344 45.321 49.1864 43.7612C49.8075 41.8114 50.1526 40.7715 50.2216 40.7065V46.101C50.2216 46.166 50.2216 46.2959 50.2216 46.3609C50.2216 46.4909 50.2906 46.5559 50.3596 46.6209C50.4286 46.6859 50.4976 46.7509 50.6356 46.7509H52.0848C52.4299 46.7509 52.6369 46.6209 52.7059 46.4259C52.6369 44.9311 52.5679 43.6962 52.4989 42.5913C52.4299 41.5514 52.3608 40.6415 52.2918 39.9916C52.2918 39.6016 52.2918 39.2117 52.2918 38.9517C52.2918 38.6267 52.2918 38.3667 52.2228 38.1068C52.2228 37.9118 52.1538 37.7168 52.0848 37.5868C52.0158 37.4568 51.8778 37.3918 51.7398 37.3918H49.5315C49.3935 37.3918 49.2554 37.5218 49.1174 37.7818Z" fill="#1A1A1C"/>
<path fill-rule="evenodd" clip-rule="evenodd" d="M55.8115 37.3918C55.3975 37.3918 55.0524 37.3918 54.7074 37.4568C54.3624 37.4568 54.0173 37.5218 53.7413 37.5218C53.4652 37.5868 53.1892 37.6518 53.0512 37.7168C52.8442 37.7818 52.7751 37.9118 52.7751 37.9768C52.8442 38.1718 52.9132 38.3667 52.9132 38.5617L52.9822 39.0167C52.9822 39.1467 53.0512 39.2116 53.0512 39.2766C53.0512 39.3416 53.1202 39.3416 53.1892 39.3416C53.4652 39.4066 53.6033 39.4066 53.6033 39.4066C53.5343 40.7065 53.3962 41.8114 53.3962 42.6563C53.3272 43.5012 53.3272 44.2161 53.3272 44.7361C53.3272 45.451 53.4652 45.841 53.6033 46.036C53.7413 46.101 53.8793 46.166 54.0173 46.166C54.1553 46.2309 54.2243 46.2959 54.2933 46.2959C54.9144 46.2959 55.6735 46.2959 56.4326 46.2309C57.1917 46.166 58.0888 46.101 58.986 46.036C59.676 45.971 60.0211 45.776 60.0211 45.516C60.0211 45.386 59.9521 45.256 59.9521 45.1911C59.9521 45.1261 59.9521 45.0611 59.9521 44.9961C59.9521 44.9311 59.9521 44.8011 60.0901 44.5411C59.9521 44.2811 59.7451 44.1512 59.4 44.1512H59.193C58.8479 44.1512 58.3649 44.1512 57.7438 44.2161C57.1227 44.2811 56.3636 44.3461 55.3975 44.4761V42.5263C55.3975 42.5263 55.4665 42.4613 55.6045 42.4613C55.7425 42.4613 55.9496 42.4613 56.1566 42.3963L56.9157 42.3313C57.1917 42.3313 57.3988 42.3313 57.6748 42.2663C57.8818 42.2663 58.0888 42.2013 58.2269 42.2013C58.3649 42.2013 58.4339 42.1364 58.4339 42.0714C58.5029 42.0714 58.5719 41.7464 58.7099 40.9665C58.7099 40.8365 58.6409 40.7715 58.6409 40.7065C58.5719 40.7715 58.5719 40.7065 58.5029 40.7065C58.4339 40.6415 58.2959 40.6415 58.1578 40.5765C58.0198 40.5765 57.8128 40.5115 57.5368 40.5115H57.0537C56.7777 40.5115 56.5706 40.5115 56.2946 40.5115L55.4665 40.5765C55.5355 39.9916 55.5355 39.6016 55.6045 39.3416C56.4326 39.2766 57.0537 39.2116 57.5368 39.2116C58.0888 39.2116 58.4339 39.1467 58.7789 39.0817C59.124 39.0167 59.262 39.0167 59.4 38.9517C59.538 38.8867 59.538 38.7567 59.538 38.6267L59.4 37.9768C59.331 37.7818 59.331 37.6518 59.262 37.5868C59.262 37.5218 59.055 37.4568 58.6409 37.4568C58.2269 37.3918 57.5368 37.3918 56.7087 37.3918H55.8115Z" fill="#1A1A1C"/>
<path fill-rule="evenodd" clip-rule="evenodd" d="M66.4388 37.7818C66.3008 38.0418 66.1628 38.3667 65.9558 38.7567C65.8177 39.1467 65.6107 39.6666 65.4037 40.2515C65.1967 40.8365 64.9896 41.4214 64.7826 42.0714H64.7136C64.4376 41.0965 64.1615 40.2515 63.9545 39.5366C63.6785 38.8217 63.5404 38.3017 63.3334 37.9118C63.3334 37.6518 63.1264 37.4568 62.7813 37.4568H62.5053L61.6082 37.5218L60.9181 37.4568C60.6421 37.4568 60.435 37.5868 60.297 37.7168C60.09 39.0167 59.883 40.2515 59.814 41.4214C59.745 42.5913 59.6759 43.8262 59.745 44.9961V45.1911C59.745 45.711 59.883 46.036 60.09 46.2309C60.9871 46.4909 61.6772 46.6209 62.0913 46.6209C62.0913 46.6209 62.1603 46.5559 62.2293 46.4909L62.2983 41.1615C62.4363 41.5514 62.6433 42.1364 62.8504 42.8513L63.8165 45.776C63.8165 45.906 63.8165 45.971 63.8855 46.036C63.9545 46.101 64.0235 46.166 64.0925 46.2309C64.2305 46.2959 64.2995 46.3609 64.5066 46.3609C64.6446 46.4259 64.8516 46.4909 65.1277 46.5559C65.2657 46.5559 65.4037 46.4909 65.5417 46.3609C65.6107 46.2309 65.9558 45.321 66.5078 43.7612C67.1289 41.8114 67.474 40.7715 67.543 40.7065V46.101C67.543 46.166 67.543 46.2959 67.543 46.3609C67.543 46.4909 67.612 46.5559 67.681 46.6209C67.75 46.6859 67.819 46.7509 67.957 46.7509H69.4062C69.7513 46.7509 69.9583 46.6209 70.0273 46.4259C69.9583 44.9311 69.8893 43.6962 69.8203 42.5913C69.7513 41.5514 69.6822 40.6415 69.6132 39.9916C69.6132 39.6016 69.6132 39.2117 69.6132 38.9517C69.6132 38.6267 69.6132 38.3667 69.5442 38.1068C69.4752 37.9118 69.4752 37.7168 69.4062 37.5868C69.3372 37.4568 69.1992 37.3918 69.0612 37.3918H66.8529C66.7149 37.3918 66.6459 37.5218 66.4388 37.7818Z" fill="#1A1A1C"/>
<path fill-rule="evenodd" clip-rule="evenodd" d="M73.2019 42.7213C73.2019 42.6563 73.4089 42.6563 73.754 42.6563H74.099C74.8581 42.7213 75.2722 42.9813 75.2722 43.3712V43.5662C75.2722 43.8262 75.1342 44.0212 74.8581 44.2161C74.5821 44.4111 74.099 44.4761 73.4089 44.4761H73.2019V42.7213ZM73.685 39.2766H73.961C74.5131 39.3416 74.8581 39.6016 74.8581 39.9916V40.1866C74.8581 40.3165 74.7891 40.4465 74.7201 40.5115C74.6511 40.6415 74.5131 40.7065 74.3751 40.7715C74.237 40.8365 74.03 40.9015 73.892 40.9665C73.685 41.0315 73.478 41.0315 73.2709 41.0315H73.2019V39.3416C73.3399 39.3416 73.478 39.2766 73.685 39.2766ZM73.478 37.4568C70.9936 37.7818 69.8205 38.2367 69.8205 38.8217C69.8205 38.8867 69.8895 39.1467 70.0275 39.5366C70.0275 39.6016 70.0275 39.7316 69.9585 39.8616C69.9585 39.9916 70.0275 40.1216 70.2345 40.2515C70.3725 40.2515 70.6486 40.1866 71.0626 39.9916C71.0626 40.8365 70.9936 41.6164 70.9936 42.3313C70.9936 43.0463 70.9936 43.7612 70.9936 44.4111L71.0626 45.581C71.1316 46.101 71.2697 46.3609 71.4767 46.3609H71.6837L71.7527 46.4259C71.7527 46.6859 72.3048 46.8159 73.3399 46.8159H74.03C74.5821 46.8159 75.1342 46.7509 75.5482 46.4909C76.0313 46.2959 76.3763 46.036 76.7214 45.711C76.9974 45.386 77.2734 45.0611 77.4115 44.7361C77.5495 44.4111 77.6185 44.0212 77.6185 43.6962V43.5662C77.6185 42.7863 77.1354 42.1364 76.3073 41.4864V41.4214C76.9284 41.0315 77.2044 40.4465 77.2044 39.7316C77.2044 39.3416 77.0664 39.0167 76.8594 38.6917C76.6524 38.4317 76.4453 38.1718 76.1003 37.9768C75.7552 37.7818 75.4792 37.6518 75.0652 37.5218C74.7201 37.3918 74.3061 37.3918 73.892 37.3918H73.478V37.4568Z" fill="#1A1A1C"/>
<path fill-rule="evenodd" clip-rule="evenodd" d="M80.3787 37.5868C79.9646 37.5868 79.6196 37.5868 79.2745 37.6518C78.9295 37.6518 78.5844 37.7168 78.3084 37.7168C78.0323 37.7818 77.7563 37.8468 77.6183 37.9118C77.4113 37.9768 77.3423 38.1068 77.3423 38.1718C77.4113 38.3667 77.4803 38.5617 77.4803 38.7567L77.5493 39.2117C77.5493 39.3416 77.6183 39.4066 77.6183 39.4716C77.6183 39.5366 77.6873 39.5366 77.7563 39.5366C78.0323 39.6016 78.1704 39.6016 78.1704 39.6016C78.0324 40.9015 77.9633 42.0064 77.9633 42.8513C77.8943 43.6962 77.8943 44.4111 77.8943 44.9311C77.8943 45.646 78.0324 46.036 78.1704 46.2309C78.3084 46.2959 78.4464 46.3609 78.5844 46.3609C78.7224 46.4259 78.7915 46.4909 78.8605 46.4909C79.5506 46.4909 80.2406 46.4909 80.9997 46.4259C81.7588 46.3609 82.656 46.2959 83.5531 46.2309C84.2432 46.166 84.5882 45.971 84.5882 45.711C84.5882 45.581 84.5882 45.451 84.5192 45.386C84.5192 45.321 84.5192 45.256 84.5192 45.1911C84.5192 45.1261 84.5192 44.9961 84.6572 44.7361C84.5192 44.4761 84.3122 44.3461 83.9671 44.3461H83.7601C83.415 44.3461 82.932 44.3461 82.3109 44.4111C81.6898 44.4761 80.9307 44.5411 79.9646 44.6711V42.7213C79.9646 42.7213 80.0336 42.6563 80.1716 42.6563C80.3096 42.6563 80.5167 42.6563 80.7237 42.5913L81.4828 42.5263C81.7588 42.5263 81.9659 42.5263 82.2419 42.4613C82.4489 42.4613 82.656 42.3963 82.794 42.3963C82.932 42.3963 83.001 42.3313 83.001 42.2663C83.07 42.2663 83.139 41.9414 83.277 41.1615C83.277 41.0315 83.208 40.9665 83.208 40.9015C83.208 40.8365 83.139 40.7715 83.07 40.7065C83.001 40.6415 82.863 40.6415 82.725 40.5765C82.5869 40.5115 82.3799 40.5115 82.1039 40.5115H81.6208C81.3448 40.5115 81.1378 40.5115 80.8617 40.5115L80.0336 40.5765C80.0336 39.9916 80.1026 39.6016 80.1716 39.3416C80.9997 39.2766 81.6208 39.2117 82.1729 39.2117C82.656 39.2117 83.07 39.1467 83.415 39.0817C83.7601 39.0167 83.8981 39.0167 84.0361 38.9517C84.1741 38.8867 84.1741 38.7567 84.1741 38.6267L84.0361 37.9768C83.9671 37.7818 83.9671 37.6518 83.8981 37.5868C83.8981 37.5218 83.6911 37.4568 83.277 37.4568C82.863 37.3918 82.1729 37.3918 81.3448 37.3918H80.3787V37.5868Z" fill="#1A1A1C"/>
<path fill-rule="evenodd" clip-rule="evenodd" d="M88.315 39.6016H88.591C89.0051 39.6666 89.2121 39.9266 89.2811 40.3815V40.5115C89.2811 40.9665 88.7291 41.2914 87.6249 41.5514C87.6249 41.4214 87.6249 41.1615 87.6249 40.8365C87.6249 40.5115 87.6249 40.1216 87.6249 39.6666C87.8319 39.6016 88.039 39.6016 88.315 39.6016ZM88.039 37.3918C87.7629 37.3918 87.5559 37.3918 87.2799 37.3918C87.0729 37.3918 86.7968 37.4568 86.5898 37.4568C84.9336 37.7168 84.1055 38.0418 84.1055 38.4317V38.4967C84.2435 39.0167 84.3125 39.4066 84.3125 39.5366V39.8616C84.3125 39.9916 84.4505 40.0566 84.6575 40.1216C84.9336 40.0566 85.1406 39.9916 85.2786 39.9916C85.1406 41.8764 85.0716 43.3062 85.1406 44.2811C85.1406 44.4761 85.1406 44.7361 85.1406 44.9961C85.1406 45.321 85.2096 45.581 85.2096 45.841C85.2786 46.101 85.3476 46.3609 85.4166 46.5559C85.5547 46.7509 85.6237 46.8159 85.8307 46.8159L86.5898 46.7509C86.7968 46.7509 87.0038 46.6859 87.1419 46.6209C87.2799 46.5559 87.3489 46.4909 87.4869 46.4259C87.5559 46.3609 87.5559 46.2309 87.5559 46.036V43.4362C87.6939 43.5012 87.97 43.6962 88.246 44.0862C90.1783 46.036 91.3514 47.1409 91.8345 47.4008C92.1795 47.4008 92.3865 47.1409 92.4556 46.5559C92.8006 46.166 93.0076 45.776 93.0076 45.581C93.0076 45.451 92.8006 45.1911 92.3175 44.7361C91.5584 44.0862 90.9374 43.5662 90.5233 43.2412C90.1092 42.9163 89.8332 42.6563 89.7642 42.5913C91.1444 41.8764 91.7655 40.9665 91.7655 39.9266C91.7655 39.5366 91.6274 39.1467 91.4204 38.8217C91.2134 38.4967 90.9374 38.2367 90.5923 38.0418C90.2473 37.8468 89.9022 37.6518 89.4882 37.5218C89.0741 37.3918 88.6601 37.3918 88.246 37.3918H88.039Z" fill="#1A1A1C"/>
<path fill-rule="evenodd" clip-rule="evenodd" d="M94.8017 37.4568C94.3187 37.4568 93.9046 37.5218 93.5596 37.7168C93.2145 37.9118 92.9385 38.1068 92.6624 38.3667C92.4554 38.6267 92.2484 38.9517 92.1104 39.2766C91.9724 39.6016 91.9724 39.9916 91.9724 40.3165V40.4465C91.9724 40.7065 92.0414 40.9665 92.1104 41.1615C92.1794 41.3564 92.3174 41.6164 92.5244 41.8114C92.7315 42.0064 93.0075 42.2014 93.3525 42.3963C93.6976 42.5913 94.1806 42.7213 94.7327 42.9163C95.8369 43.2412 96.3889 43.6312 96.3889 44.1512V44.2162C96.3199 44.6711 96.0439 44.8661 95.5608 44.8661H95.4918C95.0778 44.8661 94.6637 44.7361 94.1806 44.4111C93.6976 44.0212 93.4215 43.7612 93.3525 43.7612C93.2145 43.7612 93.0075 44.0212 92.7315 44.4761C92.2484 44.7361 91.9724 44.9961 92.0414 45.256C92.0414 45.516 92.1794 45.841 92.3864 46.036C92.5934 46.2959 92.8695 46.4909 93.2145 46.6209C93.5596 46.8159 93.8356 46.9459 94.1806 47.0109C94.5257 47.0759 94.8017 47.1409 95.0087 47.1409H95.2848C95.6298 47.1409 96.0439 47.0759 96.596 46.8809C97.9761 46.2309 98.5972 45.321 98.5972 44.1512V43.9562C98.5282 42.7213 97.8381 41.8114 96.3889 41.3564C95.0778 41.0315 94.4567 40.6415 94.4567 40.1866C94.4567 39.9266 94.6637 39.7966 95.1468 39.7316H95.4228C95.8369 39.7316 96.3889 39.9266 96.941 40.2515C97.5621 39.4716 97.9071 38.9517 97.9071 38.6917V38.6267C97.079 37.7818 96.0439 37.3918 94.9397 37.3918H94.8017V37.4568Z" fill="#1A1A1C"/>
<path fill-rule="evenodd" clip-rule="evenodd" d="M100.53 37.5868C99.4944 37.7168 99.0114 37.8468 99.0114 37.9118C98.8043 39.6666 98.7353 41.6814 98.8733 43.9562L98.9424 45.841C98.9424 46.4259 99.0804 46.7509 99.2874 46.7509H100.046C100.116 46.7509 100.185 46.7509 100.254 46.7509C100.323 46.7509 100.392 46.7509 100.53 46.7509C100.875 46.7509 101.082 46.6859 101.22 46.6209C101.358 46.4909 101.427 46.3609 101.427 46.036V43.0463C101.427 42.4613 101.427 41.7464 101.427 40.8365C101.427 39.9916 101.427 38.9517 101.427 37.7168C101.358 37.5218 101.289 37.3918 101.151 37.3918C100.875 37.3918 100.737 37.4568 100.53 37.5868Z" fill="#1A1A1C"/>
<path fill-rule="evenodd" clip-rule="evenodd" d="M105.498 37.5218C104.394 37.5868 103.152 37.7168 101.634 37.8468C101.22 37.8468 101.013 38.0418 100.944 38.4967C101.013 38.7567 101.013 38.8867 101.013 38.8867L100.944 39.6016C100.944 39.7966 101.013 39.9266 101.22 39.9916C101.289 39.9916 101.496 39.9916 101.91 39.9266L103.773 39.7966C103.704 40.7715 103.635 41.6814 103.566 42.3963C103.566 43.1763 103.497 43.7612 103.566 44.3461C103.635 45.776 103.773 46.4909 103.98 46.4909C104.394 46.4909 104.739 46.5559 105.015 46.6209C105.843 46.6209 106.257 46.4259 106.257 46.036C106.119 45.0611 106.119 44.2811 106.119 43.7612L106.05 42.5913C106.05 42.1364 106.05 41.6814 106.05 41.2264C106.05 40.7065 106.05 40.1866 106.05 39.6016C106.464 39.6016 106.878 39.6016 107.223 39.5366C107.568 39.5366 107.844 39.4716 108.12 39.4066C108.327 39.3416 108.535 39.2766 108.673 39.0817C108.811 38.9517 108.88 38.7567 108.811 38.5617C108.811 38.4317 108.811 38.3017 108.742 38.1718L108.88 37.8468C108.88 37.6518 108.604 37.4568 108.12 37.3918C107.43 37.3918 106.533 37.4568 105.498 37.5218Z" fill="#1A1A1C"/>
<path fill-rule="evenodd" clip-rule="evenodd" d="M110.812 37.5868C110.398 37.5868 110.053 37.5868 109.708 37.6518C109.363 37.6518 109.018 37.7168 108.741 37.7168C108.465 37.7818 108.189 37.8468 108.051 37.9118C107.844 37.9768 107.775 38.1068 107.775 38.1718C107.844 38.3667 107.913 38.5617 107.913 38.7567L107.982 39.2117C107.982 39.3416 108.051 39.4066 108.051 39.4716C108.051 39.5366 108.12 39.5366 108.189 39.5366C108.465 39.6016 108.603 39.6016 108.603 39.6016C108.534 40.9015 108.396 42.0064 108.396 42.8513C108.327 43.6962 108.327 44.4111 108.396 44.9311C108.396 45.646 108.465 46.036 108.672 46.2309C108.81 46.2959 108.949 46.3609 109.087 46.3609C109.225 46.4259 109.294 46.4909 109.363 46.4909C109.984 46.4909 110.743 46.4909 111.502 46.4259C112.261 46.3609 113.158 46.2959 114.055 46.2309C114.745 46.166 115.09 45.971 115.09 45.711C115.09 45.581 115.021 45.451 115.021 45.386C115.021 45.321 115.021 45.256 115.021 45.1911C115.021 45.1261 115.021 44.9961 115.159 44.7361C115.021 44.4761 114.814 44.3461 114.469 44.3461H114.262C113.917 44.3461 113.434 44.3461 112.813 44.4111C112.192 44.4761 111.433 44.5411 110.467 44.6711V42.7213C110.467 42.7213 110.536 42.6563 110.674 42.6563C110.812 42.6563 111.019 42.6563 111.226 42.5913L111.985 42.5263C112.261 42.5263 112.468 42.5263 112.744 42.4613C112.951 42.4613 113.158 42.3963 113.296 42.3963C113.434 42.3963 113.503 42.3313 113.503 42.2663C113.572 42.2663 113.641 41.9414 113.779 41.1615C113.779 41.0315 113.71 40.9665 113.71 40.9015C113.641 40.8365 113.641 40.7715 113.572 40.7065C113.503 40.6415 113.365 40.6415 113.227 40.5765C113.089 40.5765 112.882 40.5115 112.606 40.5115H112.123C111.847 40.5115 111.64 40.5115 111.364 40.5115L110.536 40.5765C110.605 39.9916 110.605 39.6016 110.674 39.3416C111.502 39.2766 112.123 39.2117 112.675 39.2117C113.227 39.2117 113.572 39.1467 113.917 39.0817C114.193 39.0167 114.4 39.0167 114.538 38.9517C114.676 38.8867 114.676 38.7567 114.676 38.6267L114.538 37.9768C114.469 37.7818 114.469 37.6518 114.4 37.5868C114.4 37.5218 114.193 37.4568 113.779 37.4568C113.365 37.3918 112.675 37.3918 111.847 37.3918H110.812V37.5868Z" fill="#1A1A1C"/>
<path fill-rule="evenodd" clip-rule="evenodd" d="M117.575 37.4568C117.091 37.4568 116.677 37.5218 116.332 37.7168C115.987 37.9118 115.711 38.1068 115.435 38.3667C115.228 38.6267 115.021 38.9517 114.883 39.2766C114.745 39.6016 114.745 39.9916 114.745 40.3165V40.4465C114.745 40.7065 114.814 40.9665 114.883 41.1615C114.952 41.3564 115.09 41.6164 115.297 41.8114C115.504 42.0064 115.78 42.2014 116.125 42.3963C116.47 42.5913 116.953 42.7213 117.506 42.9163C118.61 43.2412 119.162 43.6312 119.162 44.1512V44.2162C119.093 44.6711 118.817 44.8661 118.334 44.8661H118.265C117.851 44.8661 117.437 44.7361 116.953 44.4111C116.47 44.0212 116.194 43.7612 116.125 43.7612C115.987 43.7612 115.78 44.0212 115.504 44.4761C115.021 44.7361 114.745 44.9961 114.814 45.256C114.814 45.516 114.952 45.841 115.159 46.036C115.366 46.2959 115.642 46.4909 115.987 46.6209C116.332 46.8159 116.608 46.9459 116.953 47.0109C117.299 47.0759 117.575 47.1409 117.782 47.1409H118.058C118.403 47.1409 118.817 47.0759 119.369 46.8809C120.749 46.2309 121.37 45.321 121.37 44.1512V43.9562C121.301 42.7213 120.611 41.8114 119.162 41.3564C117.851 41.0315 117.23 40.6415 117.23 40.1866C117.23 39.9266 117.437 39.7966 117.989 39.7316H118.265C118.748 39.7316 119.231 39.9266 119.783 40.2515C120.404 39.4716 120.749 38.9517 120.749 38.6917V38.6267C119.921 37.7818 118.886 37.3918 117.782 37.3918H117.575V37.4568Z" fill="#1A1A1C"/>
</svg>
