<svg width="209" height="77" viewBox="0 0 209 77" fill="none" xmlns="http://www.w3.org/2000/svg">
<path fill-rule="evenodd" clip-rule="evenodd" d="M66.4506 56.8119C66.9593 56.8803 67.4679 56.8803 67.9766 56.8119C68.2673 57.1541 68.4126 57.4963 68.2673 57.9069C68.122 58.3175 67.8313 58.7282 67.4679 59.0704C67.1046 59.4126 66.6686 59.7548 66.2326 60.0285C66.6686 59.8232 67.1773 59.5495 67.6133 59.2757C68.0493 58.9335 68.4853 58.5913 68.7033 58.1122C68.8486 57.8385 68.8486 57.5647 68.776 57.2909C68.776 57.1541 68.7033 56.9487 68.6306 56.8119C68.9213 56.7434 69.212 56.675 69.5027 56.5381C69.212 56.6065 68.8486 56.6065 68.558 56.6065C68.558 56.5381 68.4853 56.5381 68.4853 56.4697C68.1946 56.1275 67.9039 55.7853 67.5406 55.5115C67.9039 55.3746 68.2673 55.1693 68.558 54.8955C68.994 54.8955 69.3573 54.8271 69.7207 54.8271C69.43 54.8271 69.0666 54.8271 68.776 54.7587C68.8486 54.6218 68.994 54.5533 69.0666 54.4164C69.1393 54.2796 69.212 54.1427 69.2847 54.0058C69.7207 54.0742 70.2293 54.2111 70.738 54.4849C73.7174 56.1959 75.0255 58.4544 77.6415 60.3707C78.9496 61.2605 80.3303 62.0817 82.2196 62.1502C82.5103 62.1502 82.801 62.2186 83.0917 62.2186C84.327 62.0817 85.5624 61.5342 86.4344 60.8498C87.2338 60.2339 87.8878 59.4126 88.3238 58.3175C88.3965 58.1807 88.3965 57.9753 88.5418 57.8385C88.6871 57.7016 89.1958 57.7016 89.5592 57.6331C90.5765 57.4278 91.6666 57.2909 92.6112 57.0172C93.7013 56.7434 94.7913 56.2643 95.8087 55.7853C96.2447 55.5799 96.7534 55.4431 97.3347 55.2377C97.8434 55.1009 98.4247 54.8271 99.0061 54.6218C99.8781 54.2796 100.823 53.9374 101.695 53.5952C103.439 52.9108 105.11 52.021 106.782 51.1313C108.235 50.31 109.688 49.3519 110.924 48.2568H38.3279C38.4005 48.599 38.5459 48.9412 38.6912 49.215C38.6912 49.6941 38.6912 50.1732 38.7639 50.6522C38.7639 50.8576 38.8365 51.0629 38.8365 51.2682C36.7291 52.4317 34.6218 54.4849 35.0578 56.675C35.1304 57.0172 35.1304 57.2225 35.2758 57.4278C35.4938 57.8385 35.7845 58.1122 36.2931 58.5229C36.6565 58.7966 36.9472 59.0704 37.3832 59.2757C37.6012 59.3441 37.8192 59.4126 38.1825 59.4126C38.8365 59.4126 39.4906 59.2073 40.0719 59.0019C40.6532 58.8651 41.3073 58.6597 41.8886 58.4544C43.2693 57.9069 44.5773 57.0856 46.0307 56.5381C46.1761 56.4697 46.3214 56.4697 46.4667 56.4012C46.6121 56.3328 46.7574 56.2643 46.9027 56.1959C47.4841 55.9906 48.0654 55.8537 48.7195 55.6484C49.0101 55.5799 49.2281 55.3746 49.5915 55.3062C50.8995 54.8271 52.1349 54.348 53.3702 53.732C53.8063 55.5115 55.405 56.2643 57.149 56.6065C57.8757 57.2225 58.675 57.7016 59.6197 57.9069C60.2011 58.0438 60.9278 58.1807 61.5818 58.1122C62.2358 58.0438 62.9625 57.77 63.4712 57.3594C63.9072 57.0172 64.1979 56.6065 64.4159 56.1959C64.7065 56.3328 65.0699 56.4697 65.4332 56.6065C65.6512 56.675 66.0872 56.7434 66.4506 56.8119ZM117.682 48.1884C118.481 49.215 119.281 50.2416 120.007 51.1998C120.08 51.3366 120.153 51.4051 120.298 51.542C120.516 51.7473 120.807 52.1579 121.025 52.4317C121.461 52.9792 121.897 53.5267 122.405 54.0058C122.914 54.5533 123.277 55.1009 123.786 55.6484C124.004 55.9221 124.295 56.1275 124.585 56.4012C125.675 57.6331 126.911 58.9335 128.219 60.1654C129.236 61.192 130.254 62.1502 131.344 63.1083C132.361 64.0665 133.451 65.0931 134.686 65.846C135.34 66.2566 135.994 66.6672 136.648 67.0779C136.794 67.1463 136.939 67.2832 137.084 67.4201C137.302 67.557 137.448 67.557 137.666 67.6254C138.029 67.7623 138.32 68.036 138.683 68.1729C138.974 68.2414 139.192 68.3098 139.482 68.3782C140.136 68.5836 140.936 68.9258 141.881 68.9942C143.116 69.0626 144.351 68.7204 145.296 68.2414C145.369 68.2414 145.441 68.1729 145.441 68.1045C145.805 67.8992 146.531 67.557 146.822 67.2148C147.04 67.0779 147.258 66.8041 147.403 66.5304C147.985 65.9144 148.493 65.0931 148.857 64.2034C149.801 61.8764 150.019 58.7966 150.383 56.1275C150.455 55.5799 150.528 54.964 150.601 54.4164C150.673 53.8689 150.964 53.3214 151.182 52.7054C151.691 51.1313 152.199 49.5572 152.781 47.9831H117.682V48.1884ZM165.57 18.5538L165.352 18.8276C165.498 18.7591 165.57 18.6907 165.57 18.5538ZM164.989 19.4435C165.062 19.3067 165.207 19.1013 165.352 18.8276C165.352 18.8276 165.28 18.8276 165.207 18.896C165.207 18.7591 165.28 18.3485 165.57 18.4854C165.57 18.5538 165.57 18.5538 165.57 18.6223C165.716 18.4169 165.934 18.2116 166.006 18.1432C166.442 17.8694 166.951 17.9379 167.533 17.9379C167.751 17.9379 167.969 17.9379 168.187 17.8694C168.623 17.801 168.841 17.3903 169.277 17.3219C169.567 17.2535 170.076 17.4588 170.439 17.5272C170.948 17.5957 171.457 17.5957 171.529 16.9113C171.529 16.7744 171.384 16.6375 171.457 16.5691C171.602 16.4322 172.183 16.7744 172.329 16.8428C172.619 16.9797 173.128 17.1166 173.273 17.1166C173.491 17.0481 173.564 16.6375 173.637 16.3637C173.782 16.09 174 15.8162 174 15.6109C174 15.2003 173.201 14.6527 172.765 14.379C171.529 13.5577 170.657 13.2155 169.349 12.5995C168.768 12.3258 168.041 12.052 167.46 11.8467C166.224 11.5729 164.771 11.5729 163.681 11.7098C163.39 11.7783 162.664 12.1889 162.373 12.3942C162.155 12.5311 162.01 12.7364 161.864 12.8733C161.356 13.2839 160.847 13.8315 160.411 14.3105C159.248 15.6109 157.868 16.9113 156.487 18.0063C156.342 18.1432 155.542 18.7591 155.324 18.6907C155.106 18.6223 155.179 18.0063 155.324 17.5272C155.542 16.7744 155.833 16.09 156.124 15.4056C156.632 14.1052 157.286 12.5995 157.868 11.2992C158.231 10.4779 158.594 9.72505 158.958 8.9722C159.176 8.56156 159.103 8.56156 158.667 8.35624C158.449 8.2878 158.231 8.21936 158.086 8.21936C157.94 8.2878 157.868 8.90376 157.795 9.04064C157.722 9.31441 157.504 9.65661 157.359 9.99881C156.487 11.9836 155.324 14.2421 154.307 16.1584C153.217 18.1432 152.49 19.3751 151.182 20.8123C150.964 21.0177 150.746 21.2914 150.601 21.4967C150.31 21.839 149.947 22.1811 150.092 22.7287C150.092 22.7971 150.237 22.8656 150.165 23.0024C150.165 23.2078 149.947 23.4131 149.874 23.6184C149.438 25.1241 150.31 26.0138 151.037 26.8351C151.4 27.2457 151.836 27.7248 152.417 28.1354C152.49 28.2039 152.999 28.4092 152.999 28.4776C153.071 28.6145 152.708 29.3674 152.563 29.7096C152.199 30.5308 151.836 31.2837 151.473 32.0365H159.539C159.83 31.489 160.193 31.0099 160.484 30.394C160.702 29.9833 160.92 29.0936 161.283 28.7514C161.646 28.4776 162.082 28.7514 162.373 28.3408C162.591 28.067 162.591 27.0404 162.518 26.6982C163.899 26.5613 162.954 24.8503 163.536 24.1659C163.608 24.0975 163.681 24.029 163.681 23.9606C163.754 23.6868 163.463 23.4131 163.536 23.1393C163.608 22.8656 163.899 22.7287 163.899 22.318C163.899 22.2496 163.826 22.1127 163.826 22.1127C163.899 21.839 164.408 21.7705 164.48 21.4967C164.626 21.223 164.408 20.9492 164.48 20.6755C164.553 20.5386 164.771 20.4017 164.916 20.1964C164.989 19.8542 164.916 19.5804 164.989 19.4435ZM142.171 31.7628C142.099 30.3255 142.099 28.8198 142.171 27.1088C142.171 26.6982 142.244 26.356 142.244 25.8085C142.244 25.3978 141.953 24.7819 142.244 24.4397C142.535 24.0975 143.043 24.3712 143.189 23.7553C143.189 23.55 143.043 23.2078 143.043 23.0024C143.043 22.7971 143.189 22.4549 143.189 22.2496C143.261 21.839 143.334 21.1545 143.116 20.6755C142.971 20.2648 142.535 19.9911 142.244 19.5804C141.953 19.1013 141.445 18.0063 141.445 17.4588C141.445 17.2535 141.663 17.0481 141.663 16.9113C141.663 16.6375 141.372 16.3637 141.372 16.1584C141.372 16.0215 141.445 16.0215 141.517 15.8847C141.517 15.8162 141.517 15.6109 141.517 15.5425C141.517 15.4056 141.445 15.3371 141.445 15.2687C141.445 15.2003 141.372 15.1318 141.372 14.9949C141.372 14.8581 141.445 14.5159 141.445 14.2421C141.445 14.0368 141.445 13.6946 141.445 13.6261C141.663 13.0102 142.971 12.3258 143.552 11.9151C144.133 11.436 144.715 11.2992 145.441 11.0938C145.877 10.957 146.313 10.8201 146.386 10.4779C146.459 10.0672 146.168 9.99881 146.023 9.65661C146.386 9.58817 146.604 9.58817 146.967 9.58817C147.258 9.58817 147.767 9.51973 147.839 9.38285C147.985 9.17753 147.839 8.76688 147.839 8.49312C147.839 8.08248 147.839 7.87716 147.694 7.74028C147.476 7.53496 146.677 7.32964 146.313 7.2612C144.787 6.919 143.625 6.98744 142.099 7.05588C141.081 7.05588 140.064 6.98744 139.192 7.19276C139.046 7.19276 138.901 7.32964 138.828 7.32964C138.465 7.39808 138.174 7.46652 137.884 7.67184C137.811 7.67184 137.738 7.80872 137.666 7.80872C137.302 8.01404 136.866 8.49312 136.648 8.90376C135.922 9.93037 135.413 11.2307 134.977 12.5995C134.686 13.4893 134.396 14.379 134.032 15.3371C133.742 16.1584 133.451 17.2535 132.942 17.801C132.797 18.0063 132.434 18.2801 132.143 18.2116C131.562 18.0747 131.416 16.7744 131.344 16.09C131.126 14.379 131.053 12.7364 130.908 11.0938L130.762 9.17753C130.762 8.9722 130.69 8.76688 130.69 8.56156C130.69 8.21936 130.835 7.87716 130.69 7.74028C130.544 7.6034 129.745 7.74028 129.672 7.80872C129.527 8.01404 129.745 8.35624 129.745 8.49312C129.818 8.76688 129.745 9.04064 129.745 9.24597C129.818 10.5463 129.89 12.3942 129.963 13.5577C130.036 15.6109 130.036 18.0063 129.89 19.5804C129.818 20.1279 129.745 20.5386 129.672 20.9492C129.527 21.6336 129.091 22.5233 129.091 23.2078C129.091 23.3446 129.164 23.7553 129.309 23.8237C129.382 23.8922 129.527 23.8237 129.527 23.8922C129.6 24.029 129.527 24.3028 129.527 24.4397C129.6 24.9872 129.89 25.6032 130.399 26.0138C131.126 26.6298 132.579 27.3142 133.814 27.5879C133.887 27.5879 134.468 27.5879 134.468 27.6564C134.759 27.7932 134.686 28.7514 134.686 29.2989C134.686 29.9833 134.832 30.5308 134.832 31.0099C134.832 31.3521 134.832 31.6259 134.832 31.9681H142.171V31.7628ZM126.257 31.7628C124.149 28.067 121.824 24.5081 117.464 22.7971C116.447 22.3865 115.356 21.9758 114.194 21.7705C111.941 21.4283 110.052 21.7021 108.526 22.318C107.726 22.6602 106.854 23.0709 106.128 23.6184C105.692 23.9606 105.183 24.3028 104.747 24.7134C104.311 25.1241 103.802 25.5347 103.512 25.9454C102.131 27.6564 101.041 29.6411 100.169 31.8312H126.257V31.7628ZM38.4732 31.7628H76.6242C76.2608 31.4206 75.8248 31.0784 75.3161 30.7362C74.5168 30.2571 73.4994 29.8464 72.4821 29.6411C71.4647 29.4358 70.302 29.5042 69.2847 29.778C68.4853 29.9833 67.7586 30.2571 67.0319 30.5993C65.9419 30.1886 64.7792 29.9833 63.5438 29.9149C64.0525 29.3674 64.4885 28.683 64.7792 27.9986C64.4159 28.683 63.9072 29.3674 63.3258 29.8464C62.8172 29.8464 62.3085 29.8464 61.7998 29.8464C61.0731 29.8464 60.2738 29.8464 59.4744 29.8464C59.7651 29.4358 59.9104 29.0252 60.0557 28.5461C60.1284 28.5461 60.2011 28.5461 60.3464 28.5461C61.2911 28.6145 62.2358 28.8883 63.0352 29.4358C62.3085 28.8198 61.4364 28.4092 60.4191 28.1354C60.3464 28.1354 60.2011 28.067 60.1284 28.067C60.1284 27.6564 60.1284 27.3142 60.0557 26.9035C59.9104 25.8769 59.4017 24.9188 58.8931 24.029C59.2564 24.9872 59.5471 25.9454 59.6197 26.9035C59.6197 27.2457 59.6197 27.5879 59.5471 27.9301C58.8931 27.9986 58.239 27.9986 57.5123 27.9986C56.5677 27.9301 55.5503 27.9986 54.6056 28.067C54.4603 27.9986 54.2423 27.9986 54.0969 27.9301C53.4429 27.7932 52.7162 27.7248 52.0622 27.7248C51.5535 27.5195 51.0448 27.3142 50.5362 27.1773C49.7368 26.972 48.8648 26.8351 48.0654 26.8351C46.3941 26.7666 44.65 27.0404 43.0513 27.6564C41.4526 28.2723 39.9266 29.3674 38.9092 30.9415C38.7639 31.2152 38.6185 31.489 38.4732 31.7628Z" fill="#1A1A1C"/>
<path fill-rule="evenodd" clip-rule="evenodd" d="M41.816 40.2375C41.816 40.3059 41.4526 40.3743 40.6533 40.3743C40.6533 40.2375 40.6533 39.9637 40.7986 39.5531C40.8713 39.1424 41.0893 38.5949 41.2346 37.9789C41.3073 37.9789 41.4526 38.7318 41.816 40.2375ZM40.7986 34.8991C40.4353 35.5151 40.1446 36.1311 39.8539 36.6786C39.5633 37.2261 39.2726 37.9105 38.9819 38.5265C38.6186 39.6899 38.4006 40.3059 38.2552 40.3743C37.6012 40.4428 37.3105 40.5797 37.3105 40.785V40.8534C37.6739 41.3325 37.8919 41.6747 37.8919 41.8116L37.5285 43.7279C37.5285 43.8648 37.5285 44.0017 37.6012 44.1386C37.6012 44.207 37.6739 44.3439 37.8192 44.3439C37.8919 44.4123 38.1099 44.4808 38.2552 44.4808C38.4732 44.5492 38.7639 44.5492 39.1272 44.6176L39.3453 44.5492C39.4179 44.4808 39.4906 44.2754 39.6359 43.8648C39.7813 43.5226 39.9266 42.9751 40.0719 42.2907L42.1067 42.1538C42.1793 42.1538 42.1793 42.1538 42.1793 42.1538C42.1793 42.1538 42.1793 42.1538 42.252 42.1538L42.6153 43.5226C42.7607 44.3439 42.9787 44.7545 43.342 44.7545H43.56C43.9234 44.6176 44.214 44.4808 44.4321 44.4123C44.6501 44.3439 44.7954 44.2754 44.9407 44.2754C45.0861 44.207 45.1587 44.207 45.1587 44.1386C45.2314 44.0701 45.2314 44.0017 45.2314 43.9332V43.8648C44.9407 42.8382 44.6501 41.6747 44.214 40.3743C43.8507 39.074 43.342 37.7052 42.8333 36.1311C42.5427 35.1045 42.3247 34.5569 42.1067 34.5569C41.2346 34.6938 40.726 34.8307 40.7986 34.8991Z" fill="#1A1A1C"/>
<path fill-rule="evenodd" clip-rule="evenodd" d="M48.5739 36.6101H48.9372C49.3006 36.6101 49.6639 36.6786 49.9546 36.8155C50.2453 36.9523 50.5359 37.1577 50.7539 37.363C50.9719 37.5683 51.1173 37.8421 51.2626 38.1158C51.408 38.3896 51.408 38.6633 51.4806 39.0055V39.074C51.4806 39.2793 51.4806 39.5531 51.4806 39.8268C50.9719 41.1956 49.8092 41.88 47.9925 41.88V41.6747C47.9199 40.169 47.9199 38.5265 47.9925 36.6101C48.0652 36.6101 48.2832 36.6101 48.5739 36.6101ZM47.9925 34.5569C47.4839 34.5569 46.9752 34.6254 46.5392 34.6938C46.1032 34.7623 45.8125 34.8307 45.5218 34.9676C45.2311 35.036 45.0131 35.1729 44.8678 35.3098C44.7225 35.4467 44.6498 35.5835 44.6498 35.652C44.6498 35.7889 44.6498 35.8573 44.6498 35.9257C44.6498 35.9942 44.6498 36.0626 44.7225 36.1311V36.9523C44.7951 37.2261 44.8678 37.363 45.0131 37.363C45.5218 37.2261 45.8852 37.1577 45.9578 37.1577H46.0305C45.8125 38.8687 45.8125 40.3059 45.8125 41.4694V42.0854C45.8125 42.2907 45.8125 42.496 45.8852 42.7697C45.8852 42.9751 45.9578 43.2488 45.9578 43.5226C46.1032 43.6595 46.2485 43.8648 46.3212 43.9332C46.3938 44.0701 46.5392 44.1386 46.6118 44.207C46.6845 44.2754 46.8298 44.3439 46.9752 44.3439C47.1205 44.4123 47.3385 44.4123 47.7019 44.4123H47.9925C49.4459 44.4123 50.7539 43.9332 51.9893 42.9751C53.152 41.9485 53.6607 40.785 53.6607 39.5531V39.2109C53.6607 38.5265 53.5153 37.9105 53.2247 37.363C53.0067 36.8155 52.6433 36.2679 52.1346 35.8573C51.6986 35.4467 51.1173 35.1045 50.5359 34.8991C49.8819 34.6938 49.2279 34.5569 48.5012 34.5569H47.9925Z" fill="#1A1A1C"/>
<path fill-rule="evenodd" clip-rule="evenodd" d="M60.4195 34.6537C59.6201 34.6537 59.1114 34.7222 59.1114 34.9275C58.8208 34.9959 58.6754 36.9123 58.6754 40.608C58.1667 41.2924 57.6581 41.6346 57.222 41.6346H56.8587C56.35 41.4977 56.132 40.9502 56.0593 40.0605V39.7867C56.0593 39.3761 56.0593 38.7601 56.132 37.9388C56.2047 37.186 56.2774 36.1594 56.4227 34.9959C56.4227 34.7906 56.2047 34.6537 55.7687 34.6537H55.6233C55.3327 34.6537 55.1147 34.7222 54.8967 34.7906C54.388 34.7906 54.0973 34.9275 53.952 35.1328C53.5886 36.7754 53.3706 38.3495 53.4433 39.7867V40.1974C53.516 41.6346 53.734 42.6612 54.2426 43.3456C54.6786 44.03 55.3327 44.4407 56.0593 44.4407H56.132C57.004 44.4407 57.9487 44.0985 58.8934 43.3456H58.9661C58.9661 44.03 59.1841 44.4407 59.4748 44.4407L60.8555 44.0985C61.0735 44.0985 61.1461 43.8931 61.2188 43.4141V41.8399C61.2188 41.1555 61.2188 40.2658 61.2188 39.1708C61.2188 38.0073 61.2188 36.6385 61.2188 34.9275C61.2188 34.7222 61.0735 34.5853 60.8555 34.5853C60.7101 34.5168 60.4921 34.5853 60.4195 34.6537Z" fill="#1A1A1C"/>
<path fill-rule="evenodd" clip-rule="evenodd" d="M63.6889 34.6254H62.6715C62.4535 34.6938 62.3809 34.7623 62.2355 34.8991C61.9448 36.3364 61.7995 37.7052 61.8722 39.0055V39.7584C61.8722 40.4428 61.9448 41.0588 62.0175 41.6747C62.0902 42.2907 62.1628 42.8382 62.2355 43.3857C62.5262 43.7964 62.8169 44.0017 63.1802 44.0017C63.8342 44.0017 65.2149 43.9332 67.177 43.6595C68.3397 43.591 68.8484 43.3173 68.8484 42.8382L68.6303 42.0854V42.0169L68.7757 41.5378C68.7757 41.3325 68.6303 41.1956 68.4123 41.1956C67.4676 41.3325 66.741 41.401 66.1596 41.4694C65.5783 41.5378 65.1423 41.5378 64.8516 41.5378H64.4882C64.4156 41.5378 64.4156 41.3325 64.4156 40.9903C64.4156 40.3059 64.3429 39.4846 64.4156 38.458V34.8307C64.3429 34.6938 64.1249 34.5569 63.7616 34.5569H63.6889V34.6254Z" fill="#1A1A1C"/>
<path fill-rule="evenodd" clip-rule="evenodd" d="M72.7725 34.6938C71.6098 34.7623 70.3018 34.8991 68.7031 35.036C68.2671 35.036 68.0491 35.2413 67.9764 35.7204C68.0491 35.9942 68.0491 36.1311 68.0491 36.1311L67.9764 36.8839C67.9764 37.0892 68.1217 37.2261 68.3397 37.2945C68.4124 37.2945 68.6304 37.2945 69.0664 37.2261L71.0285 37.0892C70.9558 38.1158 70.8831 39.074 70.8105 39.8268C70.8105 40.6481 70.8105 41.2641 70.8105 41.88C70.8831 43.3857 71.0285 44.1386 71.2465 44.1386C71.6825 44.1386 72.0458 44.207 72.3365 44.2754C73.2085 44.2754 73.6445 44.0701 73.6445 43.6595C73.4992 42.6329 73.4992 41.8116 73.4992 41.2641L73.4265 40.0321C73.4265 39.5531 73.4265 39.074 73.4265 38.5949C73.4265 38.0474 73.4265 37.4999 73.4265 36.8839C73.8625 36.8839 74.2985 36.8839 74.6619 36.8155C75.0252 36.8155 75.3159 36.747 75.6066 36.6786C75.8246 36.6101 76.0426 36.5417 76.1879 36.3364C76.3333 36.1995 76.4059 35.9942 76.3333 35.7889C76.3333 35.652 76.3333 35.5151 76.2606 35.3782L76.4059 35.036C76.4059 34.8307 76.1153 34.6254 75.6066 34.5569C74.8799 34.5569 73.9352 34.6254 72.7725 34.6938Z" fill="#1A1A1C"/>
<path fill-rule="evenodd" clip-rule="evenodd" d="M82.51 34.9676C82.3647 35.2413 82.1467 35.5835 82.0013 35.9942C81.856 36.4048 81.638 36.9523 81.42 37.5683C81.202 38.1843 80.984 38.8002 80.766 39.4846C80.4753 38.458 80.1846 37.5683 79.9666 36.8155C79.6759 36.0626 79.5306 35.5151 79.3126 35.1045C79.3126 34.8307 79.0946 34.6254 78.6586 34.6254H78.3679L77.4232 34.6938L76.6965 34.6254C76.4059 34.6254 76.1879 34.7623 76.0425 34.8991C75.8245 36.2679 75.6065 37.5683 75.5338 38.8002C75.4612 40.0321 75.3885 41.3325 75.4612 42.5644V42.7697C75.4612 43.3173 75.6065 43.6595 75.8245 43.8648C76.7692 44.1386 77.4959 44.2754 77.9319 44.2754C77.9319 44.2754 78.0046 44.207 78.0772 44.1386L78.1499 38.5265C78.2952 38.9371 78.5132 39.5531 78.7313 40.3059L79.7486 43.3857C79.7486 43.5226 79.7486 43.591 79.8213 43.6595C79.8939 43.7279 79.9666 43.7964 80.0393 43.8648C80.1846 43.9332 80.2573 44.0017 80.4753 44.0017C80.6206 44.0701 80.8386 44.1386 81.1293 44.207C81.2747 44.207 81.42 44.1386 81.5653 44.0017C81.638 43.8648 82.0013 42.9066 82.5827 41.2641C83.2367 39.2109 83.6 38.1158 83.6727 38.0474V43.7279C83.6727 43.7964 83.6727 43.9332 83.6727 44.0017C83.6727 44.1386 83.7454 44.207 83.818 44.2754C83.8907 44.3439 83.9634 44.4123 84.1087 44.4123H85.6348C85.9981 44.4123 86.2161 44.2754 86.2888 44.0701C86.2161 42.496 86.1434 41.1956 86.0708 40.0321C85.9981 38.9371 85.9254 37.9789 85.8528 37.2945C85.8528 36.8839 85.8528 36.4733 85.8528 36.1995C85.8528 35.8573 85.8528 35.5835 85.7801 35.3098C85.7801 35.1045 85.7074 34.8991 85.6348 34.7623C85.5621 34.6254 85.4168 34.5569 85.2714 34.5569H82.946C82.8007 34.5569 82.6553 34.6938 82.51 34.9676Z" fill="#1A1A1C"/>
<path fill-rule="evenodd" clip-rule="evenodd" d="M89.5591 34.5569C89.1231 34.5569 88.7598 34.5569 88.3964 34.6254C88.0331 34.6254 87.6697 34.6938 87.3791 34.6938C87.0884 34.7623 86.7977 34.8307 86.6524 34.8991C86.4344 34.9676 86.3617 35.1045 86.3617 35.1729C86.4344 35.3782 86.507 35.5835 86.507 35.7889L86.5797 36.2679C86.5797 36.4048 86.6524 36.4733 86.6524 36.5417C86.6524 36.6101 86.7251 36.6101 86.7977 36.6101C87.0884 36.6786 87.2337 36.6786 87.2337 36.6786C87.1611 38.0474 87.0157 39.2109 87.0157 40.1006C86.9431 40.9903 86.9431 41.7431 86.9431 42.2907C86.9431 43.0435 87.0884 43.4542 87.2337 43.6595C87.3791 43.7279 87.5244 43.7964 87.6697 43.7964C87.8151 43.8648 87.8878 43.9332 87.9604 43.9332C88.6144 43.9332 89.4138 43.9332 90.2131 43.8648C91.0125 43.7964 91.9572 43.7279 92.9019 43.6595C93.6286 43.591 93.9919 43.3857 93.9919 43.112C93.9919 42.9751 93.9192 42.8382 93.9192 42.7697C93.9192 42.7013 93.9192 42.6329 93.9192 42.5644C93.9192 42.496 93.9192 42.3591 94.0646 42.0854C93.9192 41.8116 93.7012 41.6747 93.3379 41.6747H93.1199C92.7565 41.6747 92.2479 41.6747 91.5938 41.7431C90.9398 41.8116 90.1405 41.88 89.1231 42.0169V39.9637C89.1231 39.9637 89.1958 39.8953 89.3411 39.8953C89.4865 39.8953 89.7045 39.8953 89.9225 39.8268L90.7218 39.7584C91.0125 39.7584 91.2305 39.7584 91.5212 39.6899C91.7392 39.6899 91.9572 39.6215 92.1025 39.6215C92.2479 39.6215 92.3205 39.5531 92.3205 39.4846C92.3932 39.4846 92.4659 39.1424 92.6112 38.3211C92.6112 38.1843 92.5385 38.1158 92.5385 38.0474C92.4659 38.1158 92.4659 38.0474 92.3932 38.0474C92.3205 37.9789 92.1752 37.9789 92.0299 37.9105C91.8845 37.9105 91.6665 37.8421 91.3758 37.8421H90.8672C90.5765 37.8421 90.3585 37.8421 90.0678 37.8421L89.1958 37.9105C89.2685 37.2945 89.2685 36.8839 89.3411 36.6101C90.2131 36.5417 90.8672 36.4733 91.3758 36.4733C91.9572 36.4733 92.3205 36.4048 92.6839 36.3364C93.0472 36.2679 93.1926 36.2679 93.3379 36.1995C93.4832 36.1311 93.4832 35.9942 93.4832 35.8573L93.3379 35.1729C93.2652 34.9676 93.2652 34.8307 93.1925 34.7623C93.1925 34.6938 92.9745 34.6254 92.5385 34.6254C92.1025 34.5569 91.3758 34.5569 90.5038 34.5569H89.5591Z" fill="#1A1A1C"/>
<path fill-rule="evenodd" clip-rule="evenodd" d="M100.75 34.9676C100.605 35.2413 100.459 35.5835 100.241 35.9942C100.096 36.4048 99.8779 36.9523 99.6599 37.5683C99.4419 38.1843 99.2239 38.8002 99.0059 39.4846H98.9333C98.6426 38.458 98.3519 37.5683 98.1339 36.8155C97.8432 36.0626 97.6979 35.5151 97.4799 35.1045C97.4799 34.8307 97.2619 34.6254 96.8985 34.6254H96.6079L95.6632 34.6938L94.9365 34.6254C94.6458 34.6254 94.4278 34.7623 94.2825 34.8991C94.0645 36.2679 93.8465 37.5683 93.7738 38.8002C93.7011 40.0321 93.6285 41.3325 93.7011 42.5644V42.7697C93.7011 43.3173 93.8465 43.6595 94.0645 43.8648C95.0092 44.1386 95.7358 44.2754 96.1719 44.2754C96.1719 44.2754 96.2445 44.207 96.3172 44.1386L96.3899 38.5265C96.5352 38.9371 96.7532 39.5531 96.9712 40.3059L97.9886 43.3857C97.9886 43.5226 97.9886 43.591 98.0612 43.6595C98.1339 43.7279 98.2066 43.7964 98.2792 43.8648C98.4246 43.9332 98.4972 44.0017 98.7152 44.0017C98.8606 44.0701 99.0786 44.1386 99.3693 44.207C99.5146 44.207 99.6599 44.1386 99.8053 44.0017C99.878 43.8648 100.241 42.9066 100.823 41.2641C101.477 39.2109 101.84 38.1158 101.913 38.0474V43.7279C101.913 43.7964 101.913 43.9332 101.913 44.0017C101.913 44.1386 101.985 44.207 102.058 44.2754C102.131 44.3439 102.203 44.4123 102.349 44.4123H103.875C104.238 44.4123 104.456 44.2754 104.529 44.0701C104.456 42.496 104.383 41.1956 104.311 40.0321C104.238 38.9371 104.165 37.9789 104.093 37.2945C104.093 36.8839 104.093 36.4733 104.093 36.1995C104.093 35.8573 104.093 35.5835 104.02 35.3098C103.947 35.1045 103.947 34.8991 103.875 34.7623C103.802 34.6254 103.657 34.5569 103.511 34.5569H101.186C101.041 34.5569 100.968 34.6938 100.75 34.9676Z" fill="#1A1A1C"/>
<path fill-rule="evenodd" clip-rule="evenodd" d="M107.872 40.169C107.872 40.1006 108.09 40.1006 108.453 40.1006H108.816C109.616 40.169 110.052 40.4428 110.052 40.8534V41.0588C110.052 41.3325 109.906 41.5378 109.616 41.7431C109.325 41.9485 108.816 42.0169 108.09 42.0169H107.872V40.169ZM108.38 36.5417H108.671C109.252 36.6101 109.616 36.8839 109.616 37.2945V37.4999C109.616 37.6367 109.543 37.7736 109.47 37.8421C109.398 37.9789 109.252 38.0474 109.107 38.1158C108.962 38.1843 108.744 38.2527 108.598 38.3211C108.38 38.3896 108.162 38.3896 107.944 38.3896H107.872V36.6101C108.017 36.6101 108.162 36.5417 108.38 36.5417ZM108.162 34.6254C105.546 34.9676 104.311 35.4467 104.311 36.0626C104.311 36.1311 104.384 36.4048 104.529 36.8155C104.529 36.8839 104.529 37.0208 104.456 37.1577C104.456 37.2945 104.529 37.4314 104.747 37.5683C104.892 37.5683 105.183 37.4999 105.619 37.2945C105.619 38.1843 105.546 39.0055 105.546 39.7584C105.546 40.5112 105.546 41.2641 105.546 41.9485L105.619 43.1804C105.692 43.7279 105.837 44.0017 106.055 44.0017H106.273L106.346 44.0701C106.346 44.3439 106.927 44.4808 108.017 44.4808H108.744C109.325 44.4808 109.906 44.4123 110.342 44.1386C110.851 43.9332 111.214 43.6595 111.578 43.3173C111.868 42.9751 112.159 42.6329 112.304 42.2907C112.45 41.9485 112.522 41.5378 112.522 41.1956V41.0588C112.522 40.2375 112.014 39.5531 111.142 38.8687V38.8002C111.796 38.3896 112.086 37.7736 112.086 37.0208C112.086 36.6101 111.941 36.2679 111.723 35.9257C111.505 35.652 111.287 35.3782 110.924 35.1729C110.56 34.9676 110.27 34.8307 109.834 34.6938C109.47 34.5569 109.034 34.5569 108.598 34.5569H108.162V34.6254Z" fill="#1A1A1C"/>
<path fill-rule="evenodd" clip-rule="evenodd" d="M115.429 34.7623C114.993 34.7623 114.63 34.7623 114.266 34.8307C113.903 34.8307 113.54 34.8991 113.249 34.8991C112.958 34.9676 112.668 35.036 112.522 35.1045C112.304 35.1729 112.232 35.3098 112.232 35.3782C112.304 35.5835 112.377 35.7889 112.377 35.9942L112.45 36.4733C112.45 36.6101 112.522 36.6786 112.522 36.747C112.522 36.8155 112.595 36.8155 112.668 36.8155C112.958 36.8839 113.104 36.8839 113.104 36.8839C112.958 38.2527 112.886 39.4162 112.886 40.3059C112.813 41.1956 112.813 41.9485 112.813 42.496C112.813 43.2488 112.958 43.6595 113.104 43.8648C113.249 43.9332 113.394 44.0017 113.54 44.0017C113.685 44.0701 113.758 44.1386 113.83 44.1386C114.557 44.1386 115.284 44.1386 116.083 44.0701C116.882 44.0017 117.827 43.9332 118.772 43.8648C119.498 43.7964 119.862 43.591 119.862 43.3173C119.862 43.1804 119.862 43.0435 119.789 42.9751C119.789 42.9066 119.789 42.8382 119.789 42.7697C119.789 42.7013 119.789 42.5644 119.934 42.2907C119.789 42.0169 119.571 41.88 119.208 41.88H118.99C118.626 41.88 118.118 41.88 117.464 41.9485C116.81 42.0169 116.01 42.0854 114.993 42.2222V40.169C114.993 40.169 115.066 40.1006 115.211 40.1006C115.356 40.1006 115.574 40.1006 115.792 40.0321L116.592 39.9637C116.882 39.9637 117.1 39.9637 117.391 39.8953C117.609 39.8953 117.827 39.8268 117.972 39.8268C118.118 39.8268 118.19 39.7584 118.19 39.6899C118.263 39.6899 118.336 39.3477 118.481 38.5265C118.481 38.3896 118.408 38.3211 118.408 38.2527C118.408 38.1843 118.336 38.1158 118.263 38.0474C118.19 37.9789 118.045 37.9789 117.9 37.9105C117.754 37.8421 117.536 37.8421 117.246 37.8421H116.737C116.446 37.8421 116.228 37.8421 115.938 37.8421L115.066 37.9105C115.066 37.2945 115.138 36.8839 115.211 36.6101C116.083 36.5417 116.737 36.4733 117.318 36.4733C117.827 36.4733 118.263 36.4048 118.626 36.3364C118.99 36.2679 119.135 36.2679 119.28 36.1995C119.426 36.1311 119.426 35.9942 119.426 35.8573L119.28 35.1729C119.208 34.9676 119.208 34.8307 119.135 34.7623C119.135 34.6938 118.917 34.6254 118.481 34.6254C118.045 34.5569 117.318 34.5569 116.446 34.5569H115.429V34.7623Z" fill="#1A1A1C"/>
<path fill-rule="evenodd" clip-rule="evenodd" d="M123.786 36.8839H124.077C124.513 36.9523 124.731 37.2261 124.804 37.7052V37.8421C124.804 38.3211 124.222 38.6633 123.06 38.9371C123.06 38.8002 123.06 38.5265 123.06 38.1843C123.06 37.8421 123.06 37.4314 123.06 36.9523C123.278 36.8839 123.496 36.8839 123.786 36.8839ZM123.496 34.5569C123.205 34.5569 122.987 34.5569 122.696 34.5569C122.478 34.5569 122.188 34.6254 121.97 34.6254C120.226 34.8991 119.353 35.2413 119.353 35.652V35.7204C119.499 36.2679 119.571 36.6786 119.571 36.8155V37.1577C119.571 37.2945 119.717 37.363 119.935 37.4314C120.226 37.363 120.444 37.2945 120.589 37.2945C120.444 39.2793 120.371 40.785 120.444 41.8116C120.444 42.0169 120.444 42.2907 120.444 42.5644C120.444 42.9066 120.516 43.1804 120.516 43.4542C120.589 43.7279 120.662 44.0017 120.734 44.207C120.88 44.4123 120.952 44.4808 121.17 44.4808L121.97 44.4123C122.188 44.4123 122.406 44.3439 122.551 44.2754C122.696 44.207 122.769 44.1386 122.914 44.0701C122.987 44.0017 122.987 43.8648 122.987 43.6595V40.9219C123.132 40.9903 123.423 41.1956 123.714 41.6063C125.748 43.6595 126.984 44.823 127.492 45.0967C127.856 45.0967 128.074 44.823 128.146 44.207C128.51 43.7964 128.728 43.3857 128.728 43.1804C128.728 43.0435 128.51 42.7698 128.001 42.2907C127.202 41.6063 126.548 41.0588 126.112 40.7165C125.676 40.3743 125.385 40.1006 125.312 40.0321C126.766 39.2793 127.42 38.3211 127.42 37.2261C127.42 36.8155 127.274 36.4048 127.056 36.0626C126.838 35.7204 126.548 35.4467 126.184 35.2413C125.821 35.036 125.458 34.8307 125.022 34.6938C124.586 34.5569 124.15 34.5569 123.714 34.5569H123.496Z" fill="#1A1A1C"/>
<path fill-rule="evenodd" clip-rule="evenodd" d="M130.617 34.6254C130.108 34.6254 129.672 34.6938 129.309 34.8991C128.946 35.1045 128.655 35.3098 128.364 35.5835C128.146 35.8573 127.928 36.1995 127.783 36.5417C127.638 36.8839 127.638 37.2945 127.638 37.6367V37.7736C127.638 38.0474 127.71 38.3211 127.783 38.5265C127.856 38.7318 128.001 39.0055 128.219 39.2109C128.437 39.4162 128.728 39.6215 129.091 39.8268C129.454 40.0321 129.963 40.169 130.544 40.3743C131.707 40.7165 132.288 41.1272 132.288 41.6747V41.7432C132.216 42.2222 131.925 42.4276 131.416 42.4276H131.344C130.908 42.4276 130.472 42.2907 129.963 41.9485C129.454 41.5378 129.164 41.2641 129.091 41.2641C128.946 41.2641 128.728 41.5378 128.437 42.0169C127.928 42.2907 127.638 42.5644 127.71 42.8382C127.71 43.112 127.856 43.4542 128.074 43.6595C128.292 43.9332 128.582 44.1386 128.946 44.2754C129.309 44.4808 129.6 44.6176 129.963 44.6861C130.326 44.7545 130.617 44.823 130.835 44.823H131.126C131.489 44.823 131.925 44.7545 132.506 44.5492C133.96 43.8648 134.614 42.9066 134.614 41.6747V41.4694C134.541 40.169 133.814 39.2109 132.288 38.7318C130.908 38.3896 130.254 37.9789 130.254 37.4999C130.254 37.2261 130.472 37.0892 130.98 37.0208H131.271C131.707 37.0208 132.288 37.2261 132.87 37.5683C133.524 36.747 133.887 36.1995 133.887 35.9257V35.8573C133.015 34.9676 131.925 34.5569 130.762 34.5569H130.617V34.6254Z" fill="#1A1A1C"/>
<path fill-rule="evenodd" clip-rule="evenodd" d="M136.649 34.7623C135.559 34.8991 135.05 35.036 135.05 35.1045C134.832 36.9523 134.759 39.074 134.905 41.4694L134.977 43.4542C134.977 44.0701 135.123 44.4123 135.341 44.4123H136.14C136.213 44.4123 136.285 44.4123 136.358 44.4123C136.431 44.4123 136.503 44.4123 136.649 44.4123C137.012 44.4123 137.23 44.3439 137.375 44.2754C137.521 44.1386 137.593 44.0017 137.593 43.6595V40.5112C137.593 39.8953 137.593 39.1424 137.593 38.1843C137.593 37.2945 137.593 36.1995 137.593 34.8991C137.521 34.6938 137.448 34.5569 137.303 34.5569C137.012 34.5569 136.867 34.6254 136.649 34.7623Z" fill="#1A1A1C"/>
<path fill-rule="evenodd" clip-rule="evenodd" d="M141.881 34.6938C140.718 34.7623 139.41 34.8991 137.811 35.036C137.375 35.036 137.157 35.2413 137.084 35.7204C137.157 35.9942 137.157 36.1311 137.157 36.1311L137.084 36.8839C137.084 37.0892 137.157 37.2261 137.375 37.2945C137.448 37.2945 137.666 37.2945 138.102 37.2261L140.064 37.0892C139.991 38.1158 139.919 39.074 139.846 39.8268C139.846 40.6481 139.773 41.2641 139.846 41.88C139.919 43.3857 140.064 44.1386 140.282 44.1386C140.718 44.1386 141.081 44.207 141.372 44.2754C142.244 44.2754 142.68 44.0701 142.68 43.6595C142.535 42.6329 142.535 41.8116 142.535 41.2641L142.462 40.0321C142.462 39.5531 142.462 39.074 142.462 38.5949C142.462 38.0474 142.462 37.4999 142.462 36.8839C142.898 36.8839 143.334 36.8839 143.697 36.8155C144.061 36.8155 144.351 36.747 144.642 36.6786C144.86 36.6101 145.078 36.5417 145.223 36.3364C145.369 36.1995 145.441 35.9942 145.369 35.7889C145.369 35.652 145.369 35.5151 145.296 35.3782L145.441 35.036C145.441 34.8307 145.151 34.6254 144.642 34.5569C143.915 34.5569 142.971 34.6254 141.881 34.6938Z" fill="#1A1A1C"/>
<path fill-rule="evenodd" clip-rule="evenodd" d="M147.476 34.7623C147.04 34.7623 146.677 34.7623 146.313 34.8307C145.95 34.8307 145.587 34.8991 145.296 34.8991C145.005 34.9676 144.715 35.036 144.569 35.1045C144.351 35.1729 144.279 35.3098 144.279 35.3782C144.351 35.5835 144.424 35.7889 144.424 35.9942L144.497 36.4733C144.497 36.6101 144.569 36.6786 144.569 36.747C144.569 36.8155 144.642 36.8155 144.715 36.8155C145.005 36.8839 145.151 36.8839 145.151 36.8839C145.078 38.2527 144.933 39.4162 144.933 40.3059C144.86 41.1956 144.86 41.9485 144.933 42.496C144.933 43.2488 145.005 43.6595 145.223 43.8648C145.369 43.9332 145.514 44.0017 145.659 44.0017C145.805 44.0701 145.877 44.1386 145.95 44.1386C146.604 44.1386 147.403 44.1386 148.203 44.0701C149.002 44.0017 149.947 43.9332 150.891 43.8648C151.618 43.7964 151.981 43.591 151.981 43.3173C151.981 43.1804 151.909 43.0435 151.909 42.9751C151.909 42.9066 151.909 42.8382 151.909 42.7697C151.909 42.7013 151.909 42.5644 152.054 42.2907C151.909 42.0169 151.691 41.88 151.327 41.88H151.109C150.746 41.88 150.237 41.88 149.583 41.9485C148.929 42.0169 148.13 42.0854 147.113 42.2222V40.169C147.113 40.169 147.185 40.1006 147.331 40.1006C147.476 40.1006 147.694 40.1006 147.912 40.0321L148.711 39.9637C149.002 39.9637 149.22 39.9637 149.511 39.8953C149.729 39.8953 149.947 39.8268 150.092 39.8268C150.237 39.8268 150.31 39.7584 150.31 39.6899C150.383 39.6899 150.455 39.3477 150.601 38.5265C150.601 38.3896 150.528 38.3211 150.528 38.2527C150.455 38.1843 150.455 38.1158 150.383 38.0474C150.31 37.9789 150.165 37.9789 150.019 37.9105C149.874 37.9105 149.656 37.8421 149.365 37.8421H148.857C148.566 37.8421 148.348 37.8421 148.057 37.8421L147.185 37.9105C147.258 37.2945 147.258 36.8839 147.331 36.6101C148.203 36.5417 148.857 36.4733 149.438 36.4733C150.019 36.4733 150.383 36.4048 150.746 36.3364C151.037 36.2679 151.255 36.2679 151.4 36.1995C151.545 36.1311 151.545 35.9942 151.545 35.8573L151.4 35.1729C151.327 34.9676 151.327 34.8307 151.255 34.7623C151.255 34.6938 151.037 34.6254 150.601 34.6254C150.165 34.5569 149.438 34.5569 148.566 34.5569H147.476V34.7623Z" fill="#1A1A1C"/>
<path fill-rule="evenodd" clip-rule="evenodd" d="M154.597 34.6254C154.089 34.6254 153.653 34.6938 153.289 34.8991C152.926 35.1045 152.635 35.3098 152.345 35.5835C152.127 35.8573 151.909 36.1995 151.763 36.5417C151.618 36.8839 151.618 37.2945 151.618 37.6367V37.7736C151.618 38.0474 151.691 38.3211 151.763 38.5265C151.836 38.7318 151.981 39.0055 152.199 39.2109C152.417 39.4162 152.708 39.6215 153.071 39.8268C153.435 40.0321 153.943 40.169 154.525 40.3743C155.687 40.7165 156.269 41.1272 156.269 41.6747V41.7432C156.196 42.2222 155.905 42.4276 155.397 42.4276H155.324C154.888 42.4276 154.452 42.2907 153.943 41.9485C153.435 41.5378 153.144 41.2641 153.071 41.2641C152.926 41.2641 152.708 41.5378 152.417 42.0169C151.909 42.2907 151.618 42.5644 151.691 42.8382C151.691 43.112 151.836 43.4542 152.054 43.6595C152.272 43.9332 152.563 44.1386 152.926 44.2754C153.289 44.4808 153.58 44.6176 153.943 44.6861C154.307 44.7545 154.597 44.823 154.815 44.823H155.106C155.469 44.823 155.905 44.7545 156.487 44.5492C157.94 43.8648 158.594 42.9066 158.594 41.6747V41.4694C158.522 40.169 157.795 39.2109 156.269 38.7318C154.888 38.3896 154.234 37.9789 154.234 37.4999C154.234 37.2261 154.452 37.0892 155.033 37.0208H155.324C155.833 37.0208 156.341 37.2261 156.923 37.5683C157.577 36.747 157.94 36.1995 157.94 35.9257V35.8573C157.068 34.9676 155.978 34.5569 154.815 34.5569H154.597V34.6254Z" fill="#1A1A1C"/>
</svg>
