<svg width="222" height="32" viewBox="0 0 222 32" fill="none" xmlns="http://www.w3.org/2000/svg">
<path d="M2.27401 31.8473C1.01821 31.8473 0 30.8291 0 29.5733V15.9248C0 12.1624 3.06192 9.10061 6.82446 9.10061C10.587 9.10061 13.6489 12.1624 13.6489 15.9248V22.7491C13.6489 24.0024 14.6696 25.023 15.9229 25.023C17.1763 25.023 18.1969 24.0024 18.1969 22.7491V18.1988C18.1969 14.4364 21.2589 11.3745 25.0214 11.3745C28.784 11.3745 31.8459 14.4364 31.8459 18.1988V25.023C31.8459 26.2788 30.8277 27.297 29.5719 27.297C28.3161 27.297 27.2978 26.2788 27.2978 25.023V18.1988C27.2978 16.9455 26.2772 15.9248 25.0238 15.9248C23.7705 15.9248 22.7498 16.9455 22.7498 18.1988V22.7491C22.7498 26.5115 19.6879 29.5733 15.9254 29.5733C12.1628 29.5733 9.1009 26.5115 9.1009 22.7491V15.9248C9.1009 14.6715 8.08026 13.6509 6.82689 13.6509C5.57351 13.6509 4.55287 14.6715 4.55287 15.9248V29.5733C4.55287 30.8291 3.53466 31.8473 2.27886 31.8473H2.27401ZM3.41344 3.41333C3.41344 5.29697 4.94076 6.82667 6.82689 6.82667C8.71301 6.82667 10.2403 5.29939 10.2403 3.41333C10.2403 1.52727 8.70816 0 6.82446 0C4.94076 0 3.41102 1.52727 3.41102 3.41333H3.41344ZM21.6128 5.68727C21.6128 7.57091 23.1401 9.10061 25.0263 9.10061C26.9124 9.10061 28.4397 7.57333 28.4397 5.68727C28.4397 3.80121 26.9124 2.27394 25.0263 2.27394C23.1401 2.27394 21.6128 3.80121 21.6128 5.68727Z" fill="url(#paint0_linear_21607_25925)"/>
<path d="M94.689 8.25926C93.6271 8.25926 92.7131 8.50168 91.9398 8.98653C91.1688 9.47138 90.6209 10.1211 90.2961 10.9332H90.1434C89.8646 10.109 89.3821 9.45441 88.7009 8.97441C88.0172 8.49441 87.1808 8.25684 86.1917 8.25684C85.2026 8.25684 84.371 8.49441 83.668 8.96714C82.9625 9.43987 82.4583 10.0968 82.1528 10.9332H81.9807V9.30653C81.9807 8.83138 81.5952 8.44835 81.1225 8.44835H79.5418C79.0666 8.44835 78.6836 8.83381 78.6836 9.30653V22.2229C78.6836 22.698 79.0691 23.0811 79.5418 23.0811H81.2728C81.7479 23.0811 82.131 22.698 82.131 22.2229V14.1841C82.131 13.5805 82.2522 13.052 82.4922 12.5987C82.7322 12.1453 83.0571 11.7914 83.4644 11.5417C83.8716 11.292 84.3226 11.1659 84.8171 11.1659C85.5468 11.1659 86.1384 11.3914 86.5942 11.8423C87.0475 12.2932 87.2754 12.8968 87.2754 13.6532V22.2253C87.2754 22.7005 87.6608 23.0835 88.1336 23.0835H89.7991C90.2743 23.0835 90.6573 22.7005 90.6573 22.2253V13.9587C90.6573 13.132 90.89 12.4629 91.3579 11.9441C91.8258 11.4253 92.4731 11.1684 93.3047 11.1684C94.0029 11.1684 94.5944 11.3793 95.0768 11.8011C95.5593 12.2253 95.8017 12.8896 95.8017 13.7962V22.2253C95.8017 22.7005 96.1872 23.0835 96.6599 23.0835H98.4006C98.8758 23.0835 99.2588 22.7005 99.2588 22.2253V13.2629C99.2588 11.6314 98.8321 10.3902 97.9812 9.53926C97.1302 8.68835 96.032 8.26411 94.6841 8.26411L94.689 8.25926Z" fill="#041527"/>
<path d="M112.955 10.0313C112.334 9.4277 111.624 8.98164 110.821 8.69316C110.019 8.40467 109.166 8.25922 108.264 8.25922C106.867 8.25922 105.65 8.57922 104.615 9.21679C103.58 9.85437 102.775 10.7441 102.2 11.8835C101.626 13.0229 101.34 14.3465 101.34 15.8519C101.34 17.3574 101.626 18.7125 102.198 19.8374C102.77 20.9647 103.587 21.835 104.651 22.4483C105.716 23.0616 106.981 23.3671 108.448 23.3671C109.585 23.3671 110.593 23.1925 111.478 22.8483C112.361 22.5016 113.086 22.0119 113.655 21.3816C113.963 21.0374 114.22 20.6641 114.421 20.2544C114.681 19.7283 114.32 19.1004 113.738 19.035L112.196 18.8629C111.857 18.8241 111.537 18.9986 111.357 19.2919C111.233 19.4932 111.088 19.675 110.918 19.8326C110.62 20.1113 110.266 20.3222 109.861 20.4653C109.454 20.6083 109.001 20.6786 108.499 20.6786C107.75 20.6786 107.095 20.5186 106.535 20.1986C105.978 19.8786 105.541 19.4132 105.231 18.8071C104.93 18.2229 104.778 17.5198 104.768 16.7077H114.099C114.574 16.7077 114.957 16.3222 114.957 15.8495V15.6507C114.957 14.3683 114.78 13.2604 114.424 12.3319C114.068 11.401 113.58 10.635 112.962 10.0313H112.955ZM104.77 14.3829C104.804 13.8107 104.945 13.2774 105.209 12.7877C105.505 12.2374 105.919 11.7938 106.453 11.4544C106.986 11.115 107.604 10.9453 108.31 10.9453C108.969 10.9453 109.549 11.0956 110.048 11.3938C110.547 11.6919 110.935 12.0992 111.214 12.618C111.493 13.1368 111.636 13.7259 111.643 14.3853H104.77V14.3829Z" fill="#041527"/>
<path d="M133.177 8.25926C132.115 8.25926 131.201 8.50168 130.428 8.98653C129.657 9.47138 129.109 10.1211 128.784 10.9332H128.632C128.353 10.109 127.87 9.45441 127.189 8.97441C126.506 8.49441 125.669 8.25684 124.68 8.25684C123.691 8.25684 122.859 8.49441 122.156 8.96714C121.451 9.43987 120.947 10.0968 120.641 10.9332H120.469V9.30653C120.469 8.83138 120.083 8.44835 119.611 8.44835H118.03C117.555 8.44835 117.172 8.83381 117.172 9.30653V22.2229C117.172 22.698 117.557 23.0811 118.03 23.0811H119.761C120.236 23.0811 120.619 22.698 120.619 22.2229V14.1841C120.619 13.5805 120.74 13.052 120.98 12.5987C121.22 12.1453 121.545 11.7914 121.953 11.5417C122.36 11.292 122.811 11.1659 123.305 11.1659C124.035 11.1659 124.627 11.3914 125.082 11.8423C125.536 12.2932 125.764 12.8968 125.764 13.6532V22.2253C125.764 22.7005 126.149 23.0835 126.622 23.0835H128.287C128.763 23.0835 129.146 22.7005 129.146 22.2253V13.9587C129.146 13.132 129.378 12.4629 129.846 11.9441C130.314 11.4253 130.961 11.1684 131.793 11.1684C132.491 11.1684 133.083 11.3793 133.565 11.8011C134.048 12.2253 134.29 12.8896 134.29 13.7962V22.2253C134.29 22.7005 134.675 23.0835 135.148 23.0835H136.889C137.364 23.0835 137.747 22.7005 137.747 22.2253V13.2629C137.747 11.6314 137.32 10.3902 136.469 9.53926C135.619 8.68835 134.52 8.26411 133.172 8.26411L133.177 8.25926Z" fill="#041527"/>
<path d="M151.463 9.12221C150.552 8.54767 149.531 8.25918 148.401 8.25918C147.543 8.25918 146.84 8.40221 146.287 8.69312C145.735 8.9816 145.296 9.32827 144.973 9.7307C144.648 10.1331 144.399 10.5137 144.219 10.8701H144.076V4.4313C144.076 3.95615 143.691 3.57312 143.218 3.57312H141.487C141.012 3.57312 140.629 3.95615 140.629 4.4313V22.2228C140.629 22.698 141.014 23.081 141.487 23.081H143.162C143.637 23.081 144.021 22.698 144.021 22.2228V20.7755H144.222C144.406 21.1319 144.665 21.5077 144.998 21.9052C145.33 22.3028 145.773 22.6398 146.326 22.9186C146.879 23.1974 147.575 23.338 148.413 23.338C149.563 23.338 150.59 23.0422 151.5 22.4531C152.409 21.8616 153.126 21.0058 153.652 19.881C154.178 18.7562 154.443 17.3913 154.443 15.784C154.443 14.1768 154.174 12.7852 153.638 11.6628C153.102 10.5428 152.377 9.69433 151.466 9.11979L151.463 9.12221ZM150.53 18.2107C150.266 18.9234 149.878 19.4858 149.364 19.8955C148.85 20.3052 148.212 20.5113 147.449 20.5113C146.685 20.5113 146.098 20.3125 145.587 19.9149C145.075 19.5174 144.685 18.9646 144.416 18.2519C144.147 17.5416 144.011 16.7125 144.011 15.7671C144.011 14.8216 144.142 13.9974 144.406 13.2992C144.67 12.601 145.058 12.058 145.572 11.6701C146.086 11.2822 146.712 11.0883 147.449 11.0883C148.185 11.0883 148.859 11.2871 149.373 11.6871C149.887 12.0871 150.275 12.6398 150.535 13.3452C150.794 14.0507 150.925 14.8555 150.925 15.7646C150.925 16.6737 150.794 17.4931 150.53 18.2083V18.2107Z" fill="#041527"/>
<path d="M167.568 10.0313C166.947 9.4277 166.237 8.98164 165.435 8.69316C164.632 8.40467 163.779 8.25922 162.877 8.25922C161.481 8.25922 160.264 8.57922 159.228 9.21679C158.193 9.85437 157.388 10.7441 156.814 11.8835C156.239 13.0229 155.953 14.3465 155.953 15.8519C155.953 17.3574 156.239 18.7125 156.811 19.8374C157.383 20.9647 158.2 21.835 159.265 22.4483C160.329 23.0616 161.595 23.3671 163.061 23.3671C164.198 23.3671 165.207 23.1925 166.092 22.8483C166.974 22.5016 167.699 22.0119 168.269 21.3816C168.577 21.0374 168.834 20.6641 169.035 20.2544C169.294 19.7283 168.933 19.1004 168.351 19.035L166.809 18.8629C166.47 18.8241 166.15 18.9986 165.97 19.2919C165.847 19.4932 165.701 19.675 165.532 19.8326C165.233 20.1113 164.879 20.3222 164.475 20.4653C164.067 20.6083 163.614 20.6786 163.112 20.6786C162.363 20.6786 161.708 20.5186 161.148 20.1986C160.588 19.8786 160.154 19.4132 159.844 18.8071C159.544 18.2229 159.391 17.5198 159.381 16.7077H168.712C169.187 16.7077 169.571 16.3222 169.571 15.8495V15.6507C169.571 14.3683 169.394 13.2604 169.037 12.3319C168.681 11.401 168.194 10.635 167.575 10.0313H167.568ZM159.384 14.3829C159.417 13.8107 159.558 13.2774 159.822 12.7877C160.118 12.2374 160.533 11.7938 161.066 11.4544C161.599 11.115 162.218 10.9453 162.923 10.9453C163.582 10.9453 164.162 11.0956 164.661 11.3938C165.161 11.6919 165.549 12.0992 165.827 12.618C166.106 13.1368 166.249 13.7259 166.256 14.3853H159.384V14.3829Z" fill="#041527"/>
<path d="M179.329 8.26163C179.135 8.2495 178.965 8.23981 178.895 8.23981C178.056 8.23981 177.312 8.47011 176.662 8.93072C176.01 9.39132 175.552 10.0434 175.285 10.8871H175.132V9.30647C175.132 8.83132 174.747 8.44829 174.274 8.44829H172.647C172.172 8.44829 171.789 8.83375 171.789 9.30647V22.2228C171.789 22.698 172.175 23.081 172.647 23.081H174.378C174.853 23.081 175.236 22.698 175.236 22.2228V14.4798C175.236 13.8568 175.379 13.3089 175.666 12.8313C175.952 12.3537 176.344 11.9828 176.841 11.7113C177.341 11.4422 177.903 11.3065 178.534 11.3065C178.65 11.3065 178.904 11.3307 179.178 11.3622C179.687 11.4204 180.134 11.0228 180.134 10.5089V9.11738C180.134 8.66405 179.782 8.29072 179.331 8.26163H179.329Z" fill="#041527"/>
<path d="M43.4399 22.2593V9.27017C43.4399 8.81441 43.8084 8.44593 44.2642 8.44593C44.72 8.44593 45.0885 8.81441 45.0885 9.27017V10.6956H45.2412C45.5345 9.93926 46.0218 9.3429 46.7055 8.90896C47.3891 8.47502 48.2086 8.25684 49.1686 8.25684C50.1795 8.25684 51.0087 8.49441 51.6608 8.96714C52.3129 9.43987 52.8002 10.0896 53.1227 10.9162H53.2463C53.576 10.1041 54.1142 9.45684 54.8609 8.97684C55.6076 8.49684 56.5143 8.25684 57.581 8.25684C58.941 8.25684 60.015 8.6835 60.8029 9.53926C61.5908 10.395 61.986 11.6411 61.986 13.2799V22.2617C61.986 22.7174 61.6175 23.0859 61.1617 23.0859H61.1132C60.6574 23.0859 60.2889 22.7174 60.2889 22.2617V13.2799C60.2889 12.1235 59.9932 11.2556 59.4016 10.6787C58.8101 10.1017 58.0319 9.81078 57.067 9.81078C55.9494 9.81078 55.0888 10.155 54.4851 10.8411C53.8815 11.5271 53.5809 12.3974 53.5809 13.452V22.2617C53.5809 22.7174 53.2124 23.0859 52.7566 23.0859H52.6693C52.2135 23.0859 51.845 22.7174 51.845 22.2617V13.1271C51.845 12.1356 51.5687 11.3356 51.0159 10.7247C50.4632 10.1138 49.685 9.81078 48.6813 9.81078C48.0073 9.81078 47.4037 9.97562 46.8655 10.3053C46.3297 10.635 45.9055 11.0956 45.5976 11.6823C45.2897 12.269 45.1345 12.9453 45.1345 13.7065V22.2593C45.1345 22.715 44.766 23.0835 44.3103 23.0835H44.2618C43.806 23.0835 43.4375 22.715 43.4375 22.2593H43.4399Z" fill="#041527"/>
<path d="M66.0802 28.5723C65.9275 28.5723 65.6075 28.5238 65.2899 28.4656C64.8317 28.3808 64.5481 27.9153 64.6863 27.4693C64.8026 27.0911 65.1832 26.868 65.5711 26.9335C65.8839 26.9844 66.1748 26.9965 66.4415 26.9674C66.8924 26.919 67.2924 26.7153 67.6415 26.3565C67.9906 25.9977 68.3033 25.4499 68.5749 24.7129L69.1082 23.2268L64.1068 9.49593C63.9202 8.98683 64.2984 8.44623 64.8414 8.44623H65.0087C65.3408 8.44623 65.6366 8.65714 65.7457 8.96986L69.9082 20.8462H70.0416L74.2041 8.96986C74.3132 8.65714 74.609 8.44623 74.9411 8.44623H75.1084C75.6515 8.44623 76.0296 8.98683 75.843 9.49593L70.0319 25.399C69.7725 26.1044 69.45 26.6935 69.0694 27.1662C68.6888 27.639 68.2476 27.9929 67.7506 28.2232C67.2512 28.4559 66.6936 28.5699 66.0778 28.5699L66.0802 28.5723Z" fill="#041527"/>
<path d="M197.359 8.47461C196.888 8.47461 196.508 8.85522 196.508 9.32552V22.2298C196.508 22.7001 196.888 23.0807 197.359 23.0807C197.829 23.0807 198.21 22.7001 198.21 22.2298V9.32552C198.21 8.85522 197.829 8.47461 197.359 8.47461Z" fill="#1D5BFF"/>
<path d="M207.899 22.1794C207.812 21.8134 207.463 21.5709 207.09 21.617C206.954 21.634 206.828 21.6461 206.753 21.6461C206.372 21.6461 206.013 21.5758 205.679 21.4327C205.342 21.2897 205.07 21.0449 204.862 20.7006C204.653 20.3564 204.547 19.8788 204.547 19.2703V9.95154H206.901C207.308 9.95154 207.638 9.62184 207.638 9.21457C207.638 8.80729 207.308 8.4776 206.901 8.4776H204.547V5.71396C204.547 5.30669 204.217 4.97699 203.81 4.97699H203.582C203.175 4.97699 202.845 5.30669 202.845 5.71396V8.4776H201.405C200.998 8.4776 200.668 8.80729 200.668 9.21457C200.668 9.62184 200.998 9.95154 201.405 9.95154H202.845V19.6703C202.845 20.4703 203.029 21.1394 203.398 21.6776C203.766 22.2158 204.236 22.6231 204.811 22.8946C205.386 23.1685 205.982 23.3043 206.603 23.3043C206.765 23.3043 207.056 23.2631 207.342 23.2146C207.759 23.1418 208.03 22.7321 207.933 22.32L207.902 22.1843L207.899 22.1794Z" fill="#1D5BFF"/>
<path d="M197.376 3.43011C196.523 3.43011 195.832 4.12102 195.832 4.97436C195.832 5.82769 196.523 6.5186 197.376 6.5186C198.23 6.5186 198.921 5.82769 198.921 4.97436C198.921 4.12102 198.23 3.43011 197.376 3.43011Z" fill="#1D5BFF"/>
<path d="M189.905 15.2848L187.699 14.7417C186.792 14.5139 186.121 14.2036 185.687 13.8133C185.253 13.423 185.035 12.9139 185.035 12.2884C185.035 11.5466 185.352 10.9405 185.985 10.4727C186.618 10.0048 187.43 9.76962 188.419 9.76962C189.079 9.76962 189.631 9.87386 190.077 10.0823C190.524 10.2908 190.887 10.5745 191.166 10.9284C191.309 11.1102 191.437 11.3042 191.547 11.5078C191.75 11.8884 192.204 12.0727 192.613 11.8787C193.042 11.6751 193.171 11.1248 192.941 10.7078C192.604 10.0969 192.165 9.5878 191.627 9.18296C190.824 8.5769 189.755 8.27386 188.417 8.27386C187.433 8.27386 186.56 8.44841 185.791 8.7975C185.023 9.14659 184.421 9.62659 183.983 10.2375C183.546 10.8508 183.328 11.5587 183.328 12.3636C183.328 13.3405 183.631 14.1575 184.24 14.8169C184.848 15.4763 185.786 15.9587 187.054 16.2617L189.442 16.8314C190.242 17.023 190.836 17.3187 191.231 17.7211C191.624 18.1236 191.821 18.6205 191.821 19.2096C191.821 19.9708 191.484 20.6036 190.812 21.1078C190.14 21.612 189.243 21.8642 188.121 21.8642C187.782 21.8642 187.469 21.8351 187.176 21.7817C186.812 21.7163 186.453 21.903 186.317 22.2472C186.135 22.7054 186.426 23.2096 186.914 23.2872C187.302 23.3502 187.714 23.3842 188.15 23.3842C189.222 23.3842 190.165 23.2024 190.979 22.8363C191.794 22.4727 192.429 21.9684 192.887 21.3284C193.343 20.6884 193.573 19.9563 193.573 19.132C193.573 18.1551 193.268 17.3454 192.655 16.6981C192.044 16.0508 191.125 15.5805 189.9 15.2823L189.905 15.2848Z" fill="#1D5BFF"/>
<path d="M182.88 19.9926C182.027 19.9926 181.336 20.6835 181.336 21.5369C181.336 22.3902 182.027 23.0811 182.88 23.0811C183.734 23.0811 184.424 22.3902 184.424 21.5369C184.424 20.6835 183.734 19.9926 182.88 19.9926Z" fill="#1D5BFF"/>
<path d="M219.056 14.7902H213.102C212.69 14.7902 212.356 15.1247 212.356 15.5369C212.356 15.949 212.69 16.2835 213.102 16.2835H219.158C220.31 16.2835 221.204 15.2823 221.076 14.1381C220.996 13.4496 220.848 12.8265 220.635 12.2641C220.293 11.3672 219.827 10.6229 219.241 10.029C218.654 9.43746 217.992 8.99624 217.258 8.70776C216.523 8.41928 215.759 8.27625 214.967 8.27625C213.704 8.27625 212.593 8.60109 211.633 9.25079C210.673 9.90049 209.922 10.7975 209.379 11.9417C208.835 13.0859 208.566 14.3926 208.566 15.8641C208.566 17.3356 208.838 18.6447 209.379 19.7769C209.922 20.909 210.69 21.7938 211.684 22.4314C212.678 23.069 213.859 23.3865 215.221 23.3865C216.198 23.3865 217.061 23.229 217.813 22.9162C218.564 22.6035 219.192 22.1865 219.696 21.6653C219.919 21.4375 220.113 21.1975 220.281 20.9502C220.545 20.5599 220.463 20.0047 220.063 19.755C219.655 19.5005 219.129 19.6169 218.882 20.0023C218.736 20.2278 218.564 20.4411 218.365 20.6423C218.007 21.0059 217.565 21.2969 217.044 21.5126C216.521 21.7284 215.915 21.835 215.224 21.835C214.21 21.835 213.33 21.5975 212.588 21.1223C211.847 20.6472 211.274 19.9756 210.872 19.1102C210.469 18.2447 210.268 17.2314 210.268 16.0726V15.1781C210.276 14.2156 210.477 13.3284 210.872 12.5162C211.267 11.7041 211.817 11.052 212.523 10.5575C213.226 10.0629 214.041 9.81564 214.967 9.81564C215.842 9.81564 216.613 10.0338 217.282 10.4726C217.951 10.9114 218.475 11.5053 218.85 12.2569C219.178 12.9114 219.364 13.6362 219.406 14.429C219.415 14.6253 219.253 14.7902 219.056 14.7902Z" fill="#1D5BFF"/>
<defs>
<linearGradient id="paint0_linear_21607_25925" x1="-3.15647" y1="26.6255" x2="28.0197" y2="7.53607" gradientUnits="userSpaceOnUse">
<stop stop-color="#231FFF"/>
<stop offset="0.18" stop-color="#2035FF"/>
<stop offset="0.56" stop-color="#1B70FF"/>
<stop offset="1" stop-color="#14BCFF"/>
</linearGradient>
</defs>
</svg>
