<svg width="375" height="581" viewBox="0 0 375 581" fill="none" xmlns="http://www.w3.org/2000/svg">
<g clip-path="url(#clip0_87_547)">
<rect width="375" height="581" fill="white"/>
<rect x="-2" width="377" height="309" fill="#1F1F1F"/>
<rect x="0.127258" y="342.721" width="388.235" height="93.8235" fill="white"/>
<path d="M0 359.76C0 366.381 0.0948898 371.787 0.123141 371.787L0.0221003 403.406C0.0221003 403.406 -7.19323e-08 409.308 0.0282515 431.581L0.0706291 459.589L1.48321 458.617C2.26013 458.081 3.34782 457.264 3.8846 456.799C4.43551 456.348 5.5797 455.419 6.42724 454.728C8.68737 452.897 9.22415 452.362 10.4813 450.6C11.2865 449.488 12.0493 448.628 13.0522 447.726C14.9734 446.008 16.174 444.627 17.2476 442.852C19.8468 438.611 20.8356 437.428 22.5024 436.611C23.689 436.033 23.9856 436.09 24.5648 437.019C25.0309 437.794 25.4406 438.118 26.0762 438.231C26.8814 438.386 27.065 438.146 28.8025 434.484C30.5682 430.807 31.1192 429.863 32.2633 428.609C32.9131 427.904 34.3398 427.031 34.8342 427.031C34.919 427.031 35.0744 427.299 35.1874 427.623C35.3993 428.285 36.5152 430.06 36.9672 430.44C37.2215 430.68 37.2639 430.666 38.0125 429.905C38.6906 429.2 40.1597 428.299 40.6258 428.299C40.7106 428.299 40.9083 428.651 41.092 429.06C41.5157 430.102 42.4904 431.44 44.129 433.272C46.6717 436.118 47.3921 437.329 47.8724 439.612C48.282 441.485 48.4515 441.838 49.4121 442.852C50.6128 444.106 50.7258 444.373 50.6834 446.008C50.6551 447.67 50.7823 447.924 51.9547 448.572C53.339 449.333 53.8334 449.896 54.5962 451.685C55.4155 453.587 55.7828 454.263 56.3337 454.813C56.9411 455.447 57.5909 455.7 59.1871 455.912C61.193 456.179 61.7156 456.63 62.7045 458.87C63.3119 460.251 64.1594 461.434 65.0211 462.125C65.8263 462.759 66.0382 462.787 67.14 462.406C67.931 462.125 67.9451 462.125 67.9451 462.392C67.9451 462.745 68.7079 463.604 69.273 463.9C69.8521 464.196 71.8297 464.069 72.8892 463.674C73.2988 463.519 73.652 463.393 73.6661 463.421C73.9345 464.097 74.2453 464.562 74.669 464.886C74.9657 465.097 77.5366 466.21 80.4889 467.394L85.8002 469.507L86.0403 470.254C86.5347 471.803 87.8767 473.198 89.3457 473.705C89.6565 473.818 90.5888 473.959 91.394 474.015C93.1738 474.128 93.6117 474.311 95.2221 475.523C98.2874 477.875 102.059 480.003 103.147 480.003C104.672 480.003 108.5 478.143 109.828 476.762C110.845 475.706 111.142 475.593 112.554 475.706C114.038 475.818 113.995 475.847 115.521 473.705C117.654 470.718 118.332 470.606 120.112 472.93C120.634 473.607 121.157 474.283 121.27 474.438C121.482 474.72 121.496 474.72 121.736 474.367C122.344 473.466 123.262 472.663 123.742 472.592C124.505 472.48 124.929 472.846 126.694 475.17C127.57 476.34 128.474 477.396 128.686 477.523C128.912 477.65 129.392 477.749 129.802 477.749C131.2 477.749 131.554 478.058 131.935 479.58C132.316 481.003 133.164 481.792 136.625 483.849C139.04 485.286 139.21 485.356 141.738 485.99L143.716 486.483L144.422 485.906C146.273 484.426 147.883 483.666 148.702 483.877C148.9 483.919 149.451 484.328 149.931 484.779C150.892 485.694 151.386 486.018 153.364 487.061C154.112 487.469 155.144 488.061 155.652 488.385C157.234 489.385 157.828 489.484 159.622 489.019C161.472 488.54 162.065 488.667 163.746 489.963C168.959 493.95 175.781 495.556 185.034 494.95C190.02 494.612 191.405 494.274 193.481 492.865C195.628 491.4 196.292 491.132 201.928 489.484C203.751 488.963 206.618 488.132 207.649 487.836C208.002 487.737 209.528 487.286 211.039 486.835C212.551 486.399 214.331 485.877 214.995 485.694C216.478 485.272 219.289 484.75 221.634 484.44C223.993 484.13 227.482 483.44 228.033 483.144C228.612 482.848 228.951 482.581 230.307 481.369C231.917 479.904 232.256 479.693 233.076 479.608C233.598 479.566 234.008 479.636 234.658 479.876C235.731 480.27 236.805 480.298 237.85 479.946C238.26 479.805 239.404 479.2 240.421 478.594C242.413 477.382 242.964 477.157 245.789 476.41C247.399 475.987 247.95 475.762 249.32 474.987C253.728 472.451 254.787 471.507 255.055 469.845C255.112 469.507 255.31 469.084 255.522 468.859C255.832 468.521 256.044 468.45 256.864 468.38C257.4 468.323 258.008 468.211 258.22 468.098C258.417 467.999 259.336 466.929 260.24 465.731C262.811 462.336 263.22 462.322 265.424 465.421C266.992 467.619 267.034 467.661 268.489 467.535C269.845 467.422 269.93 467.464 271.258 468.676C272.995 470.268 277.982 472.494 281.315 473.156C283.081 473.508 285.539 473.677 286.895 473.536C289.24 473.283 290.356 472.874 292.39 471.493C293.591 470.676 293.661 470.648 295.879 470.451C297.603 470.31 298.535 469.915 299.538 468.901C300.202 468.253 301.021 466.802 301.021 466.295C301.021 465.985 301.219 465.886 307.053 463.59C309.553 462.604 311.855 461.617 312.166 461.392C312.717 460.998 313.169 460.35 313.169 459.955C313.169 459.673 314.101 458.772 314.949 458.222C316.503 457.222 318.226 457.152 321.419 457.955C323.707 458.532 324.88 458.391 325.445 457.461C326.024 456.503 326.772 456.137 332.875 453.869C334.273 453.348 335.756 452.756 336.166 452.573C336.59 452.39 338.115 451.911 339.556 451.516C341.011 451.122 344.048 450.276 346.308 449.628C350.603 448.417 352.029 447.839 354.261 446.416C354.77 446.106 355.702 445.557 356.324 445.205C357.807 444.373 358.004 444.035 357.877 442.429C357.764 440.978 357.962 440.499 359.064 439.358C360.053 438.358 360.236 438.006 360.561 436.611C361.225 433.723 361.564 432.948 363.641 429.623C365.067 427.327 366.282 425.073 366.282 424.692C366.282 424.368 375.223 407.418 376 407.7L375.993 471.979L375.605 472.325L374.941 472.888C369.531 477.439 367.709 479.186 366.861 480.651C365.887 482.313 365.293 482.679 363.189 482.891C361.494 483.06 360.335 483.764 359.304 485.258L358.753 486.046L359.262 486.61C360.053 487.483 360.448 488.16 360.717 489.09C361.098 490.47 361.268 490.71 361.847 490.71C362.468 490.71 362.793 490.879 363.556 491.569C364.135 492.09 364.192 492.119 365.124 492.119C365.661 492.119 366.438 492.048 366.847 491.978C368.246 491.71 368.91 492.119 370.478 494.175C371.791 495.908 372.427 496.359 374.207 496.824C375.068 497.049 375.153 497.106 375.436 497.655L375.87 498.264L375.993 471.979L375.87 308.418H189.961H0V359.76Z" fill="#1F1F1F"/>
<path d="M241.537 395.824C239.21 399.692 237.278 402.903 237.249 402.961C237.22 403.034 238.551 403.078 240.234 403.078H243.278L245.986 398.758C247.478 396.379 248.781 394.292 248.898 394.117C249.073 393.81 248.986 393.62 247.595 391.46C246.776 390.19 246.029 389.052 245.927 388.964C245.795 388.819 244.815 390.366 241.537 395.824Z" fill="#1F1F1F"/>
<path d="M236.517 404.13C236.429 404.232 236.283 404.466 236.195 404.641L236.02 404.977H239.064H242.108L242.444 404.466L242.766 403.955H239.708C237.439 403.955 236.62 403.999 236.517 404.13Z" fill="#1F1F1F"/>
<path d="M235.361 406.027C235.303 406.129 235.156 406.362 235.039 406.537L234.834 406.873H237.922C240.454 406.873 241.01 406.829 241.01 406.669C241.01 406.567 241.112 406.391 241.23 406.289C241.347 406.187 241.449 406.056 241.449 405.983C241.449 405.764 235.493 405.822 235.361 406.027Z" fill="#1F1F1F"/>
<path d="M233.137 409.72C232.478 410.8 231.937 411.719 231.937 411.763C231.937 411.807 233.268 411.822 234.878 411.807L237.82 411.763L239.049 409.807C239.722 408.742 240.278 407.837 240.278 407.808C240.278 407.779 238.932 407.75 237.308 407.75H234.322L233.137 409.72Z" fill="#1F1F1F"/>
<path d="M255.688 430.737C255.425 430.854 255.073 431.16 254.912 431.423C254.634 431.875 254.62 432.153 254.62 435.699C254.62 439.859 254.649 439.99 255.483 440.545C256.405 441.158 257.869 440.881 258.425 439.976C258.703 439.523 258.717 439.246 258.717 435.685C258.717 431.963 258.717 431.861 258.381 431.379C257.854 430.591 256.654 430.314 255.688 430.737Z" fill="#1F1F1F"/>
<path d="M266.474 432.632V434.748H267.908C270.132 434.748 270.717 434.325 270.717 432.661C270.717 430.997 270.059 430.515 267.791 430.515H266.474V432.632Z" fill="#1F1F1F"/>
<path d="M30.8059 403.736C30.6449 403.853 30.5717 403.955 30.6595 403.955C30.7327 403.955 30.9229 403.853 31.0693 403.736C31.2303 403.619 31.3034 403.517 31.2156 403.517C31.1425 403.517 30.9522 403.619 30.8059 403.736Z" fill="#1F1F1F"/>
<path d="M14.6933 404.975C14.7371 405.048 14.81 405.121 14.8538 405.121C14.883 405.121 14.9121 405.048 14.9121 404.975C14.9121 404.888 14.8392 404.829 14.7517 404.829C14.6788 404.829 14.6496 404.888 14.6933 404.975Z" fill="#1F1F1F"/>
<path d="M27.3227 405.077C27.4248 405.121 27.556 405.106 27.5998 405.063C27.6581 405.019 27.5706 404.975 27.4102 404.99C27.2498 404.99 27.206 405.033 27.3227 405.077Z" fill="#1F1F1F"/>
<path d="M15.425 405.559C15.4687 405.632 15.5417 405.705 15.5854 405.705C15.6146 405.705 15.6438 405.632 15.6438 405.559C15.6438 405.472 15.5708 405.413 15.4833 405.413C15.4104 405.413 15.3812 405.472 15.425 405.559Z" fill="#1F1F1F"/>
<path d="M25.2737 405.517C25.3758 405.56 25.5071 405.546 25.5509 405.502C25.6092 405.458 25.5217 405.414 25.3613 405.429C25.2008 405.429 25.1571 405.473 25.2737 405.517Z" fill="#1F1F1F"/>
<path d="M28.3032 405.559C28.2595 405.632 28.2887 405.705 28.3616 405.705C28.4491 405.705 28.522 405.632 28.522 405.559C28.522 405.472 28.4928 405.413 28.4637 405.413C28.4199 405.413 28.347 405.472 28.3032 405.559Z" fill="#1F1F1F"/>
<path d="M19.8591 405.661C19.9612 405.705 20.0925 405.69 20.1362 405.646C20.1945 405.603 20.107 405.559 19.9466 405.574C19.7862 405.574 19.7424 405.617 19.8591 405.661Z" fill="#1F1F1F"/>
<path d="M16.2008 406.026C16.274 406.099 16.435 406.143 16.5374 406.114C16.6545 406.07 16.5813 406.012 16.3911 405.953C16.1423 405.895 16.0837 405.91 16.2008 406.026Z" fill="#1F1F1F"/>
<path d="M17.913 406.727C17.9569 406.8 18.1179 406.873 18.2496 406.873C18.4691 406.873 18.4691 406.844 18.2789 406.727C17.9862 406.537 17.796 406.537 17.913 406.727Z" fill="#1F1F1F"/>
<path d="M62.2837 407.851C62.2254 407.895 62.1816 408.011 62.1816 408.099C62.1816 408.186 62.2546 408.172 62.3567 408.07C62.4442 407.982 62.4879 407.865 62.4588 407.822C62.415 407.778 62.3275 407.792 62.2837 407.851Z" fill="#1F1F1F"/>
<path d="M61.7424 408.202C61.7424 408.275 61.8154 408.304 61.8883 408.261C61.9758 408.217 62.0341 408.144 62.0341 408.1C62.0341 408.071 61.9758 408.042 61.8883 408.042C61.8154 408.042 61.7424 408.115 61.7424 408.202Z" fill="#1F1F1F"/>
<path d="M47.9278 409.31C48.0156 409.368 48.1327 409.529 48.1766 409.646C48.2498 409.806 48.2644 409.777 48.2351 409.587C48.2205 409.427 48.1034 409.281 47.9863 409.252C47.84 409.208 47.8254 409.223 47.9278 409.31Z" fill="#1F1F1F"/>
<path d="M98.7378 410.478C99.0744 410.507 99.6305 410.507 99.9818 410.478C100.318 410.449 100.04 410.42 99.3525 410.42C98.6647 410.42 98.3866 410.449 98.7378 410.478Z" fill="#1F1F1F"/>
<path d="M94.3474 410.624C94.4495 410.668 94.5807 410.653 94.6245 410.609C94.6828 410.566 94.5953 410.522 94.4349 410.536C94.2744 410.536 94.2307 410.58 94.3474 410.624Z" fill="#1F1F1F"/>
<path d="M95.372 410.625C95.4598 410.654 95.6354 410.654 95.7378 410.625C95.8256 410.581 95.7524 410.552 95.5476 410.552C95.3427 410.552 95.2695 410.581 95.372 410.625Z" fill="#1F1F1F"/>
<path d="M27.6447 411.018C27.6447 411.047 27.7764 411.106 27.9374 411.149C28.0984 411.193 28.2008 411.164 28.1423 411.091C28.0691 410.96 27.6447 410.901 27.6447 411.018Z" fill="#1F1F1F"/>
<path d="M62.2983 411.061C62.4004 411.105 62.5316 411.091 62.5754 411.047C62.6337 411.003 62.5462 410.959 62.3858 410.974C62.2254 410.974 62.1816 411.018 62.2983 411.061Z" fill="#1F1F1F"/>
<path d="M94.7863 411.354C94.8884 411.398 95.0197 411.384 95.0634 411.34C95.1217 411.296 95.0342 411.252 94.8738 411.267C94.7134 411.267 94.6696 411.311 94.7863 411.354Z" fill="#1F1F1F"/>
<path d="M60.2496 411.499C60.3517 411.543 60.4829 411.528 60.5267 411.484C60.585 411.441 60.4975 411.397 60.3371 411.411C60.1767 411.411 60.1329 411.455 60.2496 411.499Z" fill="#1F1F1F"/>
<path d="M95.9571 411.499C96.0592 411.543 96.1905 411.528 96.2342 411.484C96.2926 411.441 96.2051 411.397 96.0446 411.411C95.8842 411.411 95.8404 411.455 95.9571 411.499Z" fill="#1F1F1F"/>
<path d="M94.8597 411.646C94.9914 411.675 95.1963 411.675 95.2987 411.646C95.3865 411.602 95.2841 411.573 95.0353 411.573C94.8012 411.573 94.7133 411.602 94.8597 411.646Z" fill="#1F1F1F"/>
<path d="M16.669 412.128C16.5374 412.215 16.5227 412.273 16.6251 412.273C16.7129 412.273 16.8445 412.201 16.8884 412.128C17.0053 411.953 16.9468 411.953 16.669 412.128Z" fill="#1F1F1F"/>
<path d="M35.4009 412.8C35.4009 413.107 35.4593 413.457 35.5323 413.574C35.6053 413.69 35.6345 413.501 35.5907 413.063C35.4885 412.172 35.4009 412.041 35.4009 412.8Z" fill="#1F1F1F"/>
<path d="M91.5962 412.565C91.7133 412.638 91.8889 412.711 91.9621 412.711C92.0499 412.711 92.006 412.638 91.8889 412.565C91.7719 412.492 91.6109 412.419 91.5231 412.419C91.4499 412.419 91.4792 412.492 91.5962 412.565Z" fill="#1F1F1F"/>
<path d="M83.079 412.669C83.1811 412.713 83.3124 412.698 83.3561 412.654C83.4145 412.611 83.327 412.567 83.1665 412.581C83.0061 412.581 82.9623 412.625 83.079 412.669Z" fill="#1F1F1F"/>
<path d="M2.03482 413.149C2.03482 413.222 2.10775 413.295 2.19526 413.295C2.26818 413.295 2.29735 413.222 2.2536 413.149C2.20984 413.062 2.13692 413.003 2.09316 413.003C2.06399 413.003 2.03482 413.062 2.03482 413.149Z" fill="#1F1F1F"/>
<path d="M29.474 413.149C29.4302 413.222 29.4448 413.295 29.5323 413.295C29.6052 413.295 29.7219 413.222 29.7657 413.149C29.8094 413.062 29.7948 413.003 29.7073 413.003C29.6344 413.003 29.5177 413.062 29.474 413.149Z" fill="#1F1F1F"/>
<path d="M72.8644 413.164C72.8644 413.237 72.9961 413.295 73.1571 413.295C73.3181 413.295 73.4498 413.266 73.4498 413.237C73.4498 413.207 73.3181 413.149 73.1571 413.105C72.9961 413.061 72.8644 413.091 72.8644 413.164Z" fill="#1F1F1F"/>
<path d="M13.7422 413.878C13.4788 414.054 13.713 414.054 14.1081 413.878C14.2983 413.791 14.3276 413.747 14.1813 413.747C14.0642 413.747 13.8593 413.805 13.7422 413.878Z" fill="#1F1F1F"/>
<path d="M21.4984 413.791C21.4984 413.82 21.6155 413.937 21.7618 414.039C21.9813 414.229 21.996 414.214 21.8057 413.981C21.6155 413.747 21.4984 413.674 21.4984 413.791Z" fill="#1F1F1F"/>
<path d="M6.71785 414.317C6.71785 414.39 6.82022 414.463 6.95183 414.463C7.06883 414.463 7.12732 414.39 7.08345 414.317C7.03958 414.23 6.93721 414.171 6.84947 414.171C6.77635 414.171 6.71785 414.23 6.71785 414.317Z" fill="#1F1F1F"/>
<path d="M50.6204 414.464C50.4887 414.551 50.4741 414.609 50.5765 414.609C50.6642 414.609 50.7958 414.536 50.8397 414.464C50.9567 414.289 50.8982 414.289 50.6204 414.464Z" fill="#1F1F1F"/>
<path d="M19.83 414.857C19.7425 415.061 19.7571 415.076 19.9029 414.944C20.005 414.842 20.0488 414.726 20.005 414.682C19.9613 414.638 19.8738 414.711 19.83 414.857Z" fill="#1F1F1F"/>
<path d="M22.9177 415.705C22.8594 415.821 22.8739 415.938 22.9323 415.982C22.9907 416.026 23.0637 415.924 23.0637 415.763C23.0929 415.427 23.0199 415.398 22.9177 415.705Z" fill="#1F1F1F"/>
<path d="M48.9374 415.79C48.8791 415.877 48.8645 415.965 48.9083 416.009C48.9374 416.053 49.0104 415.98 49.0541 415.848C49.1562 415.6 49.0687 415.557 48.9374 415.79Z" fill="#1F1F1F"/>
<path d="M18.6593 415.953C18.7031 416.026 18.8052 416.041 18.8781 415.997C19.0677 415.866 19.0385 415.822 18.7906 415.822C18.6739 415.822 18.6156 415.88 18.6593 415.953Z" fill="#1F1F1F"/>
<path d="M23.2545 416.228C23.2545 416.301 23.3274 416.33 23.4004 416.286C23.4879 416.242 23.5462 416.169 23.5462 416.126C23.5462 416.096 23.4879 416.067 23.4004 416.067C23.3274 416.067 23.2545 416.14 23.2545 416.228Z" fill="#1F1F1F"/>
<path d="M82.6695 416.127C82.6695 416.156 82.7719 416.229 82.9035 416.273C83.0205 416.317 83.079 416.302 83.0351 416.215C82.9474 416.069 82.6695 416.01 82.6695 416.127Z" fill="#1F1F1F"/>
<path d="M81.9082 416.317C82.0103 416.361 82.1416 416.347 82.1853 416.303C82.2437 416.259 82.1562 416.215 81.9957 416.23C81.8353 416.23 81.7915 416.274 81.9082 416.317Z" fill="#1F1F1F"/>
<path d="M69.6154 416.462C69.7175 416.506 69.8487 416.491 69.8925 416.447C69.9508 416.404 69.8633 416.36 69.7029 416.374C69.5424 416.374 69.4987 416.418 69.6154 416.462Z" fill="#1F1F1F"/>
<path d="M47.401 416.739C47.1668 416.856 47.1229 416.943 47.2692 416.943C47.3863 416.943 47.6205 416.841 47.7814 416.724C48.1327 416.462 47.8839 416.462 47.401 416.739Z" fill="#1F1F1F"/>
<path d="M17.4448 417.192C17.4448 417.308 17.5326 417.323 17.7228 417.221C17.8692 417.148 17.9863 417.06 17.9863 417.046C17.9863 417.016 17.8692 417.002 17.7228 417.002C17.5765 417.002 17.4448 417.089 17.4448 417.192Z" fill="#1F1F1F"/>
<path d="M57.1035 417.309C57.1035 417.396 57.3084 417.44 57.6011 417.411C57.8645 417.382 58.084 417.338 58.084 417.309C58.084 417.28 57.8645 417.236 57.6011 417.207C57.3084 417.177 57.1035 417.221 57.1035 417.309Z" fill="#1F1F1F"/>
<path d="M74.5475 417.236C74.3134 417.338 74.2987 417.367 74.5036 417.367C74.6353 417.382 74.7963 417.309 74.8402 417.236C74.9426 417.075 74.9426 417.075 74.5475 417.236Z" fill="#1F1F1F"/>
<path d="M2.69327 417.528C2.64951 417.601 2.6641 417.674 2.75161 417.674C2.82453 417.674 2.94121 417.601 2.98497 417.528C3.02872 417.44 3.01414 417.382 2.92663 417.382C2.8537 417.382 2.73702 417.44 2.69327 417.528Z" fill="#1F1F1F"/>
<path d="M3.08821 417.805C2.92777 417.907 2.92777 417.936 3.08821 418.009C3.21947 418.053 3.30699 417.994 3.30699 417.878C3.30699 417.761 3.2924 417.673 3.2924 417.673C3.27782 417.673 3.1903 417.732 3.08821 417.805Z" fill="#1F1F1F"/>
<path d="M29.9861 418.053C29.9861 418.257 29.9569 418.272 29.7374 418.097C29.5325 417.922 29.5325 417.951 29.752 418.287C29.8983 418.52 30.03 418.695 30.0447 418.695C30.0447 418.695 30.0739 418.491 30.0886 418.257C30.1032 418.009 30.0886 417.82 30.0593 417.82C30.0154 417.82 29.9861 417.922 29.9861 418.053Z" fill="#1F1F1F"/>
<path d="M42.103 417.923C42.2051 417.967 42.3364 417.952 42.3802 417.908C42.4385 417.864 42.351 417.821 42.1905 417.835C42.0301 417.835 41.9864 417.879 42.103 417.923Z" fill="#1F1F1F"/>
<path d="M44.079 417.923C44.2107 417.953 44.4156 417.953 44.518 417.923C44.6058 417.88 44.5034 417.85 44.2546 417.85C44.0205 417.85 43.9326 417.88 44.079 417.923Z" fill="#1F1F1F"/>
<path d="M55.4644 418.345C55.4644 418.505 55.5081 418.549 55.5519 418.432C55.5956 418.33 55.5811 418.199 55.5373 418.155C55.4935 418.097 55.4498 418.184 55.4644 418.345Z" fill="#1F1F1F"/>
<path d="M55.0107 419.294C55.0107 419.367 55.0836 419.396 55.1566 419.352C55.2441 419.309 55.3024 419.236 55.3024 419.192C55.3024 419.163 55.2441 419.134 55.1566 419.134C55.0836 419.134 55.0107 419.207 55.0107 419.294Z" fill="#1F1F1F"/>
<path d="M30.7177 419.862C30.8053 420.023 30.9074 420.154 30.9512 420.154C30.9804 420.154 30.9512 420.023 30.8637 419.862C30.7761 419.702 30.6739 419.57 30.6301 419.57C30.6009 419.57 30.6301 419.702 30.7177 419.862Z" fill="#1F1F1F"/>
<path d="M31.23 419.731C31.1717 419.819 31.1571 419.906 31.2008 419.95C31.23 419.994 31.3029 419.921 31.3467 419.79C31.4488 419.542 31.3613 419.498 31.23 419.731Z" fill="#1F1F1F"/>
<path d="M32.0352 420.827C32.0352 420.914 32.1522 421.089 32.2986 421.221C32.5327 421.425 32.5474 421.425 32.5766 421.075C32.5913 420.797 32.562 420.754 32.4595 420.9C32.3425 421.075 32.3132 421.075 32.1815 420.885C32.1083 420.768 32.0352 420.739 32.0352 420.827Z" fill="#1F1F1F"/>
<path d="M31.8887 421.307C31.8887 421.38 31.9911 421.482 32.1228 421.526C32.3277 421.599 32.3423 421.584 32.1814 421.394C31.9765 421.146 31.8887 421.117 31.8887 421.307Z" fill="#1F1F1F"/>
<path d="M33.7181 422.853C33.879 422.985 34.1425 423.16 34.3034 423.233L34.5961 423.379L34.3034 423.145C34.1425 423.014 33.879 422.839 33.7181 422.766L33.4254 422.62L33.7181 422.853Z" fill="#1F1F1F"/>
<path d="M51.2788 422.928C51.2351 423.001 51.2497 423.074 51.3372 423.074C51.4101 423.074 51.5268 423.001 51.5705 422.928C51.6143 422.841 51.5997 422.783 51.5122 422.783C51.4393 422.783 51.3226 422.841 51.2788 422.928Z" fill="#1F1F1F"/>
<path d="M50.9132 423.366C50.9132 423.439 50.9861 423.512 51.0736 423.512C51.1466 423.512 51.1757 423.439 51.132 423.366C51.0882 423.278 51.0153 423.22 50.9715 423.22C50.9424 423.22 50.9132 423.278 50.9132 423.366Z" fill="#1F1F1F"/>
<path d="M36.8643 424.301C36.8643 424.33 36.9667 424.403 37.0983 424.447C37.2153 424.491 37.2738 424.476 37.2299 424.388C37.1422 424.243 36.8643 424.184 36.8643 424.301Z" fill="#1F1F1F"/>
<path d="M48.1031 424.782C48.2052 424.826 48.3365 424.811 48.3802 424.768C48.4386 424.724 48.351 424.68 48.1906 424.695C48.0302 424.695 47.9864 424.738 48.1031 424.782Z" fill="#1F1F1F"/>
<path d="M39.3522 425.411C39.3522 425.484 39.4251 425.557 39.5126 425.557C39.5855 425.557 39.6147 425.484 39.571 425.411C39.5272 425.323 39.4543 425.265 39.4105 425.265C39.3813 425.265 39.3522 425.323 39.3522 425.411Z" fill="#1F1F1F"/>
<path d="M42.718 425.614C42.718 425.643 42.8497 425.701 43.0107 425.745C43.1717 425.789 43.2741 425.76 43.2156 425.687C43.1424 425.555 42.718 425.497 42.718 425.614Z" fill="#1F1F1F"/>
<path d="M321.849 489.337C321.674 489.395 320.591 490.534 319.42 491.847C315.864 495.846 314.605 496.941 311.064 499.13C307.318 501.436 306.396 502.21 304.947 504.239C303.762 505.902 303.469 506.078 302.21 505.932C300.718 505.742 298.918 504.779 297.381 503.363C296.957 502.969 296.444 502.604 296.24 502.56C295.771 502.443 294.805 502.969 294.147 503.713C293.357 504.618 292.786 504.895 291.249 505.173C288.308 505.683 287.869 505.932 287.079 507.493C286.274 509.099 285.981 509.274 283.786 509.464C282.922 509.551 281.971 509.697 281.693 509.785C280.742 510.12 279.674 510.85 278.093 512.251C275.4 514.63 274.259 515.214 270.937 515.973C268.244 516.586 266.634 517.053 265.61 517.549C264.527 518.075 262.01 519.914 262.01 520.177C262.01 520.293 262.552 520.381 263.839 520.439C264.849 520.498 265.874 520.6 266.108 520.673C266.356 520.76 267.615 521.359 268.888 522.016L271.23 523.212L274.888 523.636C276.908 523.869 279.366 524.161 280.376 524.292C283.157 524.657 288.161 524.745 289.961 524.468C293.327 523.942 295.537 523.023 298.201 521.023C300.527 519.286 301.596 518.79 304.552 518.075C308.21 517.199 309.044 516.936 310.113 516.382C311.005 515.915 311.562 515.477 314.488 512.996C315.923 511.784 316.962 511.361 319.01 511.157C321.235 510.952 321.513 510.792 322.376 509.172C322.991 508.048 323.108 507.917 323.84 507.552C324.367 507.289 325.157 507.07 326.137 506.939C327.952 506.661 328.318 506.501 329.547 505.319C331.04 503.903 331.347 503.903 332.913 505.289C333.484 505.8 334.245 506.369 334.596 506.559L335.24 506.909L335.62 506.559C336.089 506.121 336.074 506.048 335.606 506.005C335.079 505.961 334.303 505.465 333.879 504.91C333.689 504.647 333.367 503.903 333.162 503.246C332.854 502.297 332.591 501.801 331.859 500.882C330.82 499.568 330.528 499.028 329.781 497.072C329.123 495.321 328.523 494.401 327.498 493.613C325.903 492.358 325.771 492.227 325.669 491.482C325.581 490.957 325.449 490.694 325.04 490.344C324.147 489.556 322.537 489.045 321.849 489.337Z" fill="#1F1F1F"/>
</g>
<defs>
<clipPath id="clip0_87_547">
<rect width="375" height="581" fill="white"/>
</clipPath>
</defs>
</svg>
