<svg width="1440" height="929" viewBox="0 0 1440 929" fill="none" xmlns="http://www.w3.org/2000/svg">
<g clip-path="url(#clip0_798_8919)">
<path d="M1384.3 417.53C1383.99 417.646 1383.69 417.782 1383.38 417.955C1383.21 418.055 1383.03 418.15 1382.84 418.268C1382.55 418.443 1382.27 418.657 1381.98 418.889C1381.71 419.085 1381.44 419.299 1381.19 419.551C1379.06 421.534 1377.85 424.548 1376.2 427.289C1374.49 430.067 1372.95 432.226 1371.42 435.434C1368.63 441.305 1367.65 448.051 1365.06 454.135C1363.72 457.343 1362.99 460.453 1361.88 463.914C1361.46 465.274 1360.98 468.013 1360.36 469.063C1359.71 470.173 1358.92 470.253 1358.29 471.262C1356.96 473.381 1355.48 476.744 1354.37 479.291C1352.99 482.498 1351.55 485.278 1350.13 488.408C1348.28 492.451 1348.11 497.642 1346.88 502.094C1345.69 506.448 1343.7 509.092 1341.08 511.172C1337.99 513.622 1335.36 516.207 1332.56 519.296C1331.02 521.009 1329.01 522.117 1327.58 524.061C1325.99 526.219 1325.05 529.154 1323.38 531.293C1319.45 536.347 1314.74 543.946 1312.67 551.18C1312.57 551.53 1312.45 551.858 1312.34 552.191C1312.13 552.813 1311.9 553.376 1311.65 553.94C1311.51 554.212 1311.38 554.504 1311.25 554.757C1310.61 555.999 1309.9 557.089 1309.14 558.139C1308.81 558.586 1308.48 559.033 1308.13 559.481C1307.77 559.986 1307.41 560.491 1307.02 560.997C1305.27 563.446 1304.6 566.946 1303.09 569.724C1302.17 571.434 1300.78 572.484 1299.9 574.177C1299.26 575.363 1299.05 576.683 1298.48 577.869C1297.17 580.456 1295.58 582.673 1294.29 585.297C1292.79 588.289 1291.39 590.74 1289.18 592.587C1286.84 594.55 1284.29 595.309 1281.98 597.484C1279.55 599.758 1277.57 601.858 1274.8 603.065C1272.13 604.212 1270.2 606.076 1267.7 607.711C1266.16 608.701 1264.63 610.005 1263.03 610.763C1262.57 610.997 1262.1 611.191 1261.61 611.286C1259.41 611.774 1257.49 610.645 1255.41 610.083C1251.86 609.111 1248.9 608.119 1245.53 606.001C1242.03 603.821 1239.3 604.097 1235.64 603.862C1231.39 603.59 1228.57 600.808 1225.19 597.214C1222.27 594.103 1219.95 590.662 1216.59 588.563C1214.52 587.26 1212.21 586.969 1210.2 585.686C1208.77 584.791 1206.87 582.361 1205.84 580.69C1205.2 579.659 1205.13 578.435 1204.38 577.422C1203.76 576.588 1202.69 576.335 1201.96 575.694C1200.23 574.158 1199.25 571.572 1197.72 570.017C1197.3 569.568 1196.51 569.745 1196.05 569.395C1195.12 568.674 1194.49 567.529 1193.7 566.71C1191.48 564.477 1188.44 564.554 1185.85 562.883C1183.83 561.598 1181.97 560.414 1180.21 558.431C1177.9 555.884 1175.79 552.191 1173.1 550.75C1171.07 549.65 1168.78 549.877 1166.48 550.101C1164.4 550.305 1162.31 550.507 1160.39 549.722C1159.32 549.275 1158.22 548.905 1157.13 548.516C1154.23 547.544 1151.29 546.631 1148.54 544.959C1145.88 543.345 1143.26 541.615 1140.79 539.38C1138.27 537.125 1137.35 534.539 1135.24 531.895C1131.88 527.696 1127.19 520.97 1122.85 519.609C1119.23 518.482 1116.88 515.818 1113.87 512.63C1110.62 509.189 1110.53 505.943 1110.59 500.051C1110.66 492.763 1106.34 493.132 1102.66 490.408C1099.64 488.175 1096.51 487.203 1093.33 485.628C1090.45 484.189 1087.95 481.643 1085.07 480.34C1083.26 479.526 1081.33 479.835 1079.54 479.001C1078.2 478.357 1076.97 476.958 1075.58 476.277C1072.22 474.664 1068.94 472.895 1065.6 471.281C1061.86 469.473 1058.36 467.432 1054.64 465.583C1053.58 465.059 1052.7 463.933 1051.68 463.309C1049.99 462.281 1048.13 462.222 1046.42 461.209C1043.31 459.365 1040.57 456.818 1037.22 455.749C1034.3 454.835 1031.83 454.057 1029.5 451.005C1026.07 446.476 1024.45 445.133 1019.81 445.173C1016.79 445.193 1015.49 448.867 1012.8 448.362C1012.73 448.362 1012.63 448.342 1012.53 448.303C1012.4 448.264 1012.26 448.225 1012.11 448.167C1010.96 447.681 1010.04 448.828 1009.27 449.975C1008.71 450.811 1008.41 452.016 1007.75 452.522C1007.51 452.704 1007.26 452.634 1007.03 452.563C1006.81 452.496 1006.6 452.43 1006.41 452.561C1005.43 453.183 1005.02 453.688 1004.01 454.077C1001.57 455.029 1001.15 455.049 999.341 457.79C997.995 459.851 996.329 461.114 995.04 463.27C993.428 465.974 991.736 469.318 990.279 472.292C987.917 477.074 985.325 482.984 981.812 485.842C978.469 488.544 975.802 492.763 972.308 495.307C969.351 497.467 966.317 498.964 963.435 501.491C960.5 504.077 958.059 508.703 955.316 511.872C952.263 515.352 949.133 518.402 945.812 521.495C942.759 524.372 940.034 527.852 937.248 531.254C934.868 534.189 933.622 538.233 932.565 542.801C930.778 550.499 928.052 557.089 925.056 563.777C923.405 567.49 922.925 567.412 920.468 568.559C919.298 569.121 918.97 569.724 917.415 569.724C916.395 569.724 915.572 569.667 914.573 570.054C912.404 570.911 910.712 572.585 908.412 572.7C906.452 572.814 903.668 573.378 901.748 572.737C900.192 572.214 898.695 571.222 897.044 570.484C893.34 568.812 889.594 564.69 885.429 567.041C884.448 567.605 883.623 569.181 882.432 569.724C881.127 570.309 879.84 570.581 878.592 571.514C877.575 572.272 876.73 573.264 875.981 574.372C875.693 574.78 875.426 575.208 875.175 575.653C875.175 575.694 875.136 575.732 875.117 575.771C874.445 576.899 873.831 578.104 873.197 579.309C872.698 580.301 872.141 581.292 871.527 582.227C871.488 582.303 871.45 582.383 871.392 582.457C866.786 589.457 864.404 598.672 857.972 602.052C856.38 602.89 855.783 602.676 854.439 604.504C853.287 606.096 852.5 607.342 851.175 608.586C848.832 610.822 846.644 613.329 844.303 615.565C841.959 617.838 840 620.989 837.677 623.399C835.277 625.907 833.261 628.726 831.245 631.992C826.637 639.474 820.994 643.207 815.559 648.905C811.757 652.89 808.188 657.186 804.768 661.908C801.639 666.245 798.797 671.455 795.264 675.03C792.519 677.812 789.447 679.853 786.663 682.573C778.752 690.351 771.341 699.721 763.988 708.721C758.573 715.37 752.487 722.31 745.826 725.38C741.37 727.423 738.528 730.803 734.554 734.246C731.04 737.259 727.392 739.942 723.862 742.914C719.693 746.435 715.431 750.887 710.996 753.606C707.597 755.687 703.239 755.747 699.725 754.347C696.077 752.928 693.37 749.04 689.895 747.174C685.632 744.919 681.101 747.135 676.82 748.729C673.536 749.973 670.349 751.313 667.2 753.181C663.994 755.066 660.538 759.186 657.197 759.596C654.396 759.924 651.648 760.296 648.885 761.093C648.48 761.209 648.096 761.365 647.732 761.561C647.712 761.561 647.712 761.561 647.712 761.579C647.405 761.734 647.117 761.909 646.848 762.123C646.676 762.24 646.503 762.376 646.33 762.551C646.311 762.551 646.292 762.551 646.292 762.57C646.138 762.706 645.984 762.84 645.831 762.979C644.333 764.398 643.066 766.264 641.396 767.644C637.517 770.85 634.023 771.474 629.549 771.338L614.132 777.811L597.504 784.79L562.868 799.312C562.848 799.331 562.848 799.312 562.848 799.312L515.597 819.16H515.578L502.1 824.817L469.652 838.425L444.308 849.076H444.288L389.28 872.152L181.728 959.245V1050.5H1621.73V554.737C1619.33 553.649 1617.02 552.404 1614.57 550.771C1610.92 548.38 1607.64 546.028 1603.93 544.16C1599.29 541.81 1595.18 543.929 1591.01 546.048C1588.08 547.539 1585.12 549.028 1581.93 548.964C1581.16 548.946 1580.31 549.039 1579.44 549.135C1577.66 549.327 1575.8 549.52 1574.3 548.75C1571.12 547.115 1568.66 543.909 1565.17 543.151C1561.13 542.276 1557.7 543.501 1553.8 540.857C1550.71 538.777 1547.75 536.172 1545.22 532.653C1543.3 530.01 1539.57 529.562 1537.23 528.279C1535.31 527.23 1533.45 526.063 1531.55 524.955C1526.19 521.825 1521.52 517.451 1516.57 513.058C1512.27 509.248 1508.51 504.368 1504.22 500.42C1500.37 496.825 1496.83 493.229 1492.9 490.119C1492.05 489.419 1491.17 488.758 1490.27 488.116C1481.21 481.701 1470.65 481.682 1460.93 479.66C1455.99 478.63 1450.66 478.26 1446.41 473.459C1443.15 469.765 1440.94 463.233 1438.31 458.47C1432.86 448.537 1425.22 443.968 1418.09 437.786C1411.87 432.362 1405.75 427.327 1399.3 422.915C1395.31 420.216 1391.23 416.999 1387.1 416.999C1386.17 416.999 1385.23 417.162 1384.3 417.53Z" fill="white"/>
<path d="M1009.26 449.973C1008.7 450.815 1008.4 452.016 1007.75 452.517C1007.51 452.704 1007.26 452.634 1007.02 452.564C1006.81 452.498 1006.59 452.434 1006.4 452.56C1005.44 453.18 1005.03 453.678 1004.01 454.077C1001.57 455.031 1001.15 455.047 999.348 457.786C998 459.842 996.33 461.118 995.034 463.279C993.423 465.972 991.743 469.312 990.274 472.284C987.913 477.066 985.321 482.988 981.807 485.832C978.468 488.534 975.809 492.752 972.313 495.303C969.35 497.463 966.309 498.967 963.431 501.498C960.495 504.078 958.064 508.701 955.313 511.862C952.268 515.359 949.129 518.4 945.82 521.498C942.758 524.37 940.03 527.851 937.255 531.259C934.869 534.189 933.623 538.228 932.563 542.803C930.775 550.491 928.043 557.087 925.052 563.784C923.401 567.486 922.923 567.404 920.463 568.561C919.288 569.117 918.977 569.723 917.412 569.719C916.393 569.717 915.565 569.669 914.573 570.056C912.409 570.901 910.711 572.575 908.419 572.701C906.443 572.808 903.665 573.382 901.755 572.742C900.199 572.217 898.688 571.222 897.045 570.479C893.339 568.802 889.597 564.686 885.431 567.052C884.452 567.608 883.614 569.177 882.424 569.719C881.13 570.312 879.832 570.579 878.59 571.508C875.335 573.949 873.886 578.683 871.397 582.466C866.793 589.461 864.411 598.675 857.971 602.048C856.379 602.88 855.778 602.668 854.446 604.503C853.292 606.095 852.503 607.341 851.18 608.593C848.83 610.823 846.647 613.325 844.31 615.567C841.952 617.829 840 620.984 837.686 623.391C835.267 625.901 833.253 628.72 831.245 631.984C826.64 639.474 820.994 643.206 815.548 648.91C811.762 652.88 808.181 657.18 804.768 661.917C801.644 666.251 798.789 671.46 795.258 675.041C792.518 677.815 789.45 679.849 786.666 682.582C778.756 690.352 771.337 699.716 763.993 708.729C758.578 715.371 752.484 722.306 745.816 725.379C741.369 727.428 738.535 730.813 734.551 734.24C731.042 737.259 727.396 739.938 723.868 742.91C719.683 746.437 715.422 750.896 710.991 753.61C707.598 755.692 703.236 755.744 699.717 754.355C696.086 752.922 693.375 749.034 689.896 747.179C685.637 744.911 681.093 747.129 676.827 748.732C673.536 749.969 670.356 751.308 667.198 753.18C664.003 755.07 660.53 759.187 657.196 759.586C654.388 759.924 651.655 760.299 648.877 761.089C645.717 761.983 644.073 765.429 641.389 767.644C637.515 770.844 634.016 771.481 629.554 771.337L469.659 838.427C469.839 841.815 470.179 845.209 470.713 848.607C478.955 901.023 529.484 937.147 580.483 949.431C631.48 961.715 684.808 956.342 737.111 959.923C791.207 963.628 849.554 976.116 896.73 949.062C927.147 931.62 947.088 900.572 965.835 870.701C982.274 844.509 859.916 803.666 865.499 773.153C869.687 750.268 931.154 741.765 948.017 737.58C972.349 731.54 1085.9 716.097 1085.58 685.047C1085.52 679.201 1082.35 673.914 1079.28 668.964C1062.18 641.385 1045.09 613.807 1027.99 586.226C1020.69 574.441 1013.18 562.07 1012 548.211C1010.82 534.35 1018.19 518.672 1031.56 515.456C1042.73 512.77 1060.65 514.189 1059.69 502.612C1059.41 499.121 1056.92 496.281 1054.56 493.719C1040.64 478.6 1026.72 463.482 1012.8 448.363C1012.58 448.322 1012.35 448.262 1012.11 448.159C1011.92 448.081 1011.74 448.044 1011.57 448.044C1010.67 448.044 1009.91 449.005 1009.26 449.973Z" fill="#F0F0F5" fill-opacity="0.7"/>
<path d="M1381.19 419.553C1379.06 421.54 1377.85 424.557 1376.2 427.283C1374.5 430.074 1372.95 432.236 1371.43 435.438C1368.63 441.308 1367.65 448.043 1365.08 454.131C1363.71 457.345 1362.98 460.457 1361.89 463.906C1361.45 465.27 1360.98 468.027 1360.36 469.069C1359.71 470.167 1358.93 470.255 1358.3 471.264C1356.96 473.39 1355.48 476.748 1354.38 479.294C1353 482.498 1351.55 485.288 1350.13 488.406C1348.29 492.443 1348.11 497.636 1346.89 502.101C1345.69 506.454 1343.7 509.102 1341.08 511.18C1338 513.617 1335.37 516.201 1332.56 519.308C1331.02 521.009 1329.01 522.128 1327.59 524.055C1326 526.213 1325.05 529.156 1323.39 531.296C1319.45 536.341 1314.75 543.95 1312.67 551.174C1311.43 555.503 1309.21 557.987 1307.03 561.006C1305.27 563.438 1304.61 566.943 1303.09 569.721C1302.16 571.438 1300.79 572.49 1299.89 574.171C1299.26 575.361 1299.06 576.696 1298.47 577.876C1297.18 580.46 1295.59 582.682 1294.29 585.291C1292.79 588.288 1291.4 590.738 1289.19 592.589C1286.85 594.556 1284.3 595.308 1281.98 597.484C1279.55 599.768 1277.57 601.867 1274.8 603.059C1272.13 604.204 1270.19 606.088 1267.7 607.707C1266.17 608.7 1264.63 610.011 1263.05 610.771C1255.53 622.32 1247.81 633.737 1239.85 644.968C1237.47 648.309 1235.26 651.77 1233 655.191C1218.74 676.81 1204.58 698.498 1189.89 719.821C1182.29 730.867 1174.59 741.864 1166.46 752.525C1162.78 757.348 1159.62 760.605 1155.01 764.053C1152.6 765.853 1149.19 769.209 1147.08 772.916C1145.44 775.807 1144.6 778.909 1145.66 781.648C1150.94 780.243 1152.39 775.087 1156.53 772.337C1159.89 770.093 1165.61 767.825 1169.33 766.231C1174.38 764.069 1175.97 764.481 1180.15 759.526C1190 747.836 1189.96 730.29 1207.8 726.624C1211.13 725.943 1214.63 725.966 1217.74 724.606C1234.81 717.133 1239.5 699.12 1250.72 686.249C1265.79 668.965 1286 657.728 1304.15 644.188C1340.12 617.359 1370.67 557.328 1417.92 552.624C1428.18 551.603 1438.64 551.751 1449.07 551.903C1468.42 552.179 1487.69 552.457 1505.45 545.242C1481.15 536.127 1456.84 527.041 1432.55 517.904C1404.54 507.368 1397.83 503.96 1392.88 474.061C1390.16 457.572 1387.92 434.644 1384.3 417.539C1383.27 417.947 1382.23 418.585 1381.19 419.553Z" fill="#F0F0F5" fill-opacity="0.7"/>
<path d="M1340.45 1047.41C1330.84 1044.73 1321.2 1042.16 1311.61 1039.43C1304.84 1037.5 1299.81 1032.69 1293.17 1030.5C1289.06 1029.14 1285.08 1029.02 1280.85 1028.59C1276.9 1028.19 1273.55 1027.62 1270 1025.68C1265.47 1023.19 1261.82 1019.2 1257.6 1016.26C1245.6 1007.86 1230.97 1003.22 1216.36 1003.29C1201.67 1003.37 1186.98 1003.18 1172.3 1003.28C1161.11 1003.35 1153.99 1002.12 1143.49 998.466C1135.31 995.616 1126.19 992.998 1117.56 992.119C1111.68 991.52 1105.69 993.482 1099.87 991.791C1096.49 990.809 1091.42 988.194 1088.22 986.748C1078.7 982.438 1068.72 978.801 1058.58 974.893C1044.43 969.44 1029.12 969.398 1015.19 963.362C1002.04 957.67 988.231 959.104 974.159 959.104C965.404 959.104 954.65 960.832 946.087 958.873C938.99 957.25 932.019 955.053 924.633 953.923C919.101 953.082 915.3 953.111 909.918 951.015C904.48 948.9 898.97 947.209 893.394 945.496C884.624 942.802 877.243 942.804 868.15 942.8C861.904 942.798 854.249 944.025 848.121 942.942C840.329 941.563 831.549 938.076 824.034 935.395C807.507 929.497 790.885 920.875 773.335 918.609C765.002 917.532 756.681 915.737 748.296 915.701C739.969 915.664 732.542 912.843 724.069 912.919C714.681 913.004 704.616 913.848 695.314 912.678C684.262 911.288 672.118 911.272 661.378 908.603C650.109 905.802 639.697 903.525 627.964 904.618C619.591 905.397 612.821 908.652 604.181 906.933C594.579 905.024 583.921 902.528 574.505 899.554C564.565 896.414 557.563 888.65 548.983 883.028C529.472 870.248 503.936 871.467 481.687 866.484C470.693 864.019 460.016 859.095 449.031 856.442C437.208 853.584 425.356 851.265 413.784 847.017C399.689 841.842 384.66 837.379 371.567 829.877C360.788 823.699 348.014 825.958 335.84 825.956C322.023 825.95 306.729 827.886 293.047 826.096C283.334 824.824 273.566 822.684 263.778 821.115C256.089 819.883 248.666 821.177 241.157 818.93C235.654 817.282 230.808 815.964 225.223 814.844C210.281 811.846 196.788 803.131 182.351 798.781C165.359 793.662 149.579 785.243 132.07 781.732C119.248 779.164 107.049 774.541 94.5169 770.863C85.1992 768.128 76.1789 762.997 66.9092 761.046C58.01 759.17 50.3031 754.844 41.5594 752.819C27.6049 749.588 13.5235 745.377 0.000976562 740V1050.37H1349.19C1346.1 1049.25 1343.12 1048.15 1340.45 1047.41Z" fill="white"/>
</g>
<defs>
<clipPath id="clip0_798_8919">
<rect width="1440" height="972" fill="white" transform="translate(0 -43)"/>
</clipPath>
</defs>
</svg>
