<svg width="1440" height="928" viewBox="0 0 1440 928" fill="none" xmlns="http://www.w3.org/2000/svg">
<g clip-path="url(#clip0_87_794)">
<rect width="1440" height="928" fill="white"/>
<rect width="1440" height="89" fill="#1F1F1F"/>
<rect y="470" width="1440" height="348" fill="white"/>
<path d="M-0.471924 286.285C-0.471924 311.729 -0.108271 332.5 0 332.5L-0.387227 454C-0.387227 454 -0.471924 476.679 -0.363653 562.267L-0.201247 669.888L5.21229 666.153C8.18973 664.096 12.3582 660.956 14.4153 659.169C16.5266 657.437 20.9115 653.864 24.1597 651.212C32.8213 644.174 34.8784 642.117 39.6965 635.35C42.7822 631.073 45.7055 627.771 49.5491 624.306C56.9115 617.702 61.513 612.396 65.6273 605.575C75.5882 589.281 79.3777 584.733 85.7657 581.593C90.313 579.374 91.4499 579.59 93.6694 583.163C95.4559 586.141 97.0258 587.386 99.4619 587.819C102.548 588.415 103.251 587.494 109.91 573.419C116.677 559.29 118.788 555.663 123.173 550.845C125.663 548.138 131.131 544.781 133.026 544.781C133.351 544.781 133.946 545.81 134.379 547.055C135.191 549.599 139.468 556.421 141.2 557.882C142.175 558.802 142.337 558.748 145.206 555.825C147.805 553.118 153.435 549.654 155.221 549.654C155.546 549.654 156.304 551.007 157.008 552.577C158.632 556.583 162.367 561.726 168.647 568.763C178.391 579.699 181.152 584.354 182.993 593.124C184.563 600.324 185.212 601.678 188.894 605.575C193.495 610.393 193.928 611.422 193.766 617.702C193.657 624.09 194.145 625.064 198.638 627.554C203.943 630.478 205.838 632.643 208.761 639.518C211.901 646.827 213.309 649.425 215.42 651.536C217.748 653.972 220.238 654.947 226.355 655.759C234.042 656.787 236.045 658.52 239.835 667.127C242.163 672.433 245.411 676.98 248.713 679.633C251.799 682.069 252.611 682.177 256.833 680.715C259.865 679.633 259.919 679.633 259.919 680.661C259.919 682.015 262.842 685.317 265.008 686.454C267.227 687.59 274.806 687.103 278.866 685.587C280.436 684.992 281.79 684.505 281.844 684.613C282.873 687.212 284.064 688.998 285.688 690.243C286.824 691.055 296.677 695.332 307.991 699.879L328.346 707.999L329.267 710.869C331.161 716.824 336.304 722.183 341.934 724.132C343.125 724.565 346.698 725.106 349.784 725.323C356.605 725.756 358.283 726.46 364.454 731.115C376.202 740.156 390.656 748.33 394.824 748.33C400.671 748.33 415.342 741.184 420.43 735.879C424.328 731.819 425.465 731.386 430.879 731.819C436.563 732.252 436.4 732.36 442.247 724.132C450.421 712.655 453.02 712.222 459.841 721.154C461.844 723.753 463.847 726.351 464.28 726.947C465.092 728.03 465.146 728.03 466.066 726.676C468.394 723.211 471.913 720.126 473.754 719.855C476.677 719.422 478.301 720.83 485.068 729.762C488.424 734.255 491.889 738.315 492.701 738.802C493.567 739.29 495.408 739.669 496.978 739.669C502.337 739.669 503.691 740.86 505.152 746.706C506.614 752.174 509.862 755.205 523.125 763.109C532.382 768.631 533.032 768.902 542.722 771.338L550.301 773.233L553.008 771.013C560.099 765.329 566.271 762.405 569.411 763.218C570.168 763.38 572.28 764.95 574.12 766.682C577.802 770.201 579.696 771.446 587.275 775.452C590.144 777.022 594.096 779.296 596.045 780.541C602.108 784.384 604.382 784.763 611.257 782.977C618.349 781.136 620.623 781.624 627.065 786.604C647.041 801.924 673.188 808.096 708.647 805.768C727.756 804.469 733.062 803.169 741.02 797.756C749.248 792.126 751.793 791.097 773.393 784.763C780.376 782.76 791.365 779.566 795.317 778.43C796.671 778.051 802.517 776.318 808.31 774.586C814.102 772.908 820.923 770.905 823.468 770.201C829.152 768.577 839.925 766.574 848.911 765.383C857.952 764.192 871.323 761.539 873.435 760.402C875.654 759.266 876.953 758.237 882.15 753.581C888.322 747.951 889.621 747.139 892.761 746.814C894.764 746.652 896.334 746.923 898.824 747.843C902.938 749.359 907.053 749.467 911.059 748.114C912.629 747.572 917.014 745.245 920.911 742.917C928.544 738.261 930.656 737.395 941.483 734.526C947.654 732.902 949.765 732.036 955.017 729.058C971.907 719.314 975.967 715.687 976.996 709.299C977.212 707.999 977.97 706.375 978.782 705.509C979.973 704.21 980.785 703.939 983.925 703.669C985.982 703.452 988.31 703.019 989.122 702.586C989.88 702.207 993.399 698.093 996.863 693.491C1006.72 680.445 1008.29 680.39 1016.73 692.3C1022.74 700.745 1022.9 700.908 1028.48 700.421C1033.68 699.987 1034 700.15 1039.09 704.805C1045.75 710.923 1064.86 719.476 1077.63 722.021C1084.4 723.374 1093.82 724.024 1099.02 723.482C1108 722.508 1112.28 720.938 1120.08 715.633C1124.68 712.493 1124.95 712.384 1133.45 711.627C1140.05 711.085 1143.62 709.569 1147.47 705.672C1150.01 703.181 1153.15 697.605 1153.15 695.657C1153.15 694.466 1153.91 694.087 1176.27 685.263C1185.85 681.473 1194.67 677.684 1195.87 676.818C1197.98 675.302 1199.71 672.811 1199.71 671.296C1199.71 670.213 1203.28 666.748 1206.53 664.637C1212.48 660.793 1219.09 660.523 1231.32 663.608C1240.09 665.828 1244.59 665.287 1246.75 661.714C1248.97 658.033 1251.84 656.625 1275.23 647.909C1280.59 645.906 1286.27 643.633 1287.84 642.929C1289.47 642.225 1295.31 640.384 1300.83 638.869C1306.41 637.353 1318.05 634.105 1326.71 631.615C1343.17 626.959 1348.64 624.739 1357.19 619.272C1359.14 618.081 1362.71 615.969 1365.09 614.616C1370.78 611.422 1371.53 610.123 1371.05 603.951C1370.61 598.375 1371.37 596.535 1375.59 592.15C1379.38 588.306 1380.09 586.953 1381.33 581.593C1383.88 570.496 1385.18 567.518 1393.13 554.742C1398.6 545.918 1403.26 537.257 1403.26 535.795C1403.26 534.55 1437.52 469.417 1440.5 470.5L1440.47 717.5L1438.99 718.827L1436.44 720.992C1415.71 738.478 1408.73 745.19 1405.48 750.821C1401.74 757.208 1399.47 758.616 1391.4 759.428C1384.91 760.078 1380.47 762.784 1376.51 768.523L1374.4 771.554L1376.35 773.72C1379.38 777.076 1380.9 779.675 1381.93 783.248C1383.39 788.553 1384.04 789.473 1386.26 789.473C1388.64 789.473 1389.89 790.123 1392.81 792.775C1395.03 794.778 1395.25 794.887 1398.82 794.887C1400.88 794.887 1403.85 794.616 1405.42 794.345C1410.78 793.317 1413.33 794.887 1419.34 802.79C1424.37 809.449 1426.81 811.181 1433.63 812.968C1436.93 813.834 1437.25 814.051 1438.34 816.162L1440 818.5L1440.47 717.5L1440 89H727.528H-0.471924V286.285Z" fill="#1F1F1F"/>
<path d="M893.027 425.876C884.42 440.222 877.274 452.132 877.166 452.348C877.057 452.619 881.984 452.781 888.209 452.781H899.469L909.484 436.757C915.006 427.933 919.824 420.192 920.257 419.542C920.907 418.405 920.582 417.702 915.439 409.69C912.408 404.98 909.647 400.757 909.268 400.432C908.781 399.891 905.154 405.629 893.027 425.876Z" fill="#1F1F1F"/>
<path d="M874.459 456.68C874.134 457.059 873.593 457.926 873.268 458.575L872.618 459.82H883.879H895.139L896.384 457.926L897.575 456.031H886.261C877.87 456.031 874.838 456.193 874.459 456.68Z" fill="#1F1F1F"/>
<path d="M870.183 463.716C869.966 464.095 869.425 464.961 868.992 465.61L868.234 466.855H879.656C889.022 466.855 891.079 466.693 891.079 466.098C891.079 465.719 891.458 465.069 891.891 464.69C892.324 464.311 892.703 463.824 892.703 463.553C892.703 462.741 870.67 462.958 870.183 463.716Z" fill="#1F1F1F"/>
<path d="M861.954 477.414C859.518 481.42 857.515 484.831 857.515 484.993C857.515 485.155 862.441 485.21 868.396 485.155L879.277 484.993L883.824 477.739C886.315 473.787 888.372 470.431 888.372 470.322C888.372 470.214 883.391 470.106 877.382 470.106H866.339L861.954 477.414Z" fill="#1F1F1F"/>
<path d="M945.376 555.369C944.402 555.802 943.103 556.939 942.507 557.913C941.479 559.591 941.424 560.62 941.424 573.775C941.424 589.203 941.533 589.69 944.618 591.748C948.029 594.021 953.442 592.993 955.5 589.636C956.528 587.958 956.582 586.93 956.582 573.721C956.582 559.916 956.582 559.537 955.337 557.751C953.388 554.827 948.949 553.799 945.376 555.369Z" fill="#1F1F1F"/>
<path d="M985.274 562.402V570.252H990.579C998.808 570.252 1000.97 568.682 1000.97 562.511C1000.97 556.339 998.537 554.553 990.146 554.553H985.274V562.402Z" fill="#1F1F1F"/>
<path d="M113.486 455.217C112.89 455.65 112.62 456.029 112.945 456.029C113.215 456.029 113.919 455.65 114.46 455.217C115.056 454.784 115.327 454.405 115.002 454.405C114.731 454.405 114.027 454.784 113.486 455.217Z" fill="#1F1F1F"/>
<path d="M53.8823 459.816C54.0446 460.087 54.3151 460.357 54.4774 460.357C54.5856 460.357 54.6938 460.087 54.6938 459.816C54.6938 459.492 54.4233 459.275 54.0987 459.275C53.8282 459.275 53.7201 459.492 53.8823 459.816Z" fill="#1F1F1F"/>
<path d="M100.602 460.197C100.98 460.359 101.467 460.305 101.629 460.143C101.846 459.981 101.521 459.818 100.926 459.872C100.331 459.872 100.169 460.035 100.602 460.197Z" fill="#1F1F1F"/>
<path d="M56.5888 461.984C56.7511 462.255 57.0216 462.525 57.1839 462.525C57.2921 462.525 57.4003 462.255 57.4003 461.984C57.4003 461.66 57.1298 461.443 56.8052 461.443C56.5347 461.443 56.4265 461.66 56.5888 461.984Z" fill="#1F1F1F"/>
<path d="M93.022 461.822C93.4007 461.984 93.8876 461.93 94.0499 461.768C94.2663 461.606 93.9417 461.443 93.3466 461.497C92.7516 461.497 92.5893 461.66 93.022 461.822Z" fill="#1F1F1F"/>
<path d="M104.228 461.984C104.066 462.255 104.174 462.525 104.445 462.525C104.769 462.525 105.04 462.255 105.04 461.984C105.04 461.66 104.932 461.443 104.823 461.443C104.661 461.443 104.391 461.66 104.228 461.984Z" fill="#1F1F1F"/>
<path d="M72.992 462.363C73.3707 462.525 73.8576 462.471 74.0199 462.309C74.2363 462.147 73.9117 461.984 73.3166 462.038C72.7215 462.038 72.5592 462.201 72.992 462.363Z" fill="#1F1F1F"/>
<path d="M59.4585 463.715C59.7292 463.986 60.3247 464.149 60.7036 464.04C61.1367 463.878 60.8661 463.661 60.1623 463.445C59.242 463.228 59.0255 463.282 59.4585 463.715Z" fill="#1F1F1F"/>
<path d="M65.7925 466.314C65.9549 466.585 66.5504 466.855 67.0376 466.855C67.8497 466.855 67.8497 466.747 67.1459 466.314C66.0632 465.61 65.3594 465.61 65.7925 466.314Z" fill="#1F1F1F"/>
<path d="M229.931 470.484C229.714 470.647 229.552 471.079 229.552 471.404C229.552 471.729 229.822 471.675 230.201 471.296C230.526 470.971 230.688 470.538 230.58 470.376C230.418 470.214 230.093 470.268 229.931 470.484Z" fill="#1F1F1F"/>
<path d="M227.927 471.784C227.927 472.054 228.198 472.162 228.468 472C228.793 471.838 229.009 471.567 229.009 471.405C229.009 471.297 228.793 471.188 228.468 471.188C228.198 471.188 227.927 471.459 227.927 471.784Z" fill="#1F1F1F"/>
<path d="M176.824 475.896C177.149 476.112 177.582 476.708 177.744 477.141C178.015 477.736 178.069 477.628 177.961 476.924C177.907 476.329 177.474 475.787 177.04 475.679C176.499 475.517 176.445 475.571 176.824 475.896Z" fill="#1F1F1F"/>
<path d="M364.782 480.231C366.027 480.34 368.084 480.34 369.383 480.231C370.628 480.123 369.6 480.015 367.055 480.015C364.511 480.015 363.482 480.123 364.782 480.231Z" fill="#1F1F1F"/>
<path d="M348.541 480.769C348.92 480.931 349.407 480.877 349.569 480.715C349.785 480.553 349.461 480.391 348.866 480.445C348.271 480.445 348.108 480.607 348.541 480.769Z" fill="#1F1F1F"/>
<path d="M352.331 480.77C352.655 480.879 353.305 480.879 353.684 480.77C354.009 480.608 353.738 480.5 352.98 480.5C352.222 480.5 351.952 480.608 352.331 480.77Z" fill="#1F1F1F"/>
<path d="M101.792 482.231C101.792 482.34 102.279 482.556 102.875 482.719C103.47 482.881 103.849 482.773 103.633 482.502C103.362 482.015 101.792 481.798 101.792 482.231Z" fill="#1F1F1F"/>
<path d="M229.984 482.392C230.363 482.555 230.85 482.5 231.012 482.338C231.228 482.176 230.904 482.014 230.309 482.068C229.714 482.068 229.551 482.23 229.984 482.392Z" fill="#1F1F1F"/>
<path d="M350.165 483.476C350.543 483.639 351.03 483.584 351.193 483.422C351.409 483.26 351.084 483.098 350.489 483.152C349.894 483.152 349.732 483.314 350.165 483.476Z" fill="#1F1F1F"/>
<path d="M222.406 484.019C222.784 484.181 223.271 484.127 223.433 483.965C223.65 483.803 223.325 483.641 222.73 483.695C222.135 483.695 221.973 483.857 222.406 484.019Z" fill="#1F1F1F"/>
<path d="M354.496 484.019C354.875 484.181 355.361 484.127 355.524 483.965C355.74 483.803 355.416 483.641 354.82 483.695C354.225 483.695 354.063 483.857 354.496 484.019Z" fill="#1F1F1F"/>
<path d="M350.436 484.559C350.923 484.668 351.681 484.668 352.06 484.559C352.384 484.397 352.005 484.289 351.085 484.289C350.219 484.289 349.894 484.397 350.436 484.559Z" fill="#1F1F1F"/>
<path d="M61.1905 486.346C60.7036 486.67 60.6495 486.887 61.0282 486.887C61.3528 486.887 61.8396 486.616 62.0019 486.346C62.4347 485.697 62.2183 485.697 61.1905 486.346Z" fill="#1F1F1F"/>
<path d="M130.484 488.838C130.484 489.974 130.701 491.274 130.971 491.707C131.242 492.14 131.35 491.436 131.188 489.812C130.809 486.51 130.484 486.023 130.484 488.838Z" fill="#1F1F1F"/>
<path d="M338.363 487.968C338.796 488.239 339.446 488.51 339.717 488.51C340.042 488.51 339.879 488.239 339.446 487.968C339.013 487.698 338.417 487.427 338.093 487.427C337.822 487.427 337.93 487.698 338.363 487.968Z" fill="#1F1F1F"/>
<path d="M306.857 488.349C307.236 488.512 307.722 488.457 307.885 488.295C308.101 488.133 307.776 487.971 307.181 488.025C306.586 488.025 306.424 488.187 306.857 488.349Z" fill="#1F1F1F"/>
<path d="M7.05536 490.135C7.05536 490.405 7.32585 490.676 7.65043 490.676C7.92092 490.676 8.02912 490.405 7.86683 490.135C7.70453 489.81 7.43404 489.594 7.27175 489.594C7.16355 489.594 7.05536 489.81 7.05536 490.135Z" fill="#1F1F1F"/>
<path d="M108.559 490.135C108.397 490.405 108.451 490.676 108.776 490.676C109.046 490.676 109.479 490.405 109.641 490.135C109.803 489.81 109.749 489.594 109.425 489.594C109.154 489.594 108.721 489.81 108.559 490.135Z" fill="#1F1F1F"/>
<path d="M269.07 490.189C269.07 490.459 269.557 490.676 270.153 490.676C270.748 490.676 271.236 490.568 271.236 490.459C271.236 490.351 270.748 490.134 270.153 489.972C269.557 489.81 269.07 489.918 269.07 490.189Z" fill="#1F1F1F"/>
<path d="M50.3637 492.841C49.3893 493.491 50.2554 493.491 51.7171 492.841C52.4208 492.516 52.5291 492.354 51.9878 492.354C51.5547 492.354 50.7968 492.57 50.3637 492.841Z" fill="#1F1F1F"/>
<path d="M79.0555 492.515C79.0555 492.623 79.4886 493.056 80.03 493.435C80.842 494.139 80.8961 494.085 80.1924 493.219C79.4886 492.352 79.0555 492.082 79.0555 492.515Z" fill="#1F1F1F"/>
<path d="M24.3789 494.467C24.3789 494.737 24.7576 495.008 25.2445 495.008C25.6773 495.008 25.8936 494.737 25.7313 494.467C25.5691 494.142 25.1904 493.926 24.8658 493.926C24.5953 493.926 24.3789 494.142 24.3789 494.467Z" fill="#1F1F1F"/>
<path d="M186.784 495.006C186.297 495.33 186.243 495.547 186.622 495.547C186.947 495.547 187.433 495.276 187.596 495.006C188.029 494.357 187.812 494.357 186.784 495.006Z" fill="#1F1F1F"/>
<path d="M72.8843 496.468C72.5597 497.225 72.6138 497.279 73.1548 496.792C73.5335 496.414 73.6958 495.981 73.5335 495.818C73.3712 495.656 73.0466 495.927 72.8843 496.468Z" fill="#1F1F1F"/>
<path d="M84.3064 499.611C84.0898 500.045 84.144 500.478 84.3605 500.64C84.577 500.802 84.8477 500.423 84.8477 499.828C84.956 498.583 84.6853 498.475 84.3064 499.611Z" fill="#1F1F1F"/>
<path d="M180.559 499.936C180.343 500.261 180.289 500.585 180.451 500.748C180.559 500.91 180.83 500.64 180.992 500.153C181.371 499.233 181.046 499.071 180.559 499.936Z" fill="#1F1F1F"/>
<path d="M68.5533 500.532C68.7156 500.802 69.0943 500.856 69.3647 500.694C70.068 500.207 69.9598 500.045 69.0402 500.045C68.6074 500.045 68.391 500.261 68.5533 500.532Z" fill="#1F1F1F"/>
<path d="M85.5518 501.557C85.5518 501.827 85.8222 501.936 86.0927 501.773C86.4173 501.611 86.6337 501.341 86.6337 501.178C86.6337 501.07 86.4173 500.962 86.0927 500.962C85.8222 500.962 85.5518 501.232 85.5518 501.557Z" fill="#1F1F1F"/>
<path d="M305.341 501.181C305.341 501.289 305.72 501.56 306.207 501.722C306.64 501.884 306.856 501.83 306.694 501.506C306.369 500.965 305.341 500.748 305.341 501.181Z" fill="#1F1F1F"/>
<path d="M302.526 501.882C302.904 502.045 303.391 501.991 303.554 501.828C303.77 501.666 303.445 501.504 302.85 501.558C302.255 501.558 302.093 501.72 302.526 501.882Z" fill="#1F1F1F"/>
<path d="M257.052 502.422C257.43 502.584 257.917 502.53 258.08 502.367C258.296 502.205 257.971 502.043 257.376 502.097C256.781 502.097 256.619 502.259 257.052 502.422Z" fill="#1F1F1F"/>
<path d="M174.875 503.451C174.009 503.884 173.846 504.209 174.388 504.209C174.821 504.209 175.687 503.83 176.282 503.397C177.582 502.423 176.661 502.423 174.875 503.451Z" fill="#1F1F1F"/>
<path d="M64.0603 505.131C64.0603 505.564 64.3851 505.618 65.0889 505.239C65.6302 504.968 66.0633 504.643 66.0633 504.589C66.0633 504.481 65.6302 504.427 65.0889 504.427C64.5475 504.427 64.0603 504.752 64.0603 505.131Z" fill="#1F1F1F"/>
<path d="M210.767 505.564C210.767 505.889 211.525 506.051 212.608 505.943C213.582 505.835 214.394 505.672 214.394 505.564C214.394 505.456 213.582 505.294 212.608 505.185C211.525 505.077 210.767 505.239 210.767 505.564Z" fill="#1F1F1F"/>
<path d="M275.296 505.293C274.43 505.672 274.376 505.78 275.134 505.78C275.621 505.834 276.217 505.564 276.379 505.293C276.758 504.697 276.758 504.697 275.296 505.293Z" fill="#1F1F1F"/>
<path d="M9.49133 506.377C9.32904 506.647 9.38314 506.918 9.70772 506.918C9.97821 506.918 10.411 506.647 10.5733 506.377C10.7356 506.052 10.6815 505.836 10.3569 505.836C10.0864 505.836 9.65362 506.052 9.49133 506.377Z" fill="#1F1F1F"/>
<path d="M10.9533 507.404C10.3582 507.782 10.3582 507.89 10.9533 508.161C11.4401 508.323 11.7647 508.107 11.7647 507.674C11.7647 507.241 11.7106 506.917 11.7106 506.917C11.6565 506.917 11.3319 507.133 10.9533 507.404Z" fill="#1F1F1F"/>
<path d="M110.454 508.323C110.454 509.081 110.345 509.135 109.533 508.486C108.775 507.836 108.775 507.944 109.587 509.189C110.129 510.055 110.616 510.705 110.67 510.705C110.67 510.705 110.778 509.947 110.833 509.081C110.887 508.161 110.833 507.457 110.724 507.457C110.562 507.457 110.454 507.836 110.454 508.323Z" fill="#1F1F1F"/>
<path d="M155.277 507.838C155.656 508 156.143 507.946 156.305 507.783C156.522 507.621 156.197 507.459 155.602 507.513C155.007 507.513 154.845 507.675 155.277 507.838Z" fill="#1F1F1F"/>
<path d="M162.586 507.839C163.074 507.947 163.831 507.947 164.21 507.839C164.535 507.676 164.156 507.568 163.236 507.568C162.37 507.568 162.045 507.676 162.586 507.839Z" fill="#1F1F1F"/>
<path d="M204.703 509.406C204.703 510.001 204.866 510.163 205.028 509.73C205.19 509.351 205.136 508.865 204.974 508.702C204.812 508.486 204.649 508.81 204.703 509.406Z" fill="#1F1F1F"/>
<path d="M203.025 512.928C203.025 513.199 203.296 513.307 203.566 513.144C203.891 512.982 204.107 512.712 204.107 512.549C204.107 512.441 203.891 512.333 203.566 512.333C203.296 512.333 203.025 512.603 203.025 512.928Z" fill="#1F1F1F"/>
<path d="M113.161 515.036C113.486 515.632 113.865 516.119 114.027 516.119C114.135 516.119 114.027 515.632 113.702 515.036C113.377 514.441 112.998 513.954 112.836 513.954C112.728 513.954 112.836 514.441 113.161 515.036Z" fill="#1F1F1F"/>
<path d="M115.056 514.552C114.839 514.876 114.785 515.201 114.947 515.363C115.056 515.525 115.326 515.255 115.488 514.768C115.867 513.848 115.542 513.686 115.056 514.552Z" fill="#1F1F1F"/>
<path d="M118.033 518.612C118.033 518.937 118.467 519.586 119.008 520.074C119.874 520.832 119.928 520.832 120.036 519.532C120.091 518.504 119.982 518.341 119.603 518.883C119.17 519.532 119.062 519.532 118.575 518.829C118.304 518.395 118.033 518.287 118.033 518.612Z" fill="#1F1F1F"/>
<path d="M117.492 520.396C117.492 520.667 117.871 521.046 118.358 521.208C119.116 521.479 119.17 521.425 118.574 520.721C117.816 519.801 117.492 519.693 117.492 520.396Z" fill="#1F1F1F"/>
<path d="M124.259 526.133C124.854 526.62 125.829 527.27 126.424 527.541L127.507 528.082L126.424 527.216C125.829 526.729 124.854 526.079 124.259 525.808L123.176 525.267L124.259 526.133Z" fill="#1F1F1F"/>
<path d="M189.22 526.404C189.058 526.675 189.112 526.945 189.437 526.945C189.707 526.945 190.14 526.675 190.302 526.404C190.465 526.08 190.411 525.863 190.086 525.863C189.815 525.863 189.383 526.08 189.22 526.404Z" fill="#1F1F1F"/>
<path d="M187.868 528.031C187.868 528.302 188.138 528.572 188.463 528.572C188.733 528.572 188.841 528.302 188.679 528.031C188.517 527.707 188.246 527.49 188.084 527.49C187.976 527.49 187.868 527.707 187.868 528.031Z" fill="#1F1F1F"/>
<path d="M135.898 531.495C135.898 531.604 136.276 531.874 136.763 532.036C137.196 532.199 137.412 532.145 137.25 531.82C136.925 531.279 135.898 531.063 135.898 531.495Z" fill="#1F1F1F"/>
<path d="M177.473 533.279C177.852 533.441 178.339 533.387 178.501 533.225C178.717 533.063 178.393 532.9 177.798 532.954C177.202 532.954 177.04 533.117 177.473 533.279Z" fill="#1F1F1F"/>
<path d="M145.101 535.609C145.101 535.88 145.371 536.15 145.696 536.15C145.966 536.15 146.074 535.88 145.912 535.609C145.75 535.285 145.479 535.068 145.317 535.068C145.209 535.068 145.101 535.285 145.101 535.609Z" fill="#1F1F1F"/>
<path d="M157.552 536.366C157.552 536.474 158.039 536.691 158.634 536.853C159.23 537.016 159.609 536.908 159.392 536.637C159.122 536.15 157.552 535.933 157.552 536.366Z" fill="#1F1F1F"/>
<path d="M1190.12 772.722C1189.47 772.938 1185.47 777.161 1181.14 782.033C1167.98 796.866 1163.33 800.926 1150.22 809.046C1136.37 817.6 1132.96 820.469 1127.6 827.994C1123.21 834.165 1122.13 834.815 1117.47 834.274C1111.95 833.57 1105.29 829.997 1099.61 824.746C1098.04 823.284 1096.14 821.931 1095.39 821.768C1093.65 821.335 1090.08 823.284 1087.64 826.045C1084.72 829.401 1082.61 830.43 1076.93 831.458C1066.04 833.353 1064.42 834.274 1061.5 840.066C1058.52 846.021 1057.44 846.671 1049.32 847.374C1046.12 847.699 1042.6 848.24 1041.57 848.565C1038.06 849.81 1034.1 852.517 1028.26 857.714C1018.3 866.538 1014.07 868.704 1001.79 871.519C991.824 873.792 985.869 875.525 982.08 877.365C978.074 879.314 968.763 886.135 968.763 887.11C968.763 887.543 970.766 887.868 975.53 888.084C979.265 888.301 983.054 888.68 983.921 888.95C984.841 889.275 989.497 891.495 994.206 893.931L1002.87 898.37L1016.4 899.94C1023.87 900.806 1032.97 901.889 1036.7 902.376C1046.99 903.729 1065.5 904.054 1072.16 903.025C1084.61 901.077 1092.79 897.666 1102.64 890.249C1111.25 883.807 1115.2 881.967 1126.13 879.314C1139.67 876.066 1142.75 875.092 1146.71 873.034C1150.01 871.302 1152.06 869.678 1162.89 860.475C1168.2 855.982 1172.04 854.412 1179.62 853.654C1187.85 852.896 1188.88 852.301 1192.07 846.292C1194.34 842.123 1194.78 841.636 1197.48 840.283C1199.43 839.308 1202.36 838.496 1205.98 838.009C1212.7 836.98 1214.05 836.385 1218.6 832C1224.12 826.749 1225.26 826.749 1231.05 831.892C1233.16 833.786 1235.97 835.898 1237.27 836.601L1239.66 837.901L1241.06 836.601C1242.8 834.977 1242.74 834.707 1241.01 834.544C1239.06 834.382 1236.19 832.541 1234.62 830.484C1233.92 829.51 1232.73 826.749 1231.97 824.313C1230.83 820.794 1229.86 818.953 1227.15 815.543C1223.31 810.671 1222.22 808.668 1219.46 801.413C1217.03 794.917 1214.81 791.507 1211.02 788.583C1205.12 783.928 1204.63 783.44 1204.25 780.68C1203.93 778.731 1203.44 777.756 1201.92 776.457C1198.62 773.534 1192.67 771.639 1190.12 772.722Z" fill="#1F1F1F"/>
</g>
<defs>
<clipPath id="clip0_87_794">
<rect width="1440" height="928" fill="white"/>
</clipPath>
</defs>
</svg>
