<svg width="75" height="75" viewBox="0 0 75 75" fill="none" xmlns="http://www.w3.org/2000/svg">
<path d="M73.8729 2.73051C72.4771 0.384562 69.1728 0.144962 67.4529 2.26444L38.7568 37.6431C38.0544 38.5088 36.7193 38.4612 36.0801 37.5488L29.2023 27.7268C26.8621 24.3847 21.9905 24.1698 19.3648 27.2911C17.5538 29.4442 17.4168 32.5451 19.03 34.8492L33.1081 54.9542C34.8214 57.4011 38.4474 57.397 40.155 54.9452L44.1962 49.1439L73.7145 6.9875C74.5999 5.72304 74.6614 4.05733 73.8729 2.73051Z" fill="#33DA76"/>
<path d="M37.4998 74.4254C17.1396 74.4254 0.575195 57.861 0.575195 37.5008C0.575195 17.1406 17.1396 0.576172 37.4998 0.576172C42.4822 0.576172 47.3193 1.55262 51.8742 3.47927C53.5431 4.18576 54.3243 6.11158 53.6178 7.78057C52.913 9.45039 50.9863 10.2315 49.3165 9.52506C45.5756 7.94304 41.5993 7.14055 37.4998 7.14055C20.759 7.14055 7.13957 20.76 7.13957 37.5008C7.13957 54.2416 20.759 67.861 37.4998 67.861C54.2406 67.861 67.86 54.2416 67.86 37.5008C67.86 34.8356 67.5154 32.1927 66.8352 29.6457C66.3675 27.8946 67.4079 26.0952 69.159 25.6275C70.9092 25.1589 72.7087 26.2002 73.1764 27.9521C74.0043 31.0513 74.4244 34.2637 74.4244 37.5008C74.4244 57.861 57.86 74.4254 37.4998 74.4254Z" fill="#33DA76"/>
</svg>
