<svg width="24" height="24" viewBox="0 0 24 24" fill="none" xmlns="http://www.w3.org/2000/svg">
<path d="M18.5624 13.4445H4.67054C4.33636 13.4445 4.06525 13.1594 4.06525 12.8073C4.06525 12.4553 4.33636 12.1702 4.67054 12.1702L18.5624 12.1699C18.8966 12.1699 19.1677 12.455 19.1677 12.807C19.168 13.1594 18.8966 13.4445 18.5624 13.4445Z" fill="#3DA039"/>
<path d="M14.8996 17.9936C14.7417 17.9936 14.5843 17.929 14.4658 17.8006C14.2324 17.5482 14.238 17.1452 14.4776 16.8995L18.4962 12.7843L14.4531 8.13976C14.2268 7.88017 14.2437 7.47715 14.4903 7.23951C14.7363 7.00244 15.1206 7.01904 15.3456 7.27892L19.7856 12.3794C20.0071 12.6334 19.9959 13.0263 19.7614 13.2663L15.3216 17.8131C15.2042 17.9337 15.0516 17.9935 14.8996 17.9935L14.8996 17.9936Z" fill="#3DA039"/>
</svg>
