<svg width="24" height="24" viewBox="0 0 24 24" fill="none" xmlns="http://www.w3.org/2000/svg">
<path d="M18.5625 13.4445H4.6706C4.33642 13.4445 4.06531 13.1594 4.06531 12.8073C4.06531 12.4553 4.33642 12.1702 4.6706 12.1702L18.5625 12.1699C18.8967 12.1699 19.1678 12.455 19.1678 12.807C19.1681 13.1594 18.8967 13.4445 18.5625 13.4445V13.4445Z" fill="#1A1A1C"/>
<path d="M14.8997 17.9936C14.7418 17.9936 14.5844 17.929 14.4659 17.8006C14.2325 17.5482 14.2381 17.1452 14.4777 16.8995L18.4963 12.7843L14.4532 8.13976C14.2268 7.88017 14.2437 7.47715 14.4903 7.23951C14.7364 7.00244 15.1207 7.01904 15.3456 7.27892L19.7856 12.3794C20.0072 12.6334 19.9959 13.0263 19.7614 13.2663L15.3216 17.8131C15.2042 17.9337 15.0516 17.9935 14.8996 17.9935L14.8997 17.9936Z" fill="#1A1A1C"/>
</svg>
