<svg width="20" height="20" viewBox="0 0 20 20" fill="none" xmlns="http://www.w3.org/2000/svg">
<path fill-rule="evenodd" clip-rule="evenodd" d="M3.33329 3.33398H16.6666C17.5833 3.33398 18.3333 4.08398 18.3333 5.00065V15.0007C18.3333 15.9173 17.5833 16.6673 16.6666 16.6673H3.33329C2.41663 16.6673 1.66663 15.9173 1.66663 15.0007L1.67496 5.00065C1.67496 4.08398 2.41663 3.33398 3.33329 3.33398ZM10.4416 10.559L16.3333 6.87565C16.5416 6.74232 16.6666 6.51732 16.6666 6.27565C16.6666 5.71732 16.0583 5.38398 15.5833 5.67565L9.99996 9.16732L4.41663 5.67565C3.94163 5.38398 3.33329 5.71732 3.33329 6.27565C3.33329 6.51732 3.45829 6.74232 3.66663 6.87565L9.55829 10.559C9.82496 10.7257 10.175 10.7257 10.4416 10.559Z" fill="white"/>
</svg>
