<svg width="20" height="20" viewBox="0 0 20 20" fill="none" xmlns="http://www.w3.org/2000/svg">
<path fill-rule="evenodd" clip-rule="evenodd" d="M4 7.83333C4 4.60833 6.60833 2 9.83333 2C13.0583 2 15.6667 4.60833 15.6667 7.83333C15.6667 11.3083 11.9833 16.1 10.475 17.925C10.1417 18.325 9.53333 18.325 9.2 17.925C7.68333 16.1 4 11.3083 4 7.83333ZM7.75 7.83333C7.75 8.98333 8.68333 9.91667 9.83333 9.91667C10.9833 9.91667 11.9167 8.98333 11.9167 7.83333C11.9167 6.68333 10.9833 5.75 9.83333 5.75C8.68333 5.75 7.75 6.68333 7.75 7.83333Z" fill="#1F1F1F"/>
</svg>
