<svg width="20" height="20" viewBox="0 0 20 20" fill="none" xmlns="http://www.w3.org/2000/svg">
<path fill-rule="evenodd" clip-rule="evenodd" d="M4.16669 7.72005C4.16669 4.49505 6.77502 1.88672 10 1.88672C13.225 1.88672 15.8334 4.49505 15.8334 7.72005C15.8334 11.1951 12.15 15.9867 10.6417 17.8117C10.3084 18.2117 9.70002 18.2117 9.36669 17.8117C7.85002 15.9867 4.16669 11.1951 4.16669 7.72005ZM7.91669 7.72005C7.91669 8.87005 8.85002 9.80339 10 9.80339C11.15 9.80339 12.0834 8.87005 12.0834 7.72005C12.0834 6.57005 11.15 5.63672 10 5.63672C8.85002 5.63672 7.91669 6.57005 7.91669 7.72005Z" fill="white"/>
</svg>
