<svg width="49" height="72" viewBox="0 0 49 72" fill="none" xmlns="http://www.w3.org/2000/svg">
<rect width="48.24" height="72" rx="24.12" fill="#1A1A1C"/>
<path d="M27.7567 24.1557V24.5304C27.7568 24.5839 27.7675 24.6369 27.7881 24.6862C27.8087 24.7355 27.839 24.7802 27.877 24.8178C27.915 24.8553 27.9601 24.8849 28.0096 24.9049C28.0592 24.9249 28.1122 24.9348 28.1656 24.9342C28.2097 24.9336 28.2535 24.9419 28.2944 24.9584C28.3353 24.975 28.3725 24.9995 28.4039 25.0305C28.4353 25.0616 28.4602 25.0986 28.4772 25.1394C28.4942 25.1801 28.503 25.2239 28.503 25.268V25.6723C22.6225 26.7768 18.3127 24.489 13.424 28.7721C9.34111 32.3494 9.85147 35.4156 9.85147 41.5482L15.8953 41.5675C15.9758 35.9267 18.5277 32.8604 24.1417 32.8604C24.1417 35.4156 24.1984 38.0044 24.1984 41.5675H30.1288C30.1288 38.7766 29.9785 36.5956 31.4489 34.0194C32.9636 31.844 35.7099 30.9094 37.3294 28.8669C38.429 27.4803 38.4318 26.6961 38.4318 23.752H28.1605C28.1075 23.7519 28.055 23.7623 28.006 23.7825C27.957 23.8028 27.9125 23.8325 27.875 23.87C27.8375 23.9075 27.8078 23.952 27.7875 24.001C27.7672 24.0501 27.7567 24.1026 27.7567 24.1557Z" fill="white"/>
<path d="M35.993 32.8574C33.4202 35.0657 32.501 36.412 32.501 41.5645H36.0593C36.0593 39.0978 35.993 35.8016 35.993 32.8574Z" fill="white"/>
<path d="M18.2549 41.5632H21.8274V34.9004C19.038 35.9225 18.2549 37.8826 18.2549 41.5632Z" fill="white"/>
<path d="M23.4206 13.3806L24.1374 12.0684L24.8542 13.3806C25.3193 14.2323 26.0185 14.9326 26.869 15.3987L28.1795 16.1164L26.869 16.8341C26.0184 17.3004 25.319 18.0009 24.8536 18.8527L24.1368 20.165L23.42 18.8527C22.9546 18.0009 22.2552 17.3004 21.4047 16.8341L20.0947 16.1164L21.4052 15.3987C22.2559 14.9327 22.9553 14.2324 23.4206 13.3806Z" fill="white"/>
<path d="M38.1479 43.418L32.2435 54.8267L29.2959 50.5016L24.0987 59.9326L18.6741 50.5016L15.1764 54.8267L9.84766 43.418H38.1479Z" fill="white"/>
</svg>
