<svg width="20" height="20" viewBox="0 0 20 20" fill="none" xmlns="http://www.w3.org/2000/svg">
<path d="M16.5031 13.1543L14.3864 12.9139C13.8781 12.8559 13.3781 13.0299 13.0197 13.3864L11.4864 14.9116C9.12806 13.7179 7.19473 11.8031 5.99473 9.44901L7.53639 7.9155C7.89473 7.55907 8.06973 7.06171 8.01139 6.55607L7.76973 4.46719C7.66973 3.62998 6.96139 3 6.11139 3H4.66973C3.72806 3 2.94473 3.77919 3.00306 4.71587C3.44473 11.7949 9.1364 17.4481 16.2447 17.8874C17.1864 17.9454 17.9697 17.1663 17.9697 16.2296V14.7955C17.9781 13.9583 17.3447 13.2538 16.5031 13.1543Z" fill="white"/>
</svg>
