<svg width="18" height="18" viewBox="0 0 18 18" fill="none" xmlns="http://www.w3.org/2000/svg">
<rect x="4" y="2" width="9" height="13" rx="4.5" fill="#1A1A1C"/>
<path d="M9.17873 6.36V6.42767C9.17874 6.43733 9.18073 6.44688 9.18459 6.45579C9.18844 6.46469 9.19407 6.47277 9.20117 6.47955C9.20826 6.48633 9.21668 6.49168 9.22592 6.49528C9.23516 6.49889 9.24505 6.50069 9.25501 6.50056V6.50056C9.26325 6.50047 9.27141 6.50196 9.27905 6.50495C9.28668 6.50793 9.29363 6.51236 9.29948 6.51797C9.30534 6.52357 9.30999 6.53025 9.31316 6.53761C9.31633 6.54497 9.31797 6.55287 9.31797 6.56085V6.63385C8.2208 6.83325 7.41671 6.42019 6.50459 7.19352C5.74282 7.83942 5.83804 8.39305 5.83804 9.50031L6.96567 9.5038C6.9807 8.48533 7.45681 7.9317 8.50424 7.9317C8.50424 8.39305 8.51482 8.86046 8.51482 9.5038H9.6213C9.6213 8.99989 9.59326 8.6061 9.86761 8.14095C10.1502 7.74818 10.6626 7.57942 10.9648 7.21065C11.1699 6.96028 11.1704 6.8187 11.1704 6.28711H9.25406C9.24417 6.2871 9.23438 6.28897 9.22524 6.29263C9.2161 6.29629 9.2078 6.30165 9.2008 6.30842C9.1938 6.31519 9.18825 6.32323 9.18447 6.33208C9.18068 6.34094 9.17873 6.35042 9.17873 6.36Z" fill="white"/>
<path d="M10.7155 7.92969C10.2355 8.3284 10.064 8.57149 10.064 9.50179H10.7279C10.7279 9.05643 10.7155 8.46127 10.7155 7.92969Z" fill="white"/>
<path d="M7.40601 9.5038H8.07256V8.30078C7.55212 8.48532 7.40601 8.83924 7.40601 9.5038Z" fill="white"/>
<path d="M8.36955 4.41467L8.50328 4.17773L8.63702 4.41467C8.72381 4.56844 8.85426 4.69489 9.01293 4.77904L9.25744 4.90863L9.01293 5.03822C8.85424 5.12241 8.72376 5.24889 8.63691 5.40269L8.50318 5.63962L8.36945 5.40269C8.2826 5.24889 8.15212 5.12241 7.99343 5.03822L7.74902 4.90863L7.99353 4.77904C8.15224 4.69491 8.28273 4.56846 8.36955 4.41467V4.41467Z" fill="white"/>
<path d="M11.1175 9.83594L10.0159 11.8958L9.46598 11.1149L8.49631 12.8177L7.48421 11.1149L6.83162 11.8958L5.8374 9.83594H11.1175Z" fill="white"/>
</svg>
