<svg width="209" height="77" viewBox="0 0 209 77" fill="none" xmlns="http://www.w3.org/2000/svg">
<g clip-path="url(#clip0_491_2012)">
<path d="M50.3187 53.1041V50.1173C50.3187 49.3873 50.3187 48.5244 50.4514 47.5288C50.9159 47.4625 51.3141 47.4625 51.6458 47.4625C53.9019 47.4625 55.0964 48.4581 55.0964 50.1837C55.0964 52.1085 53.7029 53.1704 50.9823 53.1704C50.7832 53.1041 50.5841 53.1041 50.3187 53.1041ZM50.3187 56.0244V53.8342H50.7832C52.6412 56.0244 54.3001 58.3474 55.6936 60.7368C56.1581 60.6704 56.6889 60.6041 57.1534 60.6041C57.6179 60.6041 58.1487 60.6704 58.6796 60.7368C56.6226 58.1483 54.8309 55.7589 53.172 53.5687C55.8263 53.1041 57.2198 51.7766 57.2198 49.9182C57.2198 47.7943 55.6936 46.666 52.7739 46.666C51.9113 46.666 50.8496 46.7988 49.6551 46.7988C49.1907 46.7988 48.7262 46.7988 48.2617 46.7324C48.3944 48.458 48.4607 50.3165 48.4607 52.374C48.4607 55.2943 48.3944 58.0819 48.1953 60.8032C48.5934 60.7368 48.9252 60.6704 49.3234 60.6704C49.7215 60.6704 50.0533 60.6704 50.4514 60.8032C50.3851 59.0111 50.3187 57.4846 50.3187 56.0244Z" fill="#607D8D"/>
<path d="M65.4472 60.6704C66.8407 60.604 68.1678 60.604 69.4286 60.604C70.6894 60.604 71.9501 60.604 73.0782 60.6704C73.0118 60.4713 73.0118 60.2058 73.0118 59.9403C73.0118 59.6748 73.0118 59.4757 73.0782 59.2102C71.9501 59.4094 70.8221 59.5421 69.694 59.5421H67.836C67.7697 57.8828 67.7697 56.6217 67.7697 55.8917V53.7014H69.7604C70.3576 53.7014 71.3529 53.7678 72.68 53.8341C72.68 53.5686 72.6137 53.3032 72.6137 53.104C72.6137 52.9049 72.6137 52.6394 72.68 52.5067C71.6183 52.6394 70.6894 52.7058 69.8267 52.7058H67.7697V50.5819C67.7697 50.1837 67.7697 49.2545 67.7697 47.7279H69.5613C70.8221 47.7279 71.9501 47.8607 72.9455 48.0598C72.8791 47.7943 72.8791 47.5288 72.8791 47.3297C72.8791 47.0642 72.8791 46.8651 72.9455 46.5996C71.8174 46.666 70.5566 46.666 69.2959 46.666C68.0351 46.666 66.7743 46.666 65.3809 46.5996C65.5799 48.6571 65.6463 51.0465 65.6463 53.635C65.6463 56.2235 65.6463 58.6129 65.4472 60.6704Z" fill="#607D8D"/>
<path d="M81.2392 60.6684C81.6373 60.602 81.9691 60.5357 82.3673 60.5357C82.7654 60.5357 83.0972 60.5357 83.4953 60.6684C83.429 58.7436 83.3626 57.1507 83.3626 56.0224V54.2967C83.9598 54.2967 84.4243 54.2967 84.8888 54.2967C88.3393 54.2967 90.3964 52.7038 90.3964 50.1817C90.3964 47.8587 88.8038 46.5312 85.8178 46.5312C84.8888 46.5312 83.8271 46.664 82.6327 46.664C82.1682 46.664 81.7037 46.664 81.1729 46.5976C81.3056 48.1905 81.3719 50.1153 81.3719 52.3056C81.5046 55.1596 81.3719 57.9472 81.2392 60.6684ZM83.429 53.5003V50.3144C83.429 49.7835 83.429 48.8543 83.5617 47.5268C84.2252 47.4605 84.6897 47.4605 84.9552 47.4605C87.0786 47.4605 88.273 48.5224 88.273 50.3144C88.273 52.4383 86.8795 53.5666 84.0925 53.5666C83.8935 53.5003 83.628 53.5003 83.429 53.5003Z" fill="#607D8D"/>
<path d="M104.531 60.9319C109.375 60.9319 112.162 58.2106 112.162 53.631C112.162 49.0513 109.375 46.3301 104.531 46.3301C99.7537 46.3301 96.9004 49.1177 96.9004 53.631C96.9004 58.1442 99.7537 60.9319 104.531 60.9319ZM104.531 47.2593C107.982 47.2593 109.906 49.5159 109.906 53.631C109.906 57.746 107.982 60.0027 104.531 60.0027C101.081 60.0027 99.1565 57.746 99.1565 53.4982C99.2229 49.5823 101.147 47.2593 104.531 47.2593Z" fill="#607D8D"/>
<path d="M121.584 53.1041V50.1173C121.584 49.3873 121.584 48.5244 121.717 47.5288C122.182 47.4625 122.58 47.4625 122.911 47.4625C125.168 47.4625 126.362 48.4581 126.362 50.1837C126.362 52.1085 124.969 53.1704 122.248 53.1704C122.049 53.1041 121.85 53.1041 121.584 53.1041ZM121.584 56.0244V53.8342H122.049C123.907 56.0244 125.566 58.3474 126.959 60.7368C127.424 60.6704 127.955 60.6041 128.419 60.6041C128.884 60.6041 129.414 60.6704 129.945 60.7368C127.888 58.1483 126.097 55.7589 124.438 53.5687C127.092 53.1041 128.485 51.7766 128.485 49.9182C128.485 47.7943 126.959 46.666 124.04 46.666C123.177 46.666 122.115 46.7988 120.921 46.7988C120.456 46.7988 119.992 46.7988 119.527 46.7324C119.66 48.458 119.726 50.3165 119.726 52.374C119.726 55.2943 119.66 58.0819 119.461 60.8032C119.859 60.7368 120.191 60.6704 120.589 60.6704C120.987 60.6704 121.319 60.6704 121.717 60.8032C121.651 59.0111 121.584 57.4846 121.584 56.0244Z" fill="#607D8D"/>
<path d="M139.5 47.7943C139.566 49.3209 139.566 50.5819 139.566 51.7102C139.566 55.6925 139.5 58.6793 139.301 60.6704C139.699 60.604 140.097 60.5377 140.495 60.5377C140.893 60.5377 141.291 60.5377 141.689 60.6704C141.49 58.9448 141.424 55.4271 141.424 50.1173C141.424 49.4536 141.49 48.6571 141.557 47.7279H142.685C143.348 47.7279 144.344 47.8607 145.804 48.0598C145.737 47.7943 145.737 47.5952 145.737 47.3297C145.737 47.0642 145.804 46.8651 145.804 46.5996C143.746 46.7324 141.955 46.7324 140.495 46.7324C139.301 46.7324 137.509 46.666 135.187 46.5996C135.253 46.7987 135.319 47.0642 135.319 47.3297C135.319 47.5952 135.253 47.7943 135.187 48.0598C136.58 47.8607 137.642 47.7943 138.173 47.7943H139.5Z" fill="#607D8D"/>
<path d="M152.573 57.6153C152.507 58.4117 152.374 59.1418 152.175 59.8055C153.104 60.602 154.365 61.0002 155.891 61.0002C158.943 61.0002 161 58.9427 161 56.3542C161 54.0976 159.673 53.3011 157.085 52.3055C155.161 51.5754 154.099 51.0445 154.099 49.5179C154.099 48.0577 155.094 47.1285 156.687 47.1285C158.28 47.1285 159.209 47.8586 159.474 49.2524H159.673C159.806 48.5887 160.005 47.925 160.337 47.2613C159.872 46.9958 158.744 46.3984 156.886 46.3984C154.099 46.3984 152.44 47.925 152.44 50.3807C152.44 52.5046 153.635 53.3011 156.09 54.2303C158.081 55.0268 159.209 55.5577 159.209 57.2834C159.209 58.9427 158.081 60.071 156.156 60.071C154.564 60.071 153.303 59.2082 152.706 57.6153H152.573Z" fill="#607D8D"/>
<path d="M58.1478 37.1726C65.1153 37.1726 69.2293 33.2566 69.2293 26.6195C69.2293 19.9823 65.1816 16 58.1478 16C51.1804 16 47 20.115 47 26.6195C47 33.0575 51.1804 37.1726 58.1478 37.1726ZM58.0815 17.3274C63.0582 17.3274 65.8452 20.646 65.8452 26.6195C65.8452 32.5929 63.0582 35.9115 58.0815 35.9115C53.1048 35.8451 50.3178 32.5929 50.3178 26.4204C50.3178 20.646 53.1711 17.3274 58.0815 17.3274Z" fill="#74BA23"/>
<path d="M78.7184 25.7607V21.4465C78.7184 20.3846 78.7184 19.1235 78.9175 17.6633C79.5147 17.597 80.1119 17.5306 80.7091 17.5306C84.0269 17.5306 85.7522 18.9908 85.7522 21.4465C85.7522 24.2341 83.6951 25.7607 79.7801 25.7607C79.382 25.7607 79.0502 25.7607 78.7184 25.7607ZM78.7184 30.0748V26.8226H79.4483C82.1689 30.0085 84.5578 33.3271 86.6148 36.7784C87.3447 36.712 88.0083 36.6456 88.7382 36.6456C89.4681 36.6456 90.198 36.712 90.9279 36.7784C87.9419 32.9952 85.2877 29.5439 82.8988 26.358C86.7475 25.6943 88.7382 23.7695 88.7382 21.0483C88.7382 17.9952 86.4821 16.2695 82.2353 16.2695C80.9745 16.2695 79.4483 16.4023 77.7231 16.4023C77.0595 16.4023 76.3959 16.4023 75.666 16.3359C75.8651 18.7917 75.9978 21.5129 75.9978 24.4996C75.9978 28.7474 75.8651 32.7961 75.666 36.7784C76.2632 36.6456 76.7941 36.6456 77.3249 36.6456C77.8558 36.6456 78.453 36.6456 78.9838 36.7784C78.7848 34.389 78.7184 32.1324 78.7184 30.0748Z" fill="#74BA23"/>
<path d="M95.6387 36.7765C96.2359 36.6438 96.8331 36.6438 97.4303 36.6438C98.0275 36.6438 98.6247 36.6438 99.2219 36.7765C98.9565 33.7898 98.8901 30.4048 98.8901 26.6216C98.8901 22.8384 98.9565 19.4535 99.2219 16.4004C98.6247 16.4668 98.0275 16.5331 97.4303 16.5331C96.8331 16.5331 96.2359 16.4668 95.6387 16.4004C95.9705 19.3871 96.0368 22.8384 96.0368 26.6216C96.0368 30.4048 95.9041 33.7898 95.6387 36.7765Z" fill="#74BA23"/>
<path d="M125.101 35.9798C125.035 34.586 124.969 33.1922 124.969 31.7984C124.969 30.4046 125.035 28.9444 125.101 27.4842C124.504 27.617 123.907 27.6833 123.31 27.6833C122.779 27.6833 122.248 27.617 121.717 27.5506C121.85 29.0108 121.916 30.4046 121.916 31.7984C121.916 32.794 121.916 33.7232 121.85 34.7187C120.324 35.4488 118.798 35.7807 117.139 35.7807C112.029 35.7807 108.911 32.263 108.911 26.3559C108.911 20.7807 112.228 17.1966 116.94 17.1966C119.926 17.1966 122.049 18.3913 123.509 20.5816H123.973C123.973 19.586 124.239 18.5904 124.77 17.7276C122.713 16.5329 120.125 15.9355 117.139 15.9355C110.105 16.0019 105.593 20.1833 105.593 26.555C105.593 33.2586 109.707 37.2409 116.873 37.2409C119.461 37.1745 122.182 36.8426 125.101 35.9798Z" fill="#74BA23"/>
<path d="M131.671 36.7765C132.268 36.6438 132.865 36.6438 133.463 36.6438C134.06 36.6438 134.657 36.6438 135.254 36.7765C134.989 33.7898 134.922 30.4048 134.922 26.6216C134.922 22.8384 134.989 19.4535 135.254 16.4004C134.657 16.4668 134.06 16.5331 133.463 16.5331C132.865 16.5331 132.268 16.4668 131.671 16.4004C132.003 19.3871 132.069 22.8384 132.069 26.6216C132.069 30.4048 131.936 33.7898 131.671 36.7765Z" fill="#74BA23"/>
<path d="M142.686 36.8407C143.084 36.7743 143.482 36.708 143.88 36.708C144.278 36.708 144.743 36.7743 145.141 36.8407C144.875 34.6504 144.743 32.1947 144.743 29.5398V21.3761L153.435 30.6018C155.492 32.792 157.417 34.9159 159.142 37.1726H160.137C160.071 35.0487 160.071 33.5885 160.071 32.6593C160.071 23.8319 160.27 18.3894 160.602 16.3982C160.27 16.4646 159.872 16.4646 159.407 16.4646C159.009 16.4646 158.611 16.4646 158.213 16.3982C158.478 19.1858 158.545 21.5752 158.545 23.5664V31.7301C153.767 26.7522 148.989 21.5088 144.212 16H143.15C143.216 17.6593 143.216 19.1858 143.216 20.5133C143.15 28.5442 142.951 33.9867 142.686 36.8407Z" fill="#74BA23"/>
</g>
<defs>
<clipPath id="clip0_491_2012">
<rect width="114" height="45" fill="white" transform="translate(47 16)"/>
</clipPath>
</defs>
</svg>
