<svg width="140" height="54" viewBox="0 0 140 54" fill="none" xmlns="http://www.w3.org/2000/svg">
<g clip-path="url(#clip0_483_2712)">
<path d="M4.07448 44.1958V40.6383C4.07448 39.7686 4.07448 38.7409 4.23746 37.5551C4.80789 37.476 5.29683 37.476 5.70428 37.476C8.47495 37.476 9.94177 38.6619 9.94177 40.7173C9.94177 43.0099 8.23047 44.2748 4.88938 44.2748C4.64491 44.1958 4.40044 44.1958 4.07448 44.1958ZM4.07448 47.6742V45.0654H4.64491C6.92663 47.6742 8.96389 50.4412 10.6752 53.2872C11.2456 53.2082 11.8975 53.1291 12.468 53.1291C13.0384 53.1291 13.6903 53.2082 14.3422 53.2872C11.816 50.204 9.61581 47.358 7.57855 44.7492C10.8382 44.1958 12.5494 42.6147 12.5494 40.4011C12.5494 37.8713 10.6752 36.5273 7.08961 36.5273C6.03024 36.5273 4.7264 36.6855 3.25958 36.6855C2.68915 36.6855 2.11872 36.6855 1.54829 36.6064C1.71127 38.6619 1.79276 40.8754 1.79276 43.3262C1.79276 46.8046 1.71127 50.125 1.4668 53.3663C1.95574 53.2872 2.36319 53.2082 2.85213 53.2082C3.34107 53.2082 3.74852 53.2082 4.23746 53.3663C4.15597 51.2318 4.07448 49.4135 4.07448 47.6742Z" fill="#607D8D"/>
<path d="M22.6542 53.2072C24.3655 53.1281 25.9953 53.1281 27.5437 53.1281C29.092 53.1281 30.6403 53.1281 32.0256 53.2072C31.9441 52.97 31.9441 52.6538 31.9441 52.3375C31.9441 52.0213 31.9441 51.7841 32.0256 51.4679C30.6403 51.7051 29.2549 51.8632 27.8696 51.8632H25.5879C25.5064 49.8868 25.5064 48.3847 25.5064 47.5151V44.9063H27.9511C28.6845 44.9063 29.9069 44.9853 31.5367 45.0644C31.5367 44.7482 31.4552 44.4319 31.4552 44.1948C31.4552 43.9576 31.4552 43.6414 31.5367 43.4833C30.2328 43.6414 29.092 43.7204 28.0326 43.7204H25.5064V41.1906C25.5064 40.7163 25.5064 39.6095 25.5064 37.7912H27.7066C29.2549 37.7912 30.6403 37.9493 31.8626 38.1865C31.7811 37.8703 31.7811 37.5541 31.7811 37.3169C31.7811 37.0007 31.7811 36.7635 31.8626 36.4473C30.4773 36.5263 28.929 36.5263 27.3807 36.5263C25.8324 36.5263 24.284 36.5263 22.5728 36.4473C22.8172 38.898 22.8987 41.744 22.8987 44.8272C22.8987 47.9104 22.8987 50.7564 22.6542 53.2072Z" fill="#607D8D"/>
<path d="M42.0488 53.2061C42.5377 53.1271 42.9452 53.048 43.4341 53.048C43.923 53.048 44.3305 53.048 44.8194 53.2061C44.7379 50.9135 44.6565 49.0162 44.6565 47.6722V45.6167C45.3899 45.6167 45.9603 45.6167 46.5307 45.6167C50.7682 45.6167 53.2944 43.7194 53.2944 40.7153C53.2944 37.9483 51.3386 36.3672 47.6716 36.3672C46.5307 36.3672 45.2269 36.5253 43.7601 36.5253C43.1896 36.5253 42.6192 36.5253 41.9673 36.4462C42.1303 38.3436 42.2118 40.6362 42.2118 43.2451C42.3747 46.6445 42.2118 49.9648 42.0488 53.2061ZM44.738 44.6681V40.8734C44.738 40.2409 44.7379 39.1342 44.9009 37.553C45.7158 37.474 46.2863 37.474 46.6122 37.474C49.2199 37.474 50.6867 38.7389 50.6867 40.8734C50.6867 43.4032 48.9754 44.7471 45.5529 44.7471C45.3084 44.6681 44.9824 44.6681 44.738 44.6681Z" fill="#607D8D"/>
<path d="M70.6519 53.5212C76.6007 53.5212 80.0232 50.2799 80.0232 44.8251C80.0232 39.3702 76.6007 36.1289 70.6519 36.1289C64.7846 36.1289 61.2805 39.4493 61.2805 44.8251C61.2805 50.2009 64.7846 53.5212 70.6519 53.5212ZM70.6519 37.2357C74.8894 37.2357 77.2526 39.9236 77.2526 44.8251C77.2526 49.7266 74.8894 52.4145 70.6519 52.4145C66.4144 52.4145 64.0512 49.7266 64.0512 44.667C64.1327 40.0027 66.4959 37.2357 70.6519 37.2357Z" fill="#607D8D"/>
<path d="M91.595 44.1958V40.6383C91.595 39.7686 91.595 38.7409 91.758 37.5551C92.3284 37.476 92.8173 37.476 93.2248 37.476C95.9955 37.476 97.4623 38.6619 97.4623 40.7173C97.4623 43.0099 95.751 44.2748 92.4099 44.2748C92.1654 44.1958 91.921 44.1958 91.595 44.1958ZM91.595 47.6742V45.0654H92.1654C94.4471 47.6742 96.4844 50.4412 98.1957 53.2872C98.7661 53.2082 99.418 53.1291 99.9885 53.1291C100.559 53.1291 101.211 53.2082 101.863 53.2872C99.3366 50.204 97.1363 47.358 95.0991 44.7492C98.3587 44.1958 100.07 42.6147 100.07 40.4011C100.07 37.8713 98.1957 36.5273 94.6101 36.5273C93.5508 36.5273 92.2469 36.6855 90.7801 36.6855C90.2097 36.6855 89.6392 36.6855 89.0688 36.6064C89.2318 38.6619 89.3133 40.8754 89.3133 43.3262C89.3133 46.8046 89.2318 50.125 88.9873 53.3663C89.4762 53.2872 89.8837 53.2082 90.3726 53.2082C90.8616 53.2082 91.269 53.2082 91.758 53.3663C91.6765 51.2318 91.595 49.4135 91.595 47.6742Z" fill="#607D8D"/>
<path d="M113.597 37.8703C113.679 39.6886 113.679 41.1906 113.679 42.5346C113.679 47.2779 113.597 50.8355 113.353 53.2072C113.842 53.1281 114.331 53.049 114.82 53.049C115.308 53.049 115.797 53.049 116.286 53.2072C116.042 51.1517 115.96 46.9617 115.96 40.6372C115.96 39.8467 116.042 38.898 116.123 37.7912H117.509C118.324 37.7912 119.546 37.9493 121.339 38.1865C121.257 37.8703 121.257 37.6331 121.257 37.3169C121.257 37.0007 121.339 36.7635 121.339 36.4473C118.813 36.6054 116.612 36.6054 114.82 36.6054C113.353 36.6054 111.152 36.5263 108.3 36.4473C108.382 36.6844 108.463 37.0007 108.463 37.3169C108.463 37.6331 108.382 37.8703 108.3 38.1865C110.012 37.9493 111.315 37.8703 111.967 37.8703H113.597Z" fill="#607D8D"/>
<path d="M129.65 49.5695C129.569 50.5181 129.406 51.3877 129.161 52.1783C130.302 53.127 131.851 53.6013 133.725 53.6013C137.473 53.6013 140 51.1506 140 48.0674C140 45.3795 138.37 44.4308 135.192 43.245C132.828 42.3754 131.525 41.7429 131.525 39.9246C131.525 38.1854 132.747 37.0786 134.703 37.0786C136.658 37.0786 137.799 37.9482 138.125 39.6084H138.37C138.533 38.8178 138.777 38.0273 139.185 37.2367C138.614 36.9205 137.229 36.209 134.947 36.209C131.525 36.209 129.487 38.0273 129.487 40.9523C129.487 43.4821 130.954 44.4308 133.969 45.5376C136.414 46.4863 137.799 47.1187 137.799 49.1742C137.799 51.1506 136.414 52.4945 134.051 52.4945C132.095 52.4945 130.547 51.4668 129.813 49.5695H129.65Z" fill="#607D8D"/>
<path d="M13.6903 25.2189C22.2468 25.2189 27.2992 20.5546 27.2992 12.649C27.2992 4.74336 22.3283 0 13.6903 0C5.13388 0 0 4.90147 0 12.649C0 20.3174 5.13388 25.2189 13.6903 25.2189ZM13.6088 1.58112C19.7206 1.58112 23.1432 5.53392 23.1432 12.649C23.1432 19.764 19.7206 23.7168 13.6088 23.7168C7.49709 23.6378 4.07451 19.764 4.07451 12.4118C4.07451 5.53392 7.57858 1.58112 13.6088 1.58112Z" fill="#74BA23"/>
<path d="M38.9522 11.6253V6.48668C38.9522 5.22179 38.9522 3.71972 39.1966 1.98049C39.93 1.90143 40.6634 1.82238 41.3969 1.82238C45.4714 1.82238 47.5901 3.56161 47.5901 6.48668C47.5901 9.80704 45.0639 11.6253 40.256 11.6253C39.7671 11.6253 39.3596 11.6253 38.9522 11.6253ZM38.9522 16.764V12.8902H39.8485C43.1896 16.6849 46.1233 20.6377 48.6495 24.7486C49.5459 24.6696 50.3608 24.5905 51.2572 24.5905C52.1536 24.5905 53.0499 24.6696 53.9463 24.7486C50.2793 20.2424 47.0197 16.1315 44.086 12.3368C48.8125 11.5463 51.2572 9.25364 51.2572 6.01235C51.2572 2.37577 48.4865 0.320312 43.2711 0.320312C41.7228 0.320312 39.8485 0.478425 37.7298 0.478425C36.9149 0.478425 36.1 0.478425 35.2036 0.399369C35.4481 3.32444 35.6111 6.56574 35.6111 10.1233C35.6111 15.1828 35.4481 20.0053 35.2036 24.7486C35.937 24.5905 36.5889 24.5905 37.2409 24.5905C37.8928 24.5905 38.6262 24.5905 39.2781 24.7486C39.0336 21.9026 38.9522 19.2147 38.9522 16.764Z" fill="#74BA23"/>
<path d="M59.7322 24.7487C60.4656 24.5906 61.199 24.5906 61.9324 24.5906C62.6658 24.5906 63.3992 24.5906 64.1326 24.7487C63.8067 21.1912 63.7252 17.1593 63.7252 12.6531C63.7252 8.14695 63.8067 4.11509 64.1326 0.478516C63.3992 0.557572 62.6658 0.636628 61.9324 0.636628C61.199 0.636628 60.4656 0.557572 59.7322 0.478516C60.1396 4.03604 60.2211 8.14695 60.2211 12.6531C60.2211 17.1593 60.0581 21.1912 59.7322 24.7487Z" fill="#74BA23"/>
<path d="M95.9141 23.8007C95.8327 22.1405 95.7512 20.4804 95.7512 18.8202C95.7512 17.16 95.8327 15.4208 95.9141 13.6815C95.1807 13.8396 94.4473 13.9187 93.7139 13.9187C93.062 13.9187 92.4101 13.8396 91.7581 13.7606C91.9211 15.4998 92.0026 17.16 92.0026 18.8202C92.0026 20.006 92.0026 21.1128 91.9211 22.2986C90.0469 23.1683 88.1726 23.5635 86.1353 23.5635C79.8606 23.5635 76.0306 19.3736 76.0306 12.3376C76.0306 5.69687 80.1051 1.42785 85.8909 1.42785C89.5579 1.42785 92.1656 2.85085 93.9584 5.4597H94.5288C94.5288 4.27386 94.8548 3.08802 95.5067 2.06029C92.9805 0.637286 89.8024 -0.0742188 86.1353 -0.0742188C77.4974 0.0048373 71.9561 4.98537 71.9561 12.5747C71.9561 20.5594 77.0084 25.3028 85.8094 25.3028C88.9875 25.2237 92.3286 24.8284 95.9141 23.8007Z" fill="#74BA23"/>
<path d="M103.981 24.7487C104.715 24.5906 105.448 24.5906 106.182 24.5906C106.915 24.5906 107.648 24.5906 108.382 24.7487C108.056 21.1912 107.974 17.1593 107.974 12.6531C107.974 8.14695 108.056 4.11509 108.382 0.478516C107.648 0.557572 106.915 0.636628 106.182 0.636628C105.448 0.636628 104.715 0.557572 103.981 0.478516C104.389 4.03604 104.47 8.14695 104.47 12.6531C104.47 17.1593 104.307 21.1912 103.981 24.7487Z" fill="#74BA23"/>
<path d="M117.509 24.8236C117.998 24.7445 118.487 24.6655 118.976 24.6655C119.465 24.6655 120.035 24.7445 120.524 24.8236C120.198 22.2147 120.035 19.2897 120.035 16.1274V6.40354L130.71 17.3923C133.236 20.0012 135.6 22.531 137.718 25.2189H138.941C138.859 22.6891 138.859 20.9499 138.859 19.8431C138.859 9.32861 139.104 2.84602 139.511 0.474336C139.104 0.553392 138.615 0.553392 138.044 0.553392C137.555 0.553392 137.066 0.553392 136.577 0.474336C136.903 3.79469 136.985 6.64071 136.985 9.01239V18.7363C131.118 12.8071 125.25 6.56165 119.383 0H118.079C118.161 1.9764 118.161 3.79469 118.161 5.37581C118.079 14.9416 117.835 21.4242 117.509 24.8236Z" fill="#74BA23"/>
</g>
<defs>
<clipPath id="clip0_483_2712">
<rect width="140" height="53.6" fill="white"/>
</clipPath>
</defs>
</svg>
