<svg width="62" height="62" viewBox="0 0 62 62" fill="none" xmlns="http://www.w3.org/2000/svg">
<path d="M0 15.8974C0 7.11752 7.11753 0 15.8974 0H46.1026C54.8825 0 62 7.11753 62 15.8974V46.1026C62 54.8825 54.8825 62 46.1026 62H15.8974C7.11752 62 0 54.8825 0 46.1026V15.8974Z" fill="url(#paint0_linear_959_1162)"/>
<path d="M0.775 15.8974C0.775 7.54554 7.54555 0.775 15.8974 0.775H46.1026C54.4545 0.775 61.225 7.54555 61.225 15.8974V46.1026C61.225 54.4545 54.4545 61.225 46.1026 61.225H15.8974C7.54554 61.225 0.775 54.4545 0.775 46.1026V15.8974Z" stroke="black" stroke-opacity="0.03" stroke-width="1.55"/>
<g filter="url(#filter0_d_959_1162)">
<path d="M21.2573 13.9492C17.2217 13.9492 13.9502 17.2207 13.9502 21.2564V28.1576L33.4359 34.2468V39.9302C33.4359 40.3786 33.0724 40.7421 32.624 40.7421H29.3764C28.928 40.7421 28.5645 40.3786 28.5645 39.9302V37.4945L13.9502 33.029V40.7421C13.9502 44.7777 17.2217 48.0492 21.2573 48.0492H40.7431C44.7741 48.0492 48.0428 44.785 48.0502 40.7557C48.0502 40.7511 48.0502 40.7466 48.0502 40.7421L48.0502 33.8409L28.5645 27.7516L28.5645 22.0683C28.5645 21.6199 28.928 21.2564 29.3764 21.2564H32.624C33.0724 21.2564 33.4359 21.6199 33.4359 22.0683L33.4359 24.504L48.0502 28.9695L48.0502 21.2564C48.0502 21.2518 48.0502 21.2473 48.0502 21.2428C48.0428 17.2134 44.7741 13.9492 40.7431 13.9492L21.2573 13.9492Z" fill="#212121"/>
</g>
<defs>
<filter id="filter0_d_959_1162" x="10.8502" y="12.3992" width="40.2996" height="40.2996" filterUnits="userSpaceOnUse" color-interpolation-filters="sRGB">
<feFlood flood-opacity="0" result="BackgroundImageFix"/>
<feColorMatrix in="SourceAlpha" type="matrix" values="0 0 0 0 0 0 0 0 0 0 0 0 0 0 0 0 0 0 127 0" result="hardAlpha"/>
<feOffset dy="1.55"/>
<feGaussianBlur stdDeviation="1.55"/>
<feColorMatrix type="matrix" values="0 0 0 0 0.546094 0 0 0 0 0 0 0 0 0 0.176935 0 0 0 0.32 0"/>
<feBlend mode="normal" in2="BackgroundImageFix" result="effect1_dropShadow_959_1162"/>
<feBlend mode="normal" in="SourceGraphic" in2="effect1_dropShadow_959_1162" result="shape"/>
</filter>
<linearGradient id="paint0_linear_959_1162" x1="97.3718" y1="97.7692" x2="4.76923" y2="5.56409" gradientUnits="userSpaceOnUse">
<stop stop-color="#F87408"/>
<stop offset="1" stop-color="#FFF007"/>
</linearGradient>
</defs>
</svg>
