<svg width="80" height="80" viewBox="0 0 80 80" fill="none" xmlns="http://www.w3.org/2000/svg">
<path d="M0 20.5128C0 9.1839 9.18391 0 20.5128 0H59.4872C70.8161 0 80 9.18391 80 20.5128V59.4872C80 70.8161 70.8161 80 59.4872 80H20.5128C9.1839 80 0 70.8161 0 59.4872V20.5128Z" fill="url(#paint0_linear_961_1171)"/>
<path d="M0.775 20.5128C0.775 9.61192 9.61193 0.775 20.5128 0.775H59.4872C70.3881 0.775 79.225 9.61193 79.225 20.5128V59.4872C79.225 70.3881 70.3881 79.225 59.4872 79.225H20.5128C9.61192 79.225 0.775 70.3881 0.775 59.4872V20.5128Z" stroke="black" stroke-opacity="0.03" stroke-width="1.55"/>
<g filter="url(#filter0_d_961_1171)">
<path d="M27.4295 18C22.2223 18 18.001 22.2213 18.001 27.4286V36.3333L43.1439 44.1905V51.5238C43.1439 52.1024 42.6748 52.5714 42.0963 52.5714H37.9058C37.3272 52.5714 36.8582 52.1024 36.8582 51.5238V48.381L18.001 42.619V52.5714C18.001 57.7787 22.2223 62 27.4296 62H52.5724C57.7738 62 61.9915 57.7882 62.001 52.589C62.001 52.5831 62.001 52.5773 62.001 52.5714L62.001 43.6667L36.8581 35.8095L36.8581 28.4762C36.8581 27.8976 37.3272 27.4286 37.9058 27.4286H42.0962C42.6748 27.4286 43.1438 27.8976 43.1438 28.4762L43.1438 31.619L62.001 37.381L62.001 27.4286C62.001 27.4227 62.001 27.4169 62.001 27.411C61.9915 22.2118 57.7738 18 52.5724 18L27.4295 18Z" fill="#212121"/>
</g>
<defs>
<filter id="filter0_d_961_1171" x="14.901" y="16.45" width="50.2" height="50.2" filterUnits="userSpaceOnUse" color-interpolation-filters="sRGB">
<feFlood flood-opacity="0" result="BackgroundImageFix"/>
<feColorMatrix in="SourceAlpha" type="matrix" values="0 0 0 0 0 0 0 0 0 0 0 0 0 0 0 0 0 0 127 0" result="hardAlpha"/>
<feOffset dy="1.55"/>
<feGaussianBlur stdDeviation="1.55"/>
<feColorMatrix type="matrix" values="0 0 0 0 0.546094 0 0 0 0 0 0 0 0 0 0.176935 0 0 0 0.32 0"/>
<feBlend mode="normal" in2="BackgroundImageFix" result="effect1_dropShadow_961_1171"/>
<feBlend mode="normal" in="SourceGraphic" in2="effect1_dropShadow_961_1171" result="shape"/>
</filter>
<linearGradient id="paint0_linear_961_1171" x1="125.641" y1="126.154" x2="6.15385" y2="7.17947" gradientUnits="userSpaceOnUse">
<stop stop-color="#F87408"/>
<stop offset="1" stop-color="#FFF007"/>
</linearGradient>
</defs>
</svg>
