<svg width="80" height="80" viewBox="0 0 80 80" fill="none" xmlns="http://www.w3.org/2000/svg">
<path d="M0 20.4745C0 9.16674 9.1839 0 20.5128 0H59.4872C70.8161 0 80 9.16674 80 20.4745V59.376C80 70.6838 70.8161 79.8505 59.4872 79.8505H20.5128C9.1839 79.8505 0 70.6838 0 59.376V20.4745Z" fill="white"/>
<path d="M0.373832 20.4745C0.373832 9.37386 9.38971 0.373832 20.5128 0.373832H59.4872C70.6103 0.373832 79.6262 9.37386 79.6262 20.4745V59.376C79.6262 70.4766 70.6103 79.4767 59.4872 79.4767H20.5128C9.3897 79.4767 0.373832 70.4766 0.373832 59.376V20.4745Z" stroke="black" stroke-opacity="0.03" stroke-width="0.747664"/>
<path d="M27.4276 17.9688C22.2203 17.9688 17.999 22.1822 17.999 27.3797V36.2678L43.1419 44.1103V51.4299C43.1419 52.0074 42.6729 52.4756 42.0943 52.4756H37.9038C37.3252 52.4756 36.8562 52.0074 36.8562 51.4299V48.2929L17.999 42.5418V52.4756C17.999 57.6731 22.2203 61.8865 27.4276 61.8865H52.5705C57.7719 61.8865 61.9895 57.6826 61.999 52.4931C61.999 52.4873 61.999 52.4814 61.999 52.4756L61.999 43.5875L36.8562 35.745L36.8562 28.4254C36.8562 27.8479 37.3252 27.3797 37.9038 27.3797H42.0943C42.6728 27.3797 43.1419 27.8479 43.1419 28.4254L43.1419 31.5624L61.999 37.3135L61.999 27.3797C61.999 27.3739 61.999 27.368 61.999 27.3622C61.9895 22.1727 57.7719 17.9687 52.5705 17.9688L27.4276 17.9688Z" fill="#212121"/>
</svg>
