<svg width="66" height="66" viewBox="0 0 66 66" fill="none" xmlns="http://www.w3.org/2000/svg">
<path d="M0 16.8915C0 7.56256 7.57672 0 16.9231 0H49.0769C58.4233 0 66 7.56256 66 16.8915V48.9852C66 58.3141 58.4233 65.8767 49.0769 65.8767H16.9231C7.57672 65.8767 0 58.3141 0 48.9852V16.8915Z" fill="white"/>
<path d="M0.308411 16.8915C0.308411 7.73343 7.74651 0.308411 16.9231 0.308411H49.0769C58.2535 0.308411 65.6916 7.73344 65.6916 16.8915V48.9852C65.6916 58.1432 58.2535 65.5683 49.0769 65.5683H16.9231C7.74651 65.5683 0.308411 58.1432 0.308411 48.9852V16.8915Z" stroke="black" stroke-opacity="0.03" stroke-width="0.616823"/>
<path d="M22.6272 14.8242C18.3312 14.8242 14.8486 18.3003 14.8486 22.5883V29.921L35.5915 36.391V42.4297C35.5915 42.9061 35.2046 43.2924 34.7272 43.2924H31.2701C30.7928 43.2924 30.4058 42.9061 30.4058 42.4297V39.8417L14.8486 35.097V43.2924C14.8486 47.5803 18.3312 51.0564 22.6272 51.0564H43.3701C47.6612 51.0564 51.1408 47.5881 51.1486 43.3068C51.1486 43.302 51.1486 43.2972 51.1486 43.2924L51.1486 35.9597L30.4058 29.4896L30.4058 23.4509C30.4058 22.9745 30.7927 22.5883 31.2701 22.5883H34.7272C35.2045 22.5883 35.5915 22.9745 35.5915 23.4509L35.5915 26.0389L51.1486 30.7836L51.1486 22.5883C51.1486 22.5834 51.1486 22.5786 51.1486 22.5738C51.1408 18.2925 47.6612 14.8242 43.3701 14.8242L22.6272 14.8242Z" fill="#1F1F1F"/>
</svg>
