<svg width="209" height="77" viewBox="0 0 209 77" fill="none" xmlns="http://www.w3.org/2000/svg">
<path d="M31.9344 53V52.5753L32.4865 52.4479C33.0244 52.3063 33.4492 52.0656 33.7606 51.7259C34.0721 51.3578 34.2278 50.8906 34.2278 50.3243C34.2278 49.2767 34.2278 48.2433 34.2278 47.224C34.2561 46.1763 34.2703 45.1287 34.2703 44.0811V33.4209H31.8919V32.9537L32.8262 32.7838C33.3925 32.7272 33.8031 32.529 34.0579 32.1893C34.3127 31.8495 34.4968 31.3823 34.61 30.7877C34.8932 29.6835 35.3037 28.7208 35.8417 27.8997C36.408 27.0503 37.045 26.2716 37.7529 25.5638C38.8288 24.5445 39.9614 23.8366 41.1505 23.4402C42.368 23.0155 43.5572 22.8032 44.7181 22.8032C45.8507 22.8032 46.8841 23.0439 47.8185 23.5252C48.7528 23.9782 49.22 24.7427 49.22 25.8186C49.22 26.5831 48.9935 27.1918 48.5405 27.6449C48.0875 28.0696 47.4504 28.2819 46.6293 28.2819C45.9498 28.2819 45.3269 28.0979 44.7606 27.7298C44.1943 27.3617 43.6422 26.7105 43.1042 25.7761L42.5096 25.0541C42.1982 24.6577 41.8867 24.4737 41.5753 24.502C41.2638 24.502 41.0373 24.7285 40.8957 25.1816C40.6975 26.1725 40.5418 27.3334 40.4285 28.6642C40.3436 29.9949 40.3011 31.2974 40.3011 32.5715H45.0579V33.4209H40.3011V50.2394C40.3011 51.3153 40.8674 52.009 42 52.3205L43.0617 52.5753V53H31.9344ZM46.4073 53V52.5753L47.0444 52.4054C47.6107 52.2355 47.9929 51.9807 48.1911 51.6409C48.4176 51.3012 48.5309 50.8623 48.5309 50.3243V37.0309C48.5309 36.408 48.4176 35.955 48.1911 35.6719C47.9929 35.3604 47.6107 35.1481 47.0444 35.0348L46.4073 34.8649V34.4402L53.7123 31.9769L54.137 32.4016L54.5193 36.0541V36.3939C54.9157 35.6011 55.4253 34.8791 56.0482 34.2279C56.6994 33.5483 57.4073 32.9962 58.1718 32.5715C58.9646 32.1468 59.7432 31.9344 60.5077 31.9344C61.5836 31.9344 62.4047 32.2317 62.971 32.8263C63.5373 33.4209 63.8204 34.1712 63.8204 35.0773C63.8204 36.0399 63.5373 36.7903 62.971 37.3282C62.433 37.8379 61.7818 38.0927 61.0173 38.0927C59.8281 38.0927 58.7805 37.4981 57.8745 36.3089L57.7895 36.224C57.5064 35.8276 57.1808 35.6152 56.8127 35.5869C56.4446 35.5303 56.1048 35.7002 55.7934 36.0966C55.5102 36.3514 55.2696 36.6629 55.0714 37.0309C54.9015 37.3707 54.7316 37.7671 54.5617 38.2201V50.0695C54.5617 51.2021 55.0572 51.9099 56.0482 52.1931L57.4073 52.5753V53H46.4073ZM75.1508 31.9344C76.9912 31.9344 78.5627 32.3167 79.8651 33.0811C81.1675 33.8173 82.1585 34.8366 82.8381 36.139C83.5459 37.4132 83.8998 38.8713 83.8998 40.5136C83.8998 40.825 83.8857 41.1506 83.8574 41.4904C83.8291 41.8018 83.7724 42.085 83.6875 42.3398H71.0312C71.0595 45.3977 71.5974 47.6062 72.645 48.9653C73.721 50.296 75.3066 50.9614 77.4018 50.9614C78.8175 50.9614 79.9642 50.7349 80.8419 50.2819C81.7197 49.8288 82.5408 49.1635 83.3052 48.2857L83.73 48.668C82.8522 50.2252 81.6772 51.4427 80.2049 52.3205C78.7609 53.1982 77.0196 53.6371 74.9809 53.6371C72.9707 53.6371 71.1869 53.2124 69.6296 52.3629C68.0723 51.4852 66.8548 50.2394 65.9771 48.6255C65.0994 47.0116 64.6605 45.0863 64.6605 42.8495C64.6605 40.5277 65.1702 38.5599 66.1895 36.946C67.2088 35.3038 68.5112 34.058 70.0968 33.2086C71.7107 32.3591 73.3954 31.9344 75.1508 31.9344ZM75.0234 32.7838C74.2023 32.7838 73.4945 33.0387 72.8999 33.5483C72.3336 34.0297 71.8806 34.9074 71.5408 36.1815C71.2294 37.4273 71.0595 39.197 71.0312 41.4904H78.2937C78.5768 38.4042 78.4636 36.1815 77.9539 34.8224C77.4443 33.4634 76.4674 32.7838 75.0234 32.7838ZM86.0164 53V52.5753L86.611 52.4054C87.602 52.1223 88.0975 51.4286 88.0975 50.3243V37.0309C88.0975 36.408 87.9984 35.955 87.8002 35.6719C87.602 35.3604 87.2198 35.1481 86.6535 35.0348L86.0164 34.8649V34.4402L93.2789 31.9769L93.7037 32.4016L94.0434 34.9499C95.0344 34.0721 96.1528 33.3501 97.3986 32.7838C98.6444 32.2176 99.8761 31.9344 101.094 31.9344C102.962 31.9344 104.392 32.4441 105.383 33.4634C106.402 34.4827 106.912 36.0399 106.912 38.1352V50.3668C106.912 51.471 107.45 52.1647 108.526 52.4479L108.908 52.5753V53H98.8851V52.5753L99.4372 52.4054C100.428 52.094 100.924 51.4003 100.924 50.3243V36.7761C100.924 34.964 100.018 34.058 98.2056 34.058C96.9598 34.058 95.6007 34.6809 94.1284 35.9267V50.3668C94.1284 51.471 94.6239 52.1647 95.6148 52.4479L95.9971 52.5753V53H86.0164ZM119.574 53.6371C117.903 53.6371 116.403 53.269 115.072 52.5328C113.741 51.7683 112.679 50.6075 111.887 49.0502C111.122 47.4646 110.74 45.4402 110.74 42.9769C110.74 40.4852 111.179 38.4325 112.056 36.8186C112.934 35.1764 114.095 33.9589 115.539 33.1661C116.983 32.345 118.554 31.9344 120.253 31.9344C121.244 31.9344 122.193 32.0335 123.099 32.2317C124.005 32.4299 124.812 32.7272 125.52 33.1236V27.6024C125.52 27.0078 125.421 26.5689 125.222 26.2858C125.052 26.0027 124.67 25.8045 124.076 25.6912L123.269 25.5213V25.0966L130.998 23.2279L131.466 23.6101L131.296 29.5561V50.3243C131.296 50.8906 131.395 51.3578 131.593 51.7259C131.791 52.0656 132.159 52.3063 132.697 52.4479L133.079 52.5753V53L125.817 53.4672L125.435 51.9382C124.67 52.4479 123.793 52.8584 122.802 53.1699C121.839 53.4813 120.763 53.6371 119.574 53.6371ZM122.037 52.0656C123.226 52.0656 124.316 51.7117 125.307 51.0039V34.1429C124.26 33.4634 123.184 33.1236 122.08 33.1236C120.72 33.1236 119.56 33.9164 118.597 35.502C117.634 37.0593 117.153 39.5226 117.153 42.8919C117.153 46.2613 117.606 48.6397 118.512 50.027C119.418 51.3861 120.593 52.0656 122.037 52.0656ZM140.744 53.6371C139.101 53.6371 137.714 53.1699 136.581 52.2355C135.477 51.3012 134.925 49.9563 134.925 48.2008C134.925 46.87 135.605 45.6525 136.964 44.5483C138.323 43.4157 140.46 42.5663 143.377 42C143.83 41.9151 144.339 41.8301 144.906 41.7452C145.472 41.632 146.067 41.5187 146.689 41.4054V38.0502C146.689 36.1249 146.449 34.78 145.967 34.0155C145.514 33.2227 144.792 32.8263 143.801 32.8263C143.122 32.8263 142.584 33.0528 142.188 33.5059C141.791 33.9306 141.536 34.6809 141.423 35.7568L141.338 36.224C141.281 37.4415 140.984 38.3334 140.446 38.8997C139.908 39.4659 139.243 39.7491 138.45 39.7491C137.714 39.7491 137.105 39.5226 136.624 39.0695C136.142 38.6165 135.902 38.0078 135.902 37.2433C135.902 36.0824 136.298 35.1056 137.091 34.3128C137.912 33.52 138.988 32.9254 140.319 32.529C141.65 32.1326 143.094 31.9344 144.651 31.9344C147.171 31.9344 149.11 32.5573 150.469 33.8031C151.857 35.0206 152.55 37.0168 152.55 39.7915V49.1776C152.55 50.4517 153.145 51.0888 154.334 51.0888H155.269L155.651 51.4286C155.113 52.1081 154.518 52.6319 153.867 53C153.244 53.3681 152.352 53.5521 151.191 53.5521C149.946 53.5521 148.955 53.269 148.218 52.7027C147.511 52.1081 147.043 51.3295 146.817 50.3668C145.967 51.2728 145.09 52.0515 144.184 52.7027C143.306 53.3256 142.159 53.6371 140.744 53.6371ZM143.334 51.0463C143.901 51.0463 144.424 50.9189 144.906 50.6641C145.415 50.381 146.01 49.9563 146.689 49.39V42.2549C146.406 42.3115 146.123 42.3681 145.84 42.4247C145.557 42.4814 145.231 42.538 144.863 42.5946C143.561 42.9344 142.513 43.5148 141.72 44.3359C140.956 45.1287 140.574 46.2047 140.574 47.5637C140.574 48.7246 140.843 49.6023 141.381 50.1969C141.919 50.7632 142.57 51.0463 143.334 51.0463ZM167.27 53.6371C165.118 53.6371 163.249 53.1982 161.664 52.3205C160.078 51.4144 158.847 50.1403 157.969 48.4981C157.119 46.8559 156.695 44.9305 156.695 42.722C156.695 40.5136 157.148 38.6024 158.054 36.9885C158.988 35.3746 160.248 34.1288 161.834 33.251C163.448 32.3733 165.26 31.9344 167.27 31.9344C169.28 31.9344 171.078 32.3733 172.664 33.251C174.249 34.1004 175.495 35.3321 176.401 36.946C177.336 38.5599 177.803 40.4852 177.803 42.722C177.803 44.9588 177.364 46.8983 176.486 48.5406C175.637 50.1544 174.419 51.4144 172.834 52.3205C171.276 53.1982 169.422 53.6371 167.27 53.6371ZM167.27 52.7876C168.261 52.7876 169.054 52.5045 169.648 51.9382C170.243 51.3719 170.668 50.3668 170.922 48.9228C171.206 47.4788 171.347 45.4402 171.347 42.807C171.347 40.1455 171.206 38.0927 170.922 36.6487C170.668 35.2047 170.243 34.1995 169.648 33.6333C169.054 33.067 168.261 32.7838 167.27 32.7838C166.279 32.7838 165.472 33.067 164.849 33.6333C164.254 34.1995 163.816 35.2047 163.532 36.6487C163.278 38.0927 163.15 40.1455 163.15 42.807C163.15 45.4402 163.278 47.4788 163.532 48.9228C163.816 50.3668 164.254 51.3719 164.849 51.9382C165.472 52.5045 166.279 52.7876 167.27 52.7876Z" fill="#1A1A1C"/>
</svg>
