<svg width="139" height="30" viewBox="0 0 139 30" fill="none" xmlns="http://www.w3.org/2000/svg">
<path d="M0.88 29V28.6L1.4 28.48C1.90667 28.3467 2.30667 28.12 2.6 27.8C2.89333 27.4533 3.04 27.0133 3.04 26.48C3.04 25.4933 3.04 24.52 3.04 23.56C3.06667 22.5733 3.08 21.5867 3.08 20.6V10.56H0.84V10.12L1.72 9.96C2.25333 9.90667 2.64 9.72 2.88 9.4C3.12 9.08 3.29333 8.64 3.4 8.08C3.66667 7.04 4.05333 6.13333 4.56 5.36C5.09333 4.56 5.69333 3.82666 6.36 3.16C7.37333 2.2 8.44 1.53333 9.56 1.16C10.7067 0.759999 11.8267 0.559999 12.92 0.559999C13.9867 0.559999 14.96 0.786666 15.84 1.24C16.72 1.66667 17.16 2.38667 17.16 3.4C17.16 4.12 16.9467 4.69333 16.52 5.12C16.0933 5.52 15.4933 5.72 14.72 5.72C14.08 5.72 13.4933 5.54667 12.96 5.2C12.4267 4.85333 11.9067 4.24 11.4 3.36L10.84 2.68C10.5467 2.30666 10.2533 2.13333 9.96 2.16C9.66667 2.16 9.45333 2.37333 9.32 2.8C9.13333 3.73333 8.98667 4.82667 8.88 6.08C8.8 7.33333 8.76 8.56 8.76 9.76H13.24V10.56H8.76V26.4C8.76 27.4133 9.29333 28.0667 10.36 28.36L11.36 28.6V29H0.88ZM14.5109 29V28.6L15.1109 28.44C15.6443 28.28 16.0043 28.04 16.1909 27.72C16.4043 27.4 16.5109 26.9867 16.5109 26.48V13.96C16.5109 13.3733 16.4043 12.9467 16.1909 12.68C16.0043 12.3867 15.6443 12.1867 15.1109 12.08L14.5109 11.92V11.52L21.3909 9.2L21.7909 9.6L22.1509 13.04V13.36C22.5243 12.6133 23.0043 11.9333 23.5909 11.32C24.2043 10.68 24.8709 10.16 25.5909 9.76C26.3376 9.36 27.0709 9.16 27.7909 9.16C28.8043 9.16 29.5776 9.44 30.1109 10C30.6443 10.56 30.9109 11.2667 30.9109 12.12C30.9109 13.0267 30.6443 13.7333 30.1109 14.24C29.6043 14.72 28.9909 14.96 28.2709 14.96C27.1509 14.96 26.1643 14.4 25.3109 13.28L25.2309 13.2C24.9643 12.8267 24.6576 12.6267 24.3109 12.6C23.9643 12.5467 23.6443 12.7067 23.3509 13.08C23.0843 13.32 22.8576 13.6133 22.6709 13.96C22.5109 14.28 22.3509 14.6533 22.1909 15.08V26.24C22.1909 27.3067 22.6576 27.9733 23.5909 28.24L24.8709 28.6V29H14.5109ZM41.5822 9.16C43.3155 9.16 44.7955 9.52 46.0222 10.24C47.2489 10.9333 48.1822 11.8933 48.8222 13.12C49.4889 14.32 49.8222 15.6933 49.8222 17.24C49.8222 17.5333 49.8089 17.84 49.7822 18.16C49.7555 18.4533 49.7022 18.72 49.6222 18.96H37.7022C37.7289 21.84 38.2355 23.92 39.2222 25.2C40.2355 26.4533 41.7289 27.08 43.7022 27.08C45.0355 27.08 46.1155 26.8667 46.9422 26.44C47.7689 26.0133 48.5422 25.3867 49.2622 24.56L49.6622 24.92C48.8355 26.3867 47.7289 27.5333 46.3422 28.36C44.9822 29.1867 43.3422 29.6 41.4222 29.6C39.5289 29.6 37.8489 29.2 36.3822 28.4C34.9155 27.5733 33.7689 26.4 32.9422 24.88C32.1155 23.36 31.7022 21.5467 31.7022 19.44C31.7022 17.2533 32.1822 15.4 33.1422 13.88C34.1022 12.3333 35.3289 11.16 36.8222 10.36C38.3422 9.56 39.9289 9.16 41.5822 9.16ZM41.4622 9.96C40.6889 9.96 40.0222 10.2 39.4622 10.68C38.9289 11.1333 38.5022 11.96 38.1822 13.16C37.8889 14.3333 37.7289 16 37.7022 18.16H44.5422C44.8089 15.2533 44.7022 13.16 44.2222 11.88C43.7422 10.6 42.8222 9.96 41.4622 9.96ZM51.8156 29V28.6L52.3756 28.44C53.309 28.1733 53.7756 27.52 53.7756 26.48V13.96C53.7756 13.3733 53.6823 12.9467 53.4956 12.68C53.309 12.3867 52.949 12.1867 52.4156 12.08L51.8156 11.92V11.52L58.6556 9.2L59.0556 9.6L59.3756 12C60.309 11.1733 61.3623 10.4933 62.5356 9.96C63.709 9.42667 64.869 9.16 66.0156 9.16C67.7756 9.16 69.1223 9.64 70.0556 10.6C71.0156 11.56 71.4956 13.0267 71.4956 15V26.52C71.4956 27.56 72.0023 28.2133 73.0156 28.48L73.3756 28.6V29H63.9356V28.6L64.4556 28.44C65.389 28.1467 65.8556 27.4933 65.8556 26.48V13.72C65.8556 12.0133 65.0023 11.16 63.2956 11.16C62.1223 11.16 60.8423 11.7467 59.4556 12.92V26.52C59.4556 27.56 59.9223 28.2133 60.8556 28.48L61.2156 28.6V29H51.8156ZM83.4206 29.6C81.8473 29.6 80.434 29.2533 79.1806 28.56C77.9273 27.84 76.9273 26.7467 76.1806 25.28C75.4606 23.7867 75.1006 21.88 75.1006 19.56C75.1006 17.2133 75.514 15.28 76.3406 13.76C77.1673 12.2133 78.2606 11.0667 79.6206 10.32C80.9806 9.54667 82.4606 9.16 84.0606 9.16C84.994 9.16 85.8873 9.25333 86.7406 9.44C87.594 9.62667 88.354 9.90667 89.0206 10.28V5.08C89.0206 4.52 88.9273 4.10667 88.7406 3.84C88.5806 3.57333 88.2206 3.38667 87.6606 3.28L86.9006 3.12V2.72L94.1806 0.959999L94.6206 1.32L94.4606 6.92V26.48C94.4606 27.0133 94.554 27.4533 94.7406 27.8C94.9273 28.12 95.274 28.3467 95.7806 28.48L96.1406 28.6V29L89.3006 29.44L88.9406 28C88.2206 28.48 87.394 28.8667 86.4606 29.16C85.554 29.4533 84.5406 29.6 83.4206 29.6ZM85.7406 28.12C86.8606 28.12 87.8873 27.7867 88.8206 27.12V11.24C87.834 10.6 86.8206 10.28 85.7806 10.28C84.5006 10.28 83.4073 11.0267 82.5006 12.52C81.594 13.9867 81.1406 16.3067 81.1406 19.48C81.1406 22.6533 81.5673 24.8933 82.4206 26.2C83.274 27.48 84.3806 28.12 85.7406 28.12ZM103.359 29.6C101.812 29.6 100.505 29.16 99.4388 28.28C98.3988 27.4 97.8788 26.1333 97.8788 24.48C97.8788 23.2267 98.5188 22.08 99.7988 21.04C101.079 19.9733 103.092 19.1733 105.839 18.64C106.265 18.56 106.745 18.48 107.279 18.4C107.812 18.2933 108.372 18.1867 108.959 18.08V14.92C108.959 13.1067 108.732 11.84 108.279 11.12C107.852 10.3733 107.172 10 106.239 10C105.599 10 105.092 10.2133 104.719 10.64C104.345 11.04 104.105 11.7467 103.999 12.76L103.919 13.2C103.865 14.3467 103.585 15.1867 103.079 15.72C102.572 16.2533 101.945 16.52 101.199 16.52C100.505 16.52 99.9321 16.3067 99.4788 15.88C99.0254 15.4533 98.7988 14.88 98.7988 14.16C98.7988 13.0667 99.1721 12.1467 99.9188 11.4C100.692 10.6533 101.705 10.0933 102.959 9.72C104.212 9.34667 105.572 9.16 107.039 9.16C109.412 9.16 111.239 9.74667 112.519 10.92C113.825 12.0667 114.479 13.9467 114.479 16.56V25.4C114.479 26.6 115.039 27.2 116.159 27.2H117.039L117.399 27.52C116.892 28.16 116.332 28.6533 115.719 29C115.132 29.3467 114.292 29.52 113.199 29.52C112.025 29.52 111.092 29.2533 110.399 28.72C109.732 28.16 109.292 27.4267 109.079 26.52C108.279 27.3733 107.452 28.1067 106.599 28.72C105.772 29.3067 104.692 29.6 103.359 29.6ZM105.799 27.16C106.332 27.16 106.825 27.04 107.279 26.8C107.759 26.5333 108.319 26.1333 108.959 25.6V18.88C108.692 18.9333 108.425 18.9867 108.159 19.04C107.892 19.0933 107.585 19.1467 107.239 19.2C106.012 19.52 105.025 20.0667 104.279 20.84C103.559 21.5867 103.199 22.6 103.199 23.88C103.199 24.9733 103.452 25.8 103.959 26.36C104.465 26.8933 105.079 27.16 105.799 27.16ZM128.342 29.6C126.315 29.6 124.555 29.1867 123.062 28.36C121.569 27.5067 120.409 26.3067 119.582 24.76C118.782 23.2133 118.382 21.4 118.382 19.32C118.382 17.24 118.809 15.44 119.662 13.92C120.542 12.4 121.729 11.2267 123.222 10.4C124.742 9.57333 126.449 9.16 128.342 9.16C130.235 9.16 131.929 9.57333 133.422 10.4C134.915 11.2 136.089 12.36 136.942 13.88C137.822 15.4 138.262 17.2133 138.262 19.32C138.262 21.4267 137.849 23.2533 137.022 24.8C136.222 26.32 135.075 27.5067 133.582 28.36C132.115 29.1867 130.369 29.6 128.342 29.6ZM128.342 28.8C129.275 28.8 130.022 28.5333 130.582 28C131.142 27.4667 131.542 26.52 131.782 25.16C132.049 23.8 132.182 21.88 132.182 19.4C132.182 16.8933 132.049 14.96 131.782 13.6C131.542 12.24 131.142 11.2933 130.582 10.76C130.022 10.2267 129.275 9.96 128.342 9.96C127.409 9.96 126.649 10.2267 126.062 10.76C125.502 11.2933 125.089 12.24 124.822 13.6C124.582 14.96 124.462 16.8933 124.462 19.4C124.462 21.88 124.582 23.8 124.822 25.16C125.089 26.52 125.502 27.4667 126.062 28C126.649 28.5333 127.409 28.8 128.342 28.8Z" fill="#1A1A1C"/>
</svg>
